<svg width="126" height="126" viewBox="0 0 126 126" fill="none" xmlns="http://www.w3.org/2000/svg">
<path d="M62.22 3.46764C62.3774 3.45864 62.5348 3.45506 62.6924 3.45688C63.4546 3.47071 64.1988 3.59093 64.9057 3.882C65.8754 4.28121 66.8167 4.78922 67.7664 5.23616L74.4375 8.39788L104.527 22.6165C106.425 23.514 118.588 29.1148 119.02 29.6018C119.233 29.8418 119.286 30.1888 119.256 30.4983C119.23 30.7544 119.153 30.9712 118.981 31.1659C118.384 31.8461 117.534 32.3919 116.822 32.9578L112.373 36.4759C113.504 37.274 118.486 39.7918 119 40.3983C119.26 40.7036 119.403 41.1227 119.344 41.5228C119.299 41.8324 119.139 42.0408 118.926 42.2613C118.233 42.9814 117.286 43.5697 116.479 44.1628C114.974 45.2549 113.479 46.3614 111.995 47.4823C112.68 47.9718 113.42 48.3961 114.133 48.8426C115.242 49.5364 116.345 50.24 117.442 50.9532C117.948 51.2807 118.765 51.682 119.14 52.1494C119.348 52.4088 119.42 52.7609 119.387 53.0867C119.359 53.3659 119.257 53.6214 119.065 53.8277C118.612 54.3176 117.942 54.7012 117.396 55.0886L114.306 57.3129C113.692 57.7467 112.988 58.163 112.428 58.6616L112.342 58.7403C113.813 59.726 115.351 60.6292 116.853 61.5687C117.505 61.9768 118.447 62.4235 118.953 62.991C119.169 63.2325 119.222 63.5958 119.181 63.9066C119.151 64.1269 119.072 64.3383 118.913 64.4973C118.291 65.1195 117.385 65.6391 116.665 66.1526C115.16 67.2243 113.661 68.3047 112.168 69.3938C113.313 70.1082 118.693 73.5099 119.183 74.1568C119.385 74.4232 119.49 74.7431 119.428 75.0766C119.368 75.399 119.164 75.6788 118.93 75.9003C118.355 76.4434 117.611 76.8991 116.969 77.3681L112.556 80.5586C113.453 81.1614 118.741 84.5567 119.059 85.0353C119.266 85.3477 119.274 85.7297 119.221 86.088C118.75 86.8187 114.677 89.4875 113.71 90.1671C107.771 94.3639 101.782 98.488 95.7433 102.539L81.4948 112.346L72.5642 118.492C70.8166 119.703 69.0464 121.076 67.2301 122.159C66.9716 122.313 66.5187 122.584 66.2219 122.57C66.0142 122.56 65.7346 122.42 65.5506 122.331C64.8708 122 64.2336 121.518 63.602 121.103C62.7273 120.531 61.8465 119.968 60.9596 119.415C56.7589 116.743 52.5765 114.044 48.4122 111.316L17.9286 91.6599C15.3886 90.0554 12.8599 88.4333 10.3425 86.7935C9.83975 86.4683 8.25627 85.5644 7.92824 85.1951C7.68915 84.9259 7.54541 84.4884 7.39497 84.1631C6.48638 82.1977 5.98356 80.1028 6.0868 77.9309C6.21984 75.1326 7.24683 72.5588 9.33524 70.6708C8.92834 70.3702 8.44654 70.1964 8.05018 69.8948C7.12213 69.1889 6.57258 65.9167 6.43562 64.7827C5.84312 59.877 7.48843 55.5674 10.4665 51.7453C9.90651 51.4457 9.52958 51.1753 9.1915 50.6268C7.68198 48.1772 7.63539 44.8575 8.28119 42.1411C8.52578 41.1123 9.12439 39.0552 9.87189 38.2899C10.5022 37.6445 11.8306 36.9836 12.6321 36.4928C12.454 36.4001 12.2634 36.3093 12.1003 36.1917C11.8243 35.9928 11.5824 35.6264 11.5487 35.2838C11.5197 34.9886 11.6356 34.6939 11.8232 34.4689C12.3063 33.8895 14.9718 32.4144 15.816 31.8882L23.9569 26.8113L44.4675 13.9968C48.3495 11.5368 52.246 9.0999 56.1569 6.68627C57.4784 5.85926 58.7458 4.91205 60.0887 4.12655C60.7643 3.73142 61.4488 3.55897 62.22 3.46764Z" fill="#0B1F33"/>
<path d="M109.715 49.0704C110.361 49.2097 115.029 52.3889 115.904 52.9987C114.109 54.1094 112.253 55.0824 110.411 56.1107L100.986 61.4219L72.9402 77.5953C71.4871 78.3968 70.0407 79.2103 68.6011 80.0358C69.6617 79.0701 70.9275 78.2357 72.0668 77.3596C74.6972 75.3117 77.353 73.2973 80.0342 71.3165L101.96 54.9235C103.526 53.7445 105.1 52.5771 106.683 51.4212C107.71 50.6628 108.767 49.9266 109.715 49.0704Z" fill="#62D28F"/>
<path d="M109.932 70.8658C110.765 71.3179 111.54 71.8804 112.326 72.4092L115.905 74.8335L90.7641 88.8767C84.5261 92.3952 78.3554 96.0634 72.0624 99.4795C70.6688 100.214 69.3207 101.033 67.9211 101.754C76.4905 95.2085 85.156 88.7925 93.9176 82.5062L103.822 75.2659C104.958 74.433 106.099 73.6059 107.244 72.7846C108.132 72.1367 109.006 71.4594 109.932 70.8658Z" fill="#62D28F"/>
<path d="M11.5483 72.0934C13.1133 72.9299 14.6117 73.9675 16.1123 74.9183L23.561 79.6002L52.3552 97.7761L58.9466 101.99C60.1412 102.762 62.272 104.332 63.492 104.748C64.0133 104.627 64.3897 104.468 64.8201 104.146C65.3168 104.433 65.8061 104.844 66.3418 105.047C66.6761 105.174 66.9249 105.151 67.2527 105.018C68.2361 104.621 69.1978 103.976 70.1278 103.46C71.9123 102.492 73.687 101.506 75.4519 100.503C82.7201 96.4188 89.8671 92.104 97.2211 88.1777C98.7683 87.3516 100.269 86.355 101.849 85.6033C101.673 85.9103 99.2464 87.4905 98.7499 87.8563C95.4837 90.2499 92.1899 92.6048 88.8684 94.9212L84.4617 97.9112L75.7083 104.096C72.9807 106.014 70.1671 107.864 67.5211 109.891C64.9923 108.354 62.5404 106.686 60.054 105.08C55.4815 102.187 50.9302 99.261 46.4002 96.3018L10.1089 73.3397C10.5561 72.8939 11.065 72.4997 11.5483 72.0934Z" fill="#E1E1E1"/>
<path d="M14.9245 38.0101C16.1876 38.6356 17.4062 39.474 18.6234 40.194L26.4139 44.7821L53.5905 60.6788L59.7746 64.2699C60.6201 64.7638 61.5456 65.5291 62.4845 65.8031C62.5835 65.832 62.6517 65.8373 62.757 65.8316C62.9962 65.819 63.2819 65.6385 63.4843 65.5157L94.0941 46.6221L100.181 42.8695C101.215 42.2358 102.246 41.5342 103.32 40.9727C101.98 42.0387 100.63 43.0905 99.2679 44.1279L85.7267 54.5291C78.7557 59.9325 71.7424 65.2803 64.6865 70.5724C62.1184 68.8953 59.4026 67.3761 56.7618 65.8143L43.2173 57.7814L22.4433 45.4753C19.1403 43.5102 15.9014 41.4198 12.562 39.5199C13.3111 38.9747 14.1397 38.5047 14.9245 38.0101Z" fill="#E1E1E1"/>
<path d="M12.7216 53.0215C13.2996 53.2964 13.8385 53.6771 14.383 54.0129L16.6804 55.3997C19.8811 57.3143 23.071 59.247 26.25 61.1977L48.2806 74.4907L59.5669 81.3595C60.656 82.0117 61.7262 82.7123 62.8286 83.3399C63.058 83.4704 63.2999 83.6058 63.5703 83.6117C64.0012 83.621 64.2426 83.3904 64.5289 83.0984C65.0668 83.3813 65.5146 83.8708 66.0872 84.0779C66.4661 84.215 66.7582 84.0876 67.1073 83.9229C67.8777 83.5593 68.6188 83.0474 69.3566 82.6163C71.0039 81.6471 72.6576 80.6887 74.3176 79.7412L93.0429 68.9225C96.4136 66.9541 99.7567 64.8233 103.235 63.0498C101.301 64.6123 99.2283 66.0406 97.2164 67.5031C86.0286 75.4367 75.2017 83.8803 64.0026 91.7984C62.3592 90.8777 60.7856 89.7939 59.1869 88.7958L49.232 82.607L9.60791 58.1866C10.1463 56.2085 11.3982 54.5422 12.7216 53.0215Z" fill="#E1E1E1"/>
<path d="M8.94995 60.64C12.6852 62.8867 16.3649 65.234 20.0781 67.5178L49.1601 85.4818C50.9053 86.5634 63.2754 94.4711 63.948 94.5691C64.371 94.6307 64.6287 94.4369 64.9683 94.2191C66.6575 93.1356 68.2508 91.8331 69.8781 90.6547L80.236 83.094L92.7794 73.8546C98.7013 69.4313 104.653 65.0487 110.635 60.7068C112.269 61.6965 113.92 62.714 115.5 63.7885C114.745 64.462 113.823 65.038 113 65.632C101.6 73.754 90.26 81.9574 78.9784 90.2421L69.472 97.4404C67.5025 98.95 65.5559 100.514 63.5209 101.934C62.9842 101.673 62.4787 101.302 61.9764 100.979L59.2489 99.2264L49.7568 93.166L20.2446 74.6356C16.7342 72.4406 13.2773 70.1403 9.7295 68.0074C8.93491 65.726 8.39801 63.0348 8.94995 60.64Z" fill="#E1E1E1"/>
<path d="M110.624 38.3729C111.198 38.6044 111.766 38.9863 112.307 39.2881L115.93 41.3088C114.555 42.6236 112.209 44.1551 110.593 45.327C108.778 46.6432 107.008 48.0111 105.207 49.346C103.963 50.2687 102.688 51.1485 101.456 52.0876L73.0696 73.4366C70.9893 75.01 68.9197 76.5973 66.8608 78.1986C65.7561 79.0601 64.6736 79.9607 63.5425 80.7868C62.5449 80.2418 61.5895 79.6189 60.6125 79.0381L51.7961 73.7057L25.9357 58.1282C21.9153 55.7027 17.9454 53.1491 13.8697 50.8222C13.0157 50.3116 12.1674 49.7815 11.2776 49.3353C11.2454 49.2776 11.2127 49.2201 11.1833 49.1609C9.99763 46.7819 10.1865 43.9679 10.9948 41.5127C12.6722 42.4102 14.2955 43.4615 15.9235 44.4464L24.3763 49.526L52.9839 66.4586L60.5905 71.0254C61.6762 71.6757 63.7991 73.1119 64.9352 73.4362C65.8501 73.0493 68.2071 71.0881 69.1361 70.3815L78.0053 63.6214L98.7249 47.6925C101.252 45.7674 103.759 43.8159 106.245 41.8379C107.709 40.6921 109.206 39.574 110.624 38.3729Z" fill="#E1E1E1"/>
<path d="M8.98414 75.5685C9.7248 75.9577 10.4196 76.451 11.1274 76.8979C12.4023 77.6929 13.6696 78.4998 14.9294 79.3186L23.4942 84.7774L54.1526 104.248C57.1446 106.203 60.148 108.14 63.1627 110.06C64.3726 110.836 65.5614 111.704 66.8005 112.427C66.9655 112.524 67.1413 112.593 67.3306 112.625C67.6828 112.683 68.057 112.456 68.355 112.281C69.7749 111.449 71.2687 110.279 72.6403 109.322L81.7165 102.956C91.4838 96.2713 101.104 89.3811 110.576 82.2851C112.338 83.3521 114.011 84.5756 115.741 85.6951C114.983 86.3078 114.122 86.8388 113.319 87.3955C109.489 90.1622 105.531 92.7409 101.635 95.412L80.8829 109.698L72.7487 115.326C70.5645 116.826 68.3528 118.282 66.2036 119.832C64.4958 118.634 62.6773 117.546 60.9135 116.429C58.4967 114.893 56.0896 113.342 53.692 111.776L22.1538 91.4404L12.86 85.4805C11.9792 84.904 11.0417 84.3908 10.1851 83.7815C10.0088 83.6561 9.89373 83.5263 9.78648 83.3375C8.44521 80.977 8.24292 78.1397 8.98414 75.5685Z" fill="#E1E1E1"/>
<path d="M62.2318 5.98231C62.7363 5.95543 63.2142 5.93484 63.6947 6.11824C64.4284 6.39832 65.1481 6.76882 65.8606 7.10134L69.8803 8.99743L81.771 14.6145L115.24 30.5616C114.215 31.243 113.139 31.8689 112.093 32.5184L102.756 38.2478L66.1062 60.8546C64.9399 61.5713 63.7805 62.2988 62.6277 63.0369C61.8939 62.6666 61.1869 62.2094 60.4774 61.7932L56.3655 59.3896L41.9823 50.9894L21.4575 38.9789C19.3235 37.7495 17.202 36.4989 15.093 35.227C16.9551 33.9555 18.9438 32.8296 20.8679 31.6513L29.6897 26.1782L50.2651 13.335L58.233 8.30784C59.2299 7.68534 61.2019 6.21936 62.2318 5.98231Z" fill="white"/>
<path d="M66.0467 12.3576C66.0879 12.3558 66.129 12.3533 66.1702 12.3523C66.3962 12.3467 66.6328 12.4276 66.7795 12.6092C66.8911 12.7474 66.9336 12.8791 66.9089 13.0566C66.87 13.3355 66.6096 13.4813 66.3981 13.6313C64.483 14.9891 62.3744 16.1631 60.3702 17.3886L50.5397 23.4402L34.8108 33.0788C32.6556 34.3786 30.5131 35.7101 28.3232 36.95C28.2681 36.9618 28.2365 36.9709 28.1768 36.9714C27.986 36.9733 27.825 36.8834 27.7026 36.7419C27.5776 36.5975 27.5003 36.4104 27.5336 36.2165C27.5818 35.9367 27.8536 35.7691 28.0748 35.627C29.1297 34.9494 30.2331 34.3324 31.3068 33.6837L39.0905 28.9789L66.0467 12.3576Z" fill="#0B1F33"/>
<path d="M76.4663 16.2986C76.5457 16.2985 76.6407 16.2932 76.72 16.3083C76.9285 16.3483 77.1754 16.4883 77.2828 16.6787C77.3606 16.8163 77.3855 16.9386 77.334 17.0919C77.2549 17.3278 77.0375 17.4744 76.8421 17.6097C75.5503 18.5029 74.1358 19.2856 72.7988 20.1137L64.2365 25.4181C55.0641 31.1588 45.8435 36.821 36.5746 42.4047C36.5181 42.4199 36.4827 42.4318 36.4211 42.435C36.2194 42.4456 35.9901 42.3302 35.8558 42.1804C35.7562 42.0694 35.691 41.9549 35.7185 41.8002C35.7634 41.5475 35.9828 41.3271 36.174 41.1746C36.9595 40.5486 37.9758 40.0781 38.8402 39.5583C40.9662 38.2952 43.0798 37.0116 45.1809 35.7074L76.4663 16.2986Z" fill="#0B1F33"/>
<path d="M85.4927 21.2236C85.5224 21.226 85.5525 21.2267 85.5821 21.2306C85.8243 21.2621 86.009 21.3658 86.1533 21.5653C86.2519 21.7015 86.2992 21.862 86.2575 22.0289C86.1293 22.5423 84.7954 23.1816 84.3264 23.4715L57.5042 40.1304C54.58 41.9579 51.6464 43.7701 48.7034 45.5671C47.5439 46.2704 46.3874 47.109 45.1691 47.7002C45.0995 47.6956 45.0297 47.6904 44.9608 47.679C44.7608 47.6461 44.5534 47.5058 44.4481 47.331C44.3613 47.187 44.3272 47.0465 44.3727 46.8811C44.4538 46.5874 44.681 46.4888 44.9188 46.3439C54.8157 40.2966 64.6812 34.1983 74.5152 28.0489L82.0357 23.3686C83.1831 22.6537 84.3085 21.8748 85.4927 21.2236Z" fill="#0B1F33"/>
<path d="M94.656 25.899C94.7363 25.8958 94.787 25.892 94.8701 25.8977C95.078 25.912 95.3161 26.0361 95.4372 26.2118C95.5313 26.3483 95.5643 26.4679 95.5148 26.6305C95.4431 26.8664 95.2253 27.0066 95.0347 27.143C93.3811 28.326 91.5771 29.3722 89.8544 30.4596L81.2096 35.9496C74.6045 40.1492 67.9704 44.3025 61.3074 48.4095C58.9639 49.8778 56.6076 51.3254 54.2386 52.7523C54.1307 52.7651 53.9981 52.7771 53.8904 52.7513C53.7184 52.71 53.6266 52.6283 53.5341 52.481C53.4393 52.3302 53.3617 52.0621 53.4377 51.891C53.5481 51.6427 54.1118 51.3524 54.3414 51.2066L94.656 25.899Z" fill="#0B1F33"/>
</svg>
