<svg width="27" height="27" viewBox="0 0 27 27" fill="none" xmlns="http://www.w3.org/2000/svg">
<path d="M10.2548 20.4444H16.745M13.4999 1V2.38889M22.3388 4.66117L21.3567 5.64326M26 13.4999H24.6111M2.38889 13.4999H1M5.64318 5.64326L4.66109 4.66116M8.58946 18.4105C5.87749 15.6985 5.87749 11.3015 8.58946 8.58957C11.3014 5.87759 15.6984 5.87759 18.4104 8.58957C21.1224 11.3015 21.1224 15.6985 18.4104 18.4105L17.6505 19.1704C16.7715 20.0494 16.2777 21.2415 16.2777 22.4847V23.2222C16.2777 24.7563 15.034 26 13.4999 26C11.9658 26 10.7221 24.7563 10.7221 23.2222V22.4847C10.7221 21.2415 10.2283 20.0494 9.34932 19.1704L8.58946 18.4105Z" stroke="#111827" stroke-width="2" stroke-linecap="round" stroke-linejoin="round"/>
</svg>
