<svg width="28" height="27" viewBox="0 0 28 27" fill="none" xmlns="http://www.w3.org/2000/svg">
<path d="M1.79321 22.6846V10.3678C1.79321 9.44547 2.25418 8.58414 3.02163 8.07251L12.6768 1.63573C13.6034 1.01798 14.8106 1.01798 15.7372 1.63573L25.3924 8.07251C26.1598 8.58414 26.6208 9.44547 26.6208 10.3678V22.6846M1.79321 22.6846C1.79321 24.2081 3.02829 25.4432 4.55183 25.4432H23.8622C25.3857 25.4432 26.6208 24.2081 26.6208 22.6846M1.79321 22.6846L11.1036 16.4777M26.6208 22.6846L17.3105 16.4777M1.79321 10.2708L11.1036 16.4777M26.6208 10.2708L17.3105 16.4777M17.3105 16.4777L15.7372 17.5265C14.8106 18.1442 13.6034 18.1442 12.6768 17.5265L11.1036 16.4777" stroke="#111827" stroke-width="2" stroke-linecap="round" stroke-linejoin="round"/>
</svg>
