<svg width="22" height="27" viewBox="0 0 22 27" fill="none" xmlns="http://www.w3.org/2000/svg">
<path d="M16.1786 6.55556C16.1786 9.6238 13.7481 12.1111 10.75 12.1111C7.75188 12.1111 5.32143 9.6238 5.32143 6.55556C5.32143 3.48731 7.75188 1 10.75 1C13.7481 1 16.1786 3.48731 16.1786 6.55556Z" fill="#3C4694"/>
<path d="M10.75 16.2778C5.50329 16.2778 1.25 20.6306 1.25 26H20.25C20.25 20.6306 15.9967 16.2778 10.75 16.2778Z" fill="#3C4694"/>
<path d="M16.1786 6.55556C16.1786 9.6238 13.7481 12.1111 10.75 12.1111C7.75188 12.1111 5.32143 9.6238 5.32143 6.55556C5.32143 3.48731 7.75188 1 10.75 1C13.7481 1 16.1786 3.48731 16.1786 6.55556Z" stroke="#3C4694" stroke-width="2" stroke-linecap="round" stroke-linejoin="round"/>
<path d="M10.75 16.2778C5.50329 16.2778 1.25 20.6306 1.25 26H20.25C20.25 20.6306 15.9967 16.2778 10.75 16.2778Z" stroke="#3C4694" stroke-width="2" stroke-linecap="round" stroke-linejoin="round"/>
</svg>
