<svg width="102" height="102" viewBox="0 0 102 102" fill="none" xmlns="http://www.w3.org/2000/svg">
<path d="M55.648 2.26053C56.1822 2.20853 56.746 2.2606 57.2714 2.36385C58.8657 2.67715 60.364 3.64694 61.2668 5.00571C62.2466 6.48042 62.4027 8.06161 62.0644 9.76073C63.4381 10.0543 64.8848 10.1985 66.2766 10.4171C66.8513 10.5073 67.4623 10.5662 68.017 10.7445C68.3053 10.8371 68.5632 10.9611 68.7748 11.1813C69.249 11.6741 69.2848 12.2553 69.2757 12.8998C70.6223 13.1624 72.013 13.3022 73.3736 13.4883L81.0306 14.5295C82.2947 14.704 84.301 14.8532 85.4549 15.2718C86.2062 15.5444 86.8123 16.0298 87.2924 16.6635C87.8769 17.4347 88.1899 18.263 88.1722 19.2383C88.1559 20.1315 87.9855 21.0638 87.8624 21.9507L87.1905 26.6845L85.1605 41.8583L77.7075 95.8165C77.5031 97.3475 77.0939 98.4174 75.8304 99.3734C75.7442 99.4373 75.6556 99.4978 75.5648 99.5548C75.4739 99.6118 75.381 99.6652 75.286 99.715C75.191 99.7654 75.0943 99.8119 74.9958 99.8544C74.8973 99.8969 74.7973 99.9354 74.6958 99.97C74.5943 100.005 74.4917 100.036 74.3878 100.063C74.284 100.09 74.1792 100.113 74.0736 100.131C73.968 100.151 73.8618 100.166 73.7551 100.176C73.6483 100.187 73.5413 100.193 73.4341 100.196C72.4085 100.221 71.3343 99.9979 70.3189 99.8574L65.5846 99.2164L47.276 96.7696C47.2602 96.7685 47.2443 96.7679 47.2284 96.7664C44.9287 96.5435 42.6219 96.1522 40.3324 95.8401L27.065 94.037L20.3013 93.1374C19.12 92.9837 17.6495 92.9048 16.5368 92.5768C15.743 92.3428 15.0505 91.7876 14.5496 91.1402C13.9942 90.4226 13.747 89.5373 13.7869 88.637C13.8303 87.6549 14.0404 86.6417 14.1663 85.6631L14.9056 79.9038L16.887 64.9455C19.2837 47.2346 21.587 29.5116 23.7969 11.7765C23.9716 10.4321 24.4 9.33375 25.5106 8.48961C25.5902 8.42953 25.6719 8.37239 25.7557 8.3182C25.8395 8.26401 25.9252 8.21291 26.0126 8.1649C26.1001 8.1169 26.1892 8.07211 26.2799 8.03053C26.3705 7.98895 26.4626 7.95069 26.5561 7.91576C26.6495 7.88083 26.7441 7.84931 26.8399 7.8212C26.9356 7.7931 27.0322 7.76848 27.1297 7.74735C27.2272 7.72622 27.3254 7.70863 27.4242 7.69459C27.5229 7.68054 27.6221 7.67007 27.7216 7.66318C28.4807 7.61653 29.2713 7.77045 30.0233 7.86718C31.1317 8.00786 32.2393 8.15518 33.3461 8.30916L42.4718 9.53063C42.5839 8.78913 42.6729 8.07501 43.3008 7.56926C43.5759 7.34766 43.9795 7.26265 44.325 7.2515C44.9706 7.23064 45.6819 7.39649 46.3226 7.49091C47.5956 7.68558 48.8696 7.87277 50.1448 8.05247C50.2066 6.7657 50.5975 5.53612 51.4142 4.52502C52.4786 3.20713 53.9731 2.43413 55.648 2.26053Z" fill="#1F50E8"/>
<path d="M55.6399 3.25428C56.3983 3.14813 57.2924 3.31101 58.0078 3.56816C59.2765 4.02417 60.2471 5.02504 60.8084 6.23855C61.482 7.69492 61.3494 9.10462 60.8184 10.5771C62.1442 10.7411 63.4695 10.9686 64.7908 11.1683C65.6716 11.3015 66.6011 11.3904 67.4654 11.6041C67.6941 11.6606 68.0135 11.7397 68.1756 11.9199C68.3517 12.1157 68.3052 12.4026 68.2792 12.6409C68.0882 14.3902 67.7697 16.141 67.5185 17.8839C67.3767 18.8675 67.264 20.3068 67.0221 21.2316C66.9816 21.3865 66.8748 21.5113 66.7493 21.6068C66.6002 21.7201 66.4508 21.7342 66.2685 21.7276C65.0993 21.6861 63.8787 21.4112 62.7165 21.2424L55.919 20.266L47.3459 19.0404L44.4994 18.6353C43.886 18.5482 43.2614 18.4837 42.6591 18.3366C42.5638 18.2471 42.4627 18.1571 42.3809 18.055C42.2136 17.8458 42.2134 17.6097 42.2414 17.3565C42.3062 16.7718 42.4344 16.183 42.5312 15.6018L42.9804 12.7481L43.3793 10.2516C43.4561 9.77738 43.5099 9.27017 43.6416 8.80854C43.7011 8.60025 43.8491 8.40299 44.0207 8.27342C44.1346 8.18746 44.2241 8.19394 44.3612 8.19894C45.1506 8.22777 46.0006 8.43137 46.7838 8.55396L51.0515 9.21161C51.0663 7.77954 51.2297 6.40866 52.1213 5.23001C53.0012 4.06685 54.2158 3.45588 55.6399 3.25428Z" fill="#EFF5F9"/>
<path d="M55.6166 4.79433C56.4656 4.69999 57.364 4.87869 58.0888 5.3359C58.8677 5.82717 59.3789 6.59742 59.5764 7.49278C59.7728 8.38311 59.6308 9.3229 59.136 10.0937C58.6021 10.9257 57.8278 11.3869 56.8766 11.5943C55.9622 11.7072 55.0194 11.5774 54.2413 11.057C53.4719 10.5424 52.9365 9.69818 52.7677 8.79122C52.6054 7.91999 52.7536 6.95714 53.2697 6.22603C53.8424 5.41496 54.6507 4.95901 55.6166 4.79433Z" fill="#1F50E8"/>
<path d="M55.6781 5.7876C56.3267 5.73788 56.9085 5.79983 57.4838 6.1387C58.042 6.46746 58.4236 7.00016 58.5818 7.62615C58.7493 8.28878 58.6456 9.0325 58.2778 9.61197C57.9034 10.2019 57.3372 10.5141 56.67 10.6535C56.0491 10.7026 55.5044 10.6491 54.9536 10.3335C54.9165 10.3124 54.8799 10.2903 54.8439 10.2674C54.8078 10.2445 54.7724 10.2206 54.7376 10.1959C54.7027 10.1712 54.6685 10.1456 54.6349 10.1191C54.6014 10.0927 54.5685 10.0655 54.5363 10.0374C54.5041 10.0093 54.4726 9.98047 54.4418 9.9508C54.4111 9.92115 54.3811 9.89075 54.3519 9.85959C54.3226 9.82843 54.2942 9.79656 54.2665 9.76398C54.2389 9.7314 54.2121 9.69815 54.1861 9.66423C54.1602 9.63031 54.1351 9.59576 54.1108 9.56058C54.0866 9.5254 54.0632 9.48964 54.0407 9.45329C54.0183 9.41695 53.9968 9.38006 53.9762 9.34264C53.9556 9.30521 53.9359 9.26729 53.9172 9.22888C53.8985 9.19047 53.8807 9.15162 53.864 9.11233C53.8472 9.07303 53.8314 9.03333 53.8167 8.99325C53.8019 8.95316 53.7881 8.91273 53.7754 8.87195C53.7626 8.83118 53.7509 8.79011 53.7402 8.74874C53.7306 8.70985 53.7219 8.67075 53.7143 8.63143C53.7066 8.59211 53.6999 8.55263 53.6941 8.51299C53.6884 8.47334 53.6836 8.43357 53.6798 8.39369C53.676 8.35381 53.6733 8.31386 53.6715 8.27384C53.6696 8.23382 53.6688 8.19378 53.669 8.15372C53.6691 8.11365 53.6702 8.07362 53.6724 8.03362C53.6745 7.99362 53.6776 7.95369 53.6817 7.91384C53.6858 7.87399 53.6909 7.83426 53.697 7.79466C53.703 7.75506 53.7101 7.71563 53.7181 7.67638C53.7261 7.63712 53.735 7.59808 53.7449 7.55927C53.7548 7.52045 53.7657 7.48191 53.7776 7.44363C53.7894 7.40536 53.8021 7.36739 53.8158 7.32974C53.8295 7.29209 53.8441 7.2548 53.8596 7.21787C53.8751 7.18094 53.8915 7.14442 53.9088 7.1083C53.9262 7.07217 53.9444 7.0365 53.9635 7.00128C53.9826 6.96605 54.0025 6.93132 54.0233 6.89708C54.4034 6.2751 54.9967 5.96663 55.6781 5.7876Z" fill="#FAFCFF"/>
<path d="M27.8369 9.42665C28.4828 9.40414 29.1688 9.53975 29.8086 9.62548L32.8685 10.0344L38.6486 10.8064C39.8322 10.9664 41.0325 11.0974 42.2051 11.3229C41.9977 12.8669 41.7328 14.4047 41.5055 15.9462C39.9444 15.7054 38.3708 15.5243 36.8051 15.3147L30.8456 14.4805C30.6883 15.345 30.5907 16.2285 30.4651 17.0986C30.1464 19.3173 29.8425 21.5381 29.5535 23.7609C28.7118 29.7406 27.9163 35.7264 27.1667 41.7184L21.3206 85.5223C21.2912 85.7368 21.2616 85.9222 21.4001 86.106C22.2116 86.431 23.309 86.4523 24.1757 86.5633L28.5716 87.1372L49.6591 89.8965L64.6078 91.8531L68.5875 92.3725C69.1879 92.4472 69.8831 92.5995 70.4852 92.5523C70.621 92.5415 70.6845 92.5211 70.7678 92.4118C70.9242 92.2064 70.9639 91.8848 70.9986 91.6348L78.7816 35.0371L80.0589 25.4936C80.1783 24.5807 80.6185 22.0672 80.4968 21.3492C80.3356 21.1953 80.0421 21.1455 79.8282 21.1022C78.602 20.8539 77.3099 20.7515 76.0667 20.5916C73.4798 20.2653 70.8948 19.9241 68.3117 19.5681C68.4823 17.9598 68.7353 16.3277 69.0043 14.7326C69.2448 14.7796 69.4921 14.8045 69.735 14.8376C70.6773 15.0071 71.6508 15.088 72.6008 15.2218L79.9615 16.2359C81.2665 16.4146 84.1858 16.6463 85.2216 17.186C85.7371 17.4546 86.1141 18.0058 86.2831 18.5517C86.4155 18.9792 86.3623 19.4809 86.3094 19.9189C86.122 21.4717 85.864 23.019 85.6567 24.5698L83.9991 37.0014L78.4752 77.2998L76.9939 88.0568C76.7569 89.9281 76.5071 91.7978 76.2446 93.6657C76.1203 94.5728 76.0499 95.5376 75.8334 96.424C75.7824 96.633 75.7005 96.8291 75.5944 97.0163C75.5713 97.0569 75.5472 97.0969 75.5221 97.1364C75.497 97.1758 75.4709 97.2146 75.4438 97.2527C75.4167 97.2908 75.3887 97.3282 75.3597 97.3649C75.3307 97.4016 75.3008 97.4376 75.2701 97.4728C75.2393 97.5079 75.2076 97.5423 75.1751 97.5759C75.1426 97.6095 75.1093 97.6422 75.0751 97.6741C75.0409 97.7059 75.0059 97.737 74.9702 97.7671C74.9344 97.7973 74.8979 97.8265 74.8607 97.8548C74.8235 97.883 74.7855 97.9103 74.747 97.9366C74.7083 97.963 74.669 97.9884 74.6291 98.0128C74.5893 98.0372 74.5488 98.0606 74.5077 98.0829C74.4667 98.1052 74.425 98.1265 74.3829 98.1467C74.3407 98.1669 74.2981 98.1861 74.255 98.2042C74.2118 98.2223 74.1683 98.2392 74.1243 98.2551C74.0803 98.271 74.036 98.2857 73.9912 98.2993C73.9465 98.3129 73.9015 98.3254 73.8561 98.3368C73.544 98.4156 73.2575 98.3982 72.9413 98.3652C70.5676 98.1166 68.2026 97.7212 65.8372 97.3993L51.3484 95.4501L29.5706 92.5239L21.1265 91.375C19.9683 91.2177 18.7993 91.1024 17.6449 90.9234C17.3026 90.8704 16.9615 90.7859 16.669 90.5927C16.1727 90.2645 15.713 89.7229 15.6008 89.1281C15.4419 88.2854 16.0834 84.7259 16.2265 83.6231L17.9364 70.5926L22.9571 32.3594L24.7118 18.7339C25.0004 16.4449 25.2336 14.1446 25.5602 11.8607C25.6297 11.3756 25.7373 10.9202 26.0229 10.5108C26.456 9.88987 27.1044 9.54574 27.8369 9.42665Z" fill="#EFF5F9"/>
<path d="M31.683 15.618C32.749 15.6895 33.8352 15.8952 34.8958 16.0348L41.3504 16.9122C41.2457 17.4838 41.2312 18.0573 41.5517 18.5697C41.8675 19.0747 42.3011 19.2758 42.861 19.3894C43.4268 19.5041 44.0078 19.5605 44.5793 19.6441C45.6091 19.8001 46.6398 19.95 47.6715 20.0938L56.0729 21.2808L62.9282 22.2756C64.0525 22.4354 65.2108 22.6679 66.3445 22.7241C66.7377 22.7435 66.9779 22.7024 67.3126 22.4661C67.9288 22.0312 68.0131 21.269 68.1496 20.5856C69.2299 20.6799 70.3179 20.8682 71.3945 21.0051C74.0862 21.3501 76.7758 21.7104 79.4633 22.0859C79.189 23.695 79.0251 25.3378 78.8117 26.9569L77.2252 39.2628L73.0898 69.1968C72.2093 75.9253 71.2785 82.6469 70.2973 89.3615C70.2017 90.0978 70.0938 90.8324 69.9737 91.5652L38.7192 87.4432L28.1923 86.08C26.249 85.827 24.2831 85.6196 22.3521 85.2896C22.5683 84.2414 22.6875 83.1532 22.8296 82.0921L23.4668 77.3006L25.2953 63.5445L31.683 15.618Z" fill="white"/>
<path d="M40.3804 62.3064C41.4574 62.312 42.618 62.5666 43.6906 62.7152L50.0652 63.5904L62.8894 65.3161C64.9853 65.6001 67.1003 65.835 69.1872 66.1751C69.4186 66.2127 69.6717 66.2422 69.8389 66.4228C69.9292 66.5203 69.9678 66.6306 69.9492 66.7647C69.9187 66.9851 69.7917 67.1017 69.6252 67.2324C69.6067 67.2336 69.5881 67.2356 69.5695 67.236C68.8437 67.2536 68.0324 67.0592 67.3075 66.9603L62.6135 66.3238L46.0616 64.0778L42.4617 63.577C41.8124 63.4903 41.0767 63.4569 40.447 63.2803C40.3454 63.2519 40.276 63.2137 40.2045 63.1376C40.1098 63.037 40.0706 62.9141 40.0856 62.776C40.1103 62.5503 40.2203 62.4492 40.3804 62.3064Z" fill="#1F50E8"/>
<path d="M40.9743 57.9685C41.0098 57.9664 41.0452 57.9639 41.0808 57.9638C41.6069 57.9625 42.1653 58.0847 42.6858 58.159C43.61 58.293 44.535 58.4221 45.4605 58.5461L56.7919 60.1158L66.0617 61.363L68.6816 61.7224C69.1719 61.7897 69.6937 61.8264 70.1732 61.9462C70.3218 61.9832 70.447 62.0244 70.5476 62.1483C70.6278 62.2469 70.6501 62.3554 70.6299 62.4798C70.5941 62.6997 70.4771 62.8191 70.3087 62.9511C69.5537 62.9978 67.3523 62.5864 66.4695 62.463L57.8219 61.279L46.3699 59.715L42.9966 59.2551C42.3634 59.1684 41.6831 59.123 41.0676 58.9493C40.974 58.9229 40.855 58.8845 40.7856 58.8116C40.6994 58.721 40.6489 58.6111 40.6609 58.4838C40.6823 58.2601 40.8162 58.1124 40.9743 57.9685Z" fill="#1F50E8"/>
<path d="M42.8162 43.4829C43.7976 43.4318 45.2337 43.7626 46.2426 43.9094C47.9633 44.1552 49.6854 44.3907 51.4089 44.6156L65.5262 46.5581L69.6573 47.1508C70.486 47.2653 71.3563 47.331 72.171 47.5171C72.289 47.5441 72.4546 47.5739 72.5412 47.6688C72.6342 47.7705 72.6795 47.8733 72.6785 48.0115C72.677 48.2245 72.5187 48.3879 72.3729 48.5205C72.359 48.5207 72.345 48.5214 72.3311 48.5212C71.8883 48.515 71.4218 48.4197 70.9826 48.3602L68.4755 48.0184L59.42 46.748L47.2445 45.078L44.57 44.7097C44.0396 44.6395 43.4123 44.6294 42.91 44.445C42.7898 44.4009 42.6348 44.3277 42.5581 44.2201C42.5047 44.1451 42.4861 44.0707 42.4939 43.9819C42.5123 43.7703 42.6637 43.6142 42.8162 43.4829Z" fill="#1F50E8"/>
<path d="M42.2484 47.8225C43.5018 47.8951 44.7828 48.1468 46.0278 48.3251L52.3293 49.2032L71.3951 51.7851C71.5748 51.8105 71.7479 51.8594 71.8745 51.998C71.9852 52.1191 72.0145 52.2572 71.9934 52.4163C71.9668 52.6166 71.8334 52.7457 71.6782 52.8569C71.6592 52.8565 71.6403 52.8562 71.6212 52.8555C71.0797 52.8365 70.532 52.7309 69.9952 52.6555L67.2884 52.2808C64.2798 51.8948 61.2735 51.4904 58.2698 51.0678C54.8116 50.6088 51.3561 50.1293 47.9034 49.6293C46.1805 49.3935 44.2546 49.2214 42.5769 48.8954C42.3659 48.8543 42.0938 48.797 41.9569 48.6135C41.8751 48.504 41.8644 48.3746 41.8954 48.2459C41.9461 48.0349 42.0693 47.9298 42.2484 47.8225Z" fill="#1F50E8"/>
<path d="M38.0943 76.7528C38.1465 76.7524 38.1987 76.7533 38.2507 76.7563C39.6384 76.8341 41.2918 77.1555 42.6969 77.3501L50.4739 78.3957L59.624 79.6393C62.2933 79.9857 64.9862 80.2921 67.6396 80.745C67.868 80.784 68.1867 80.8291 68.3398 81.0194C68.4149 81.1127 68.4324 81.2173 68.4051 81.335C68.3544 81.5545 68.2372 81.6451 68.0521 81.756C68.0213 81.7613 67.965 81.7721 67.9305 81.7737C67.4688 81.7949 66.8767 81.635 66.4118 81.5745L61.9234 80.9808L44.1189 78.5739C42.9379 78.4196 41.7613 78.2344 40.5806 78.0828C39.8711 77.9917 39.0906 77.9565 38.3979 77.7975C38.2169 77.756 37.9842 77.6846 37.8534 77.5431C37.7764 77.4598 37.724 77.3636 37.741 77.2459C37.7719 77.0309 37.9296 76.8752 38.0943 76.7528Z" fill="#1F50E8"/>
<path d="M38.8245 72.5233C39.4341 72.5755 40.0487 72.6877 40.6555 72.7718L44.4007 73.2871L55.1026 74.6697L64.0587 75.8738L66.8879 76.2609C67.4529 76.3385 68.0402 76.3927 68.5956 76.5219C68.7625 76.5607 68.8504 76.6187 68.9369 76.7717C69.0044 76.8912 69.0044 77.0288 68.9577 77.1556C68.8906 77.3371 68.7683 77.4032 68.6047 77.484C67.7698 77.414 66.9333 77.2833 66.1017 77.1767L61.1581 76.5237L48.3822 74.8492C46.102 74.5644 43.8247 74.2585 41.5502 73.9315C40.9136 73.8453 39.0943 73.6899 38.6571 73.4941C38.5423 73.4427 38.4455 73.3665 38.4069 73.2418C38.3669 73.113 38.3998 72.9684 38.4533 72.8487C38.5364 72.6623 38.6423 72.5924 38.8245 72.5233Z" fill="#1F50E8"/>
<path d="M43.8203 33.3169C43.8597 33.3153 43.8993 33.3135 43.9387 33.3139C44.9525 33.3251 46.4597 33.6415 47.509 33.7909L54.6431 34.7841C59.0932 35.376 63.54 35.9914 67.9836 36.6301L71.7067 37.1644C72.2996 37.2514 72.9858 37.2877 73.5536 37.4716C73.679 37.5123 73.8057 37.5662 73.8899 37.6729C73.9728 37.7778 73.9803 37.8933 73.9534 38.0187C73.9048 38.2445 73.8065 38.3316 73.6197 38.4489C72.8085 38.4129 71.9448 38.2312 71.139 38.1126C69.6865 37.8944 68.232 37.6899 66.7755 37.499L49.4679 35.1232L45.6774 34.5937C45.1113 34.5146 44.4811 34.4861 43.9301 34.3467C43.7906 34.3113 43.6519 34.2411 43.5625 34.1251C43.4845 34.0238 43.4571 33.8985 43.4769 33.773C43.5117 33.5519 43.6485 33.4407 43.8203 33.3169Z" fill="#1F50E8"/>
<path d="M44.4061 28.9918C44.4483 28.9889 44.4905 28.9857 44.5328 28.9852C45.0738 28.9789 45.6395 29.098 46.1747 29.1727L48.9109 29.5502L58.8452 30.9435L69.2004 32.3941L72.4617 32.8476C73.0498 32.9295 73.6637 32.9829 74.2424 33.1172C74.3776 33.1487 74.4738 33.1705 74.5705 33.281C74.6635 33.3872 74.6885 33.4945 74.6717 33.631C74.643 33.8632 74.5412 33.9732 74.3658 34.1176C73.6768 34.1384 72.8985 33.9575 72.2097 33.8641C70.6785 33.6607 69.1487 33.4469 67.6204 33.2226L54.4329 31.3724L47.7313 30.4486C46.7018 30.3054 45.5304 30.2319 44.5366 29.9802C44.4081 29.9477 44.3095 29.9164 44.2175 29.8123C44.1292 29.7121 44.0968 29.5898 44.1128 29.4582C44.1395 29.2391 44.2416 29.1265 44.4061 28.9918Z" fill="#1F50E8"/>
<path d="M34.7861 26.8499C35.4547 26.7907 39.0548 27.2536 39.7006 27.4573C40.0952 27.5818 40.3897 27.7695 40.5731 28.1495C40.6658 28.3416 40.7204 28.5438 40.7215 28.7577C40.7249 29.388 40.1691 33.2845 39.9647 33.8279C39.7983 34.2699 39.4351 34.5015 39.029 34.6943C38.471 34.7866 34.6881 34.3254 34.0529 34.1109C33.6677 33.9807 33.3624 33.7309 33.1845 33.3613C33.1024 33.1903 33.056 33.0086 33.0566 32.8189C33.0587 32.1782 33.6137 28.1188 33.8212 27.6223C33.9969 27.2022 34.385 27.0022 34.7861 26.8499Z" fill="#1F50E8"/>
<path d="M34.9518 27.7888C35.4487 27.805 39.3489 28.3031 39.6126 28.4756C39.715 28.6953 39.7142 28.9494 39.7015 29.1877C39.6652 29.8716 39.5152 30.5877 39.417 31.268C39.314 31.9811 39.2665 32.7781 39.0648 33.465C39.0242 33.6036 38.9571 33.6728 38.8507 33.7669C38.3184 33.7751 34.627 33.2713 34.1839 33.1076C34.0524 32.9015 34.0713 32.587 34.0897 32.3509C34.1339 31.7828 34.5485 28.3875 34.7153 28.0523C34.7709 27.9404 34.858 27.8677 34.9518 27.7888Z" fill="#62D28F"/>
<path d="M29.372 70.0348C30.152 70.0424 33.9581 70.5612 34.5856 70.8539C34.8983 70.9999 35.1503 71.3651 35.2555 71.686C35.4301 72.218 34.7434 76.6007 34.4407 77.1466C34.2248 77.536 33.7902 77.726 33.3821 77.8403C32.8131 77.8853 29.4078 77.3743 28.7586 77.2319C28.551 77.1865 28.3468 77.1203 28.1597 77.0181C27.8194 76.8319 27.5822 76.5441 27.4859 76.1661C27.4296 75.9454 27.4218 75.7111 27.4344 75.4846C27.4732 74.7793 27.9229 71.2159 28.2323 70.7293C28.4941 70.3176 28.911 70.1316 29.372 70.0348Z" fill="#1F50E8"/>
<path d="M29.3227 70.9703C30.0275 70.9599 30.8252 71.1709 31.5309 71.273C32.4066 71.3998 33.3757 71.4416 34.226 71.6743C34.3283 71.8928 34.3219 72.1497 34.3121 72.3863C34.2766 73.2349 34.0703 74.1264 33.9494 74.9698C33.8779 75.4685 33.8686 76.0162 33.7503 76.5027C33.7 76.7094 33.5275 76.7894 33.3597 76.893C32.9275 76.9443 28.7752 76.3252 28.5577 76.134C28.4138 76.0076 28.431 75.5199 28.4438 75.3314C28.4977 74.5367 28.8446 71.9484 29.0678 71.2929C29.1156 71.1525 29.2137 71.0655 29.3227 70.9703Z" fill="#62D28F"/>
<path d="M31.0038 55.8407C31.6525 55.8002 35.9108 56.4156 36.4629 56.6584C36.8073 56.8099 37.0304 57.1387 37.1498 57.4892C37.3075 57.9516 36.6858 62.4297 36.4256 62.8918C36.1855 63.3179 35.8535 63.5124 35.3971 63.6506C34.8822 63.7245 30.7651 63.1551 30.2184 62.9591C29.9018 62.8455 29.4732 62.5486 29.3367 62.2298C29.2288 61.9778 29.2204 61.664 29.23 61.3946C29.2556 60.6777 29.7376 57.1292 29.9858 56.5872C30.1745 56.1753 30.5997 55.9796 31.0038 55.8407Z" fill="#1F50E8"/>
<path d="M31.1268 56.8206C31.8825 56.8625 32.6668 57.0207 33.4188 57.125C34.1759 57.23 34.9827 57.2897 35.7247 57.4704C35.8994 57.5131 36.074 57.5605 36.2111 57.6815C36.2436 57.8352 36.2427 57.9764 36.2308 58.132C36.1714 58.9152 35.9868 59.6975 35.8709 60.4743C35.7759 61.1121 35.7717 61.8137 35.5758 62.4291C35.5318 62.5674 35.457 62.6367 35.3495 62.7304C34.7389 62.7293 30.8144 62.1764 30.3223 61.9865C30.1689 61.7847 30.223 61.3885 30.253 61.1427C30.3638 60.2314 30.512 59.32 30.6438 58.4112C30.7029 58.0045 30.7176 57.4755 30.8553 57.0938C30.9015 56.9655 31.0233 56.9022 31.1268 56.8206Z" fill="#62D28F"/>
<path d="M33.0056 41.397C33.7824 41.3751 37.7828 41.855 38.3747 42.146C38.6748 42.2935 38.9507 42.6437 39.0526 42.9604C39.2158 43.4679 38.5083 48.2831 38.233 48.7888C38.0257 49.1695 37.6052 49.3717 37.2062 49.4824C36.5913 49.5165 32.1784 48.9191 31.7636 48.6982C31.4686 48.5411 31.206 48.122 31.1266 47.8048C31.0054 47.3206 31.7155 42.4805 32.0179 42.0085C32.2329 41.6728 32.6333 41.4896 33.0056 41.397Z" fill="#1F50E8"/>
<path d="M32.9484 42.3878C33.4339 42.3552 37.2807 42.8355 37.799 43.0013C37.9131 43.0377 38.0567 43.0642 38.103 43.1867C38.2069 43.461 37.5739 47.6078 37.4765 48.0705C37.4424 48.2319 37.3994 48.3643 37.318 48.5084C36.7456 48.5313 32.7114 47.9911 32.2229 47.8199C32.1191 47.6106 32.1345 47.3172 32.1475 47.0871C32.1987 46.1815 32.3855 45.2482 32.5101 44.3483C32.5855 43.8029 32.6057 43.1692 32.7544 42.6439C32.7927 42.5083 32.845 42.4783 32.9484 42.3878Z" fill="#62D28F"/>
</svg>
