<svg width="27" height="27" viewBox="0 0 27 27" fill="none" xmlns="http://www.w3.org/2000/svg">
<path d="M11.1731 2.8296C11.7653 0.390134 15.2347 0.390135 15.8269 2.8296C16.2095 4.40546 18.0149 5.1533 19.3997 4.30951C21.5435 3.00332 23.9967 5.45653 22.6905 7.60026C21.8467 8.98508 22.5945 10.7905 24.1704 11.1731C26.6099 11.7653 26.6099 15.2347 24.1704 15.8269C22.5945 16.2095 21.8467 18.0149 22.6905 19.3997C23.9967 21.5435 21.5435 23.9967 19.3997 22.6905C18.0149 21.8467 16.2095 22.5945 15.8269 24.1704C15.2347 26.6099 11.7653 26.6099 11.1731 24.1704C10.7905 22.5945 8.98508 21.8467 7.60026 22.6905C5.45653 23.9967 3.00332 21.5435 4.30951 19.3997C5.1533 18.0149 4.40546 16.2095 2.8296 15.8269C0.390135 15.2347 0.390134 11.7653 2.8296 11.1731C4.40546 10.7905 5.1533 8.98508 4.30951 7.60026C3.00332 5.45653 5.45653 3.00332 7.60026 4.30951C8.98508 5.1533 10.7905 4.40546 11.1731 2.8296Z" stroke="#111827" stroke-width="2" stroke-linecap="round" stroke-linejoin="round"/>
<path d="M17.6667 13.5C17.6667 15.8012 15.8012 17.6667 13.5 17.6667C11.1988 17.6667 9.33333 15.8012 9.33333 13.5C9.33333 11.1988 11.1988 9.33333 13.5 9.33333C15.8012 9.33333 17.6667 11.1988 17.6667 13.5Z" stroke="#111827" stroke-width="2" stroke-linecap="round" stroke-linejoin="round"/>
</svg>
