<svg width="28" height="21" viewBox="0 0 28 21" fill="none" xmlns="http://www.w3.org/2000/svg">
<path d="M15.1389 15.9286V2.35714C15.1389 1.60761 14.5171 1 13.75 1H2.63889C1.87183 1 1.25 1.60761 1.25 2.35714V15.9286C1.25 16.6781 1.87183 17.2857 2.63889 17.2857H4.02778M15.1389 15.9286C15.1389 16.6781 14.5171 17.2857 13.75 17.2857H9.58333M15.1389 15.9286L15.1389 5.07143C15.1389 4.3219 15.7607 3.71429 16.5278 3.71429H20.1191C20.4875 3.71429 20.8408 3.85727 21.1012 4.11178L25.8432 8.74536C26.1037 8.99987 26.25 9.34507 26.25 9.705V15.9286C26.25 16.6781 25.6282 17.2857 24.8611 17.2857H23.4722M15.1389 15.9286C15.1389 16.6781 15.7607 17.2857 16.5278 17.2857H17.9167M4.02778 17.2857C4.02778 18.7848 5.27143 20 6.80555 20C8.33968 20 9.58333 18.7848 9.58333 17.2857M4.02778 17.2857C4.02778 15.7867 5.27143 14.5714 6.80555 14.5714C8.33968 14.5714 9.58333 15.7867 9.58333 17.2857M17.9167 17.2857C17.9167 18.7848 19.1603 20 20.6944 20C22.2286 20 23.4722 18.7848 23.4722 17.2857M17.9167 17.2857C17.9167 15.7867 19.1603 14.5714 20.6944 14.5714C22.2286 14.5714 23.4722 15.7867 23.4722 17.2857" stroke="#3C4694" stroke-width="2"/>
</svg>
