<svg width="30" height="30" viewBox="0 0 30 30" fill="none" xmlns="http://www.w3.org/2000/svg">
<g clip-path="url(#clip0_2023_179)">
<path d="M13.75 0H6.25C4.1825 0 2.5 1.6825 2.5 3.75H1.25C0.56 3.75 0 4.30875 0 5C0 5.69125 0.56 6.25 1.25 6.25H2.5V8.75H1.25C0.56 8.75 0 9.30875 0 10C0 10.6912 0.56 11.25 1.25 11.25H2.5V13.75H1.25C0.56 13.75 0 14.3088 0 15C0 15.6912 0.56 16.25 1.25 16.25H2.5V18.75H1.25C0.56 18.75 0 19.3088 0 20C0 20.6912 0.56 21.25 1.25 21.25H2.5V23.75H1.25C0.56 23.75 0 24.3088 0 25C0 25.6912 0.56 26.25 1.25 26.25H2.5C2.5 28.3175 4.1825 30 6.25 30H13.75C17.1963 30 20 27.1963 20 23.75V6.25C20 2.80375 17.1963 0 13.75 0ZM17.5 23.75C17.5 25.8175 15.8175 27.5 13.75 27.5H6.25C5.56125 27.5 5 26.94 5 26.25V3.75C5 3.06 5.56125 2.5 6.25 2.5H13.75C15.8175 2.5 17.5 4.1825 17.5 6.25V23.75ZM15 8.75C15 9.44125 14.44 10 13.75 10H8.75C8.06 10 7.5 9.44125 7.5 8.75C7.5 8.05875 8.06 7.5 8.75 7.5H13.75C14.44 7.5 15 8.05875 15 8.75ZM26.25 0C24.1825 0 22.5 1.6825 22.5 3.75V24.6975C22.5 26.015 23.0338 27.3025 23.965 28.2325L25.3662 29.6338C25.61 29.8775 25.93 30 26.25 30C26.57 30 26.89 29.8775 27.1338 29.6338L28.535 28.2325C29.4662 27.3025 30 26.015 30 24.6975V3.75C30 1.6825 28.3175 0 26.25 0ZM27.5 24.6975C27.5 25.355 27.2337 26 26.7675 26.465L26.25 26.9825L25.7325 26.465C25.2663 26 25 25.355 25 24.6975V3.75C25 3.06 25.5613 2.5 26.25 2.5C26.9387 2.5 27.5 3.06 27.5 3.75V24.6975Z" fill="white"/>
</g>
<defs>
<clipPath id="clip0_2023_179">
<rect width="30" height="30" fill="white"/>
</clipPath>
</defs>
</svg>
