<svg width="30" height="30" viewBox="0 0 30 30" fill="none" xmlns="http://www.w3.org/2000/svg">
<g clip-path="url(#clip0_2023_310)">
<path d="M23.45 20C22.5891 19.9975 21.7363 20.1658 20.9409 20.4951C20.1455 20.8245 19.4233 21.3084 18.8162 21.9188L15.0662 25.6688C14.4871 26.2509 13.7982 26.7125 13.0396 27.0268C12.2809 27.3412 11.4674 27.502 10.6462 27.5H3.90375C3.62649 27.5002 3.35541 27.4181 3.12482 27.2641C2.89423 27.1102 2.7145 26.8912 2.60838 26.6351C2.50225 26.379 2.4745 26.0971 2.52864 25.8252C2.58277 25.5532 2.71636 25.3035 2.9125 25.1075L6.9 21.125L23.4663 16.7063C24.2651 16.4932 24.9712 16.0222 25.4746 15.3664C25.978 14.7106 26.2506 13.9068 26.25 13.08V3.75C26.25 2.75544 25.8549 1.80161 25.1517 1.09835C24.4484 0.395089 23.4946 3.51421e-07 22.5 3.51421e-07H13.17C12.3435 -0.000357356 11.5399 0.272374 10.8844 0.775793C10.2288 1.27921 9.75797 1.98511 9.545 2.78375L5.125 19.3563L1.145 23.34C0.599338 23.8856 0.227732 24.5808 0.0771768 25.3376C-0.0733785 26.0944 0.0038797 26.8788 0.299181 27.5917C0.594482 28.3046 1.09456 28.9139 1.73617 29.3426C2.37779 29.7713 3.13211 30.0001 3.90375 30H10.6462C11.7959 30.003 12.9347 29.778 13.9968 29.3379C15.0589 28.8978 16.0231 28.2515 16.8337 27.4363L20.5837 23.6863C21.1509 23.1207 21.8728 22.7358 22.6585 22.5801C23.4442 22.4245 24.2583 22.5051 24.9982 22.8117C25.7381 23.1183 26.3706 23.6373 26.8159 24.3031C27.2611 24.9688 27.4992 25.7516 27.5 26.5525V29C27.5 29.5523 27.9477 30 28.5 30H29C29.5523 30 30 29.5523 30 29V26.5525C29.9977 24.8158 29.3069 23.1509 28.0791 21.9226C26.8514 20.6944 25.1867 20.003 23.45 20ZM23.75 4.27V11.9825L19.8937 8.125L23.75 4.27ZM18.125 6.35875L14.2675 2.5H21.985L18.125 6.35875ZM22.5825 14.3513L10.4275 17.5925L18.125 9.89375L22.5825 14.3513ZM11.8987 3.66625L16.3587 8.125L8.65625 15.8288L11.8987 3.66625Z" fill="white"/>
</g>
<defs>
<clipPath id="clip0_2023_310">
<rect width="30" height="30" fill="white"/>
</clipPath>
</defs>
</svg>
