<svg width="30" height="30" viewBox="0 0 30 30" fill="none" xmlns="http://www.w3.org/2000/svg">
<g clip-path="url(#clip0_2023_2217)">
<path d="M28.7726 10.9813C28.0288 10.3038 27.0776 9.95505 26.0613 10.0038C25.0563 10.05 24.1301 10.4863 23.4551 11.23L19.4338 15.6475C18.9001 14.7675 18.0288 14.1175 17.0026 13.8663C17.3101 13.27 17.5001 12.605 17.5001 11.8888C17.5001 8.74255 15.2963 5.04879 12.3563 3.67754C12.7776 3.23754 13.1888 2.74879 13.5188 2.22379C14.1288 1.25879 13.4588 -0.00120544 12.3163 -0.00120544H7.68131C6.53881 -0.00120544 5.87006 1.25879 6.47881 2.22379C6.81006 2.74879 7.22006 3.23629 7.64131 3.67754C4.70131 5.04754 2.49756 8.74255 2.49756 11.8888C2.49756 12.7063 2.73881 13.4638 3.13256 14.1175C1.29756 14.8588 -0.00244141 16.6513 -0.00244141 18.7488V24.9988C-0.00244141 27.7563 2.24006 29.9988 4.99756 29.9988H11.2038C14.7663 29.9988 18.1663 28.4738 20.5376 25.8138L29.0426 16.2675C30.4101 14.7363 30.2876 12.3638 28.7701 10.98L28.7726 10.9813ZM10.0001 5.62504C12.2763 5.68629 15.0001 9.04755 15.0001 11.89C15.0001 12.9163 14.1588 13.75 13.1251 13.75H6.87506C5.84131 13.75 5.00006 12.9163 5.00006 11.89C5.00006 9.04755 7.72381 5.68629 10.0001 5.62504ZM27.1776 14.605L18.6713 24.1525C16.7751 26.28 14.0551 27.5 11.2051 27.5H4.99881C3.62006 27.5 2.49881 26.3788 2.49881 25V18.75C2.49881 17.3713 3.62006 16.25 4.99881 16.25H16.0701C16.8576 16.25 17.4988 16.89 17.4988 17.6775C17.4988 18.3825 16.9713 18.9913 16.2738 19.0913L9.82256 20.0125C9.13881 20.11 8.66381 20.7425 8.76131 21.4263C8.85881 22.1088 9.49131 22.5788 10.1763 22.4863L16.6276 21.565C18.0963 21.355 19.2876 20.33 19.7701 18.9925L25.3038 12.9113C25.5301 12.6613 25.8413 12.5163 26.1776 12.5C26.5163 12.4913 26.8376 12.6025 27.0876 12.8275C27.5963 13.2925 27.6376 14.0888 27.1776 14.6038V14.605Z" fill="white"/>
</g>
<defs>
<clipPath id="clip0_2023_2217">
<rect width="30" height="30" fill="white"/>
</clipPath>
</defs>
</svg>
