<svg width="70" height="70" viewBox="0 0 70 70" fill="none" xmlns="http://www.w3.org/2000/svg">
<path d="M27.0508 3.3637C27.3407 3.34628 27.6305 3.348 27.9202 3.36884C28.2099 3.38968 28.4969 3.42947 28.7814 3.48821C30.6234 3.88529 32.1377 5.10028 33.1428 6.66271C34.8568 5.96854 36.5512 5.20083 38.2459 4.46055C38.9831 4.13856 39.9846 3.61539 40.7421 3.4319C41.0525 3.35672 41.36 3.37091 41.6642 3.46625C42.2159 3.6392 42.5502 4.04306 42.8153 4.52943C43.1995 4.50712 43.5765 4.53873 43.9364 4.68281C44.3998 4.86835 44.752 5.19703 45.0055 5.62297C45.3062 6.12807 45.4952 6.72083 45.7149 7.26613C46.1254 8.27065 46.5281 9.27827 46.9231 10.289C48.2018 13.5036 49.5024 16.7093 50.8248 19.9062C52.8376 19.9227 54.8199 19.6206 56.3799 21.191C56.4184 21.2301 56.4562 21.2699 56.4932 21.3104C56.5302 21.3508 56.5664 21.392 56.6019 21.4338C56.6374 21.4756 56.6721 21.518 56.7061 21.5611C56.74 21.6042 56.7731 21.6479 56.8054 21.6922C56.8378 21.7366 56.8693 21.7815 56.8999 21.8269C56.9306 21.8724 56.9604 21.9184 56.9894 21.965C57.0183 22.0116 57.0464 22.0587 57.0737 22.1063C57.1009 22.1539 57.1272 22.202 57.1526 22.2506C57.1781 22.2992 57.2027 22.3482 57.2263 22.3977C57.2499 22.4472 57.2726 22.4971 57.2945 22.5475C57.3163 22.5978 57.3371 22.6485 57.357 22.6996C57.377 22.7507 57.396 22.8021 57.414 22.8539C57.432 22.9057 57.4491 22.9579 57.4652 23.0103C57.4812 23.0627 57.4964 23.1154 57.5106 23.1684C57.5247 23.2214 57.5379 23.2747 57.5501 23.3281C57.5623 23.3816 57.5735 23.4353 57.5837 23.4892C57.7225 24.2063 57.6726 24.9757 57.6735 25.7048L57.6715 28.8686L57.6718 40.2772C58.1649 40.3694 58.6621 40.4993 59.1391 40.6551C61.8022 41.525 63.9808 43.5124 65.2242 46.0042C65.262 46.0809 65.2988 46.158 65.3347 46.2355C65.3706 46.3131 65.4056 46.391 65.4396 46.4694C65.4737 46.5478 65.5069 46.6265 65.5391 46.7057C65.5713 46.7848 65.6026 46.8644 65.6329 46.9442C65.6633 47.0241 65.6927 47.1044 65.7211 47.1849C65.7496 47.2656 65.7771 47.3465 65.8036 47.4277C65.8302 47.5089 65.8558 47.5904 65.8804 47.6723C65.905 47.7541 65.9287 47.8362 65.9514 47.9186C65.9741 48.001 65.9958 48.0837 66.0166 48.1666C66.0373 48.2495 66.0571 48.3326 66.0758 48.416C66.0947 48.4994 66.1125 48.5829 66.1293 48.6667C66.1461 48.7505 66.162 48.8345 66.1768 48.9186C66.1916 49.0028 66.2055 49.0871 66.2183 49.1716C66.2312 49.2561 66.2431 49.3407 66.2539 49.4255C66.2648 49.5103 66.2746 49.5951 66.2835 49.6801C66.2924 49.7651 66.3002 49.8502 66.3071 49.9354C66.314 50.0206 66.3198 50.1059 66.3247 50.1912C66.3296 50.2765 66.3334 50.3618 66.3362 50.4473C66.3391 50.5327 66.3409 50.6181 66.3417 50.7036C66.3426 50.789 66.3424 50.8745 66.3412 50.9599C66.34 51.0454 66.3378 51.1308 66.3347 51.2162C66.3314 51.3016 66.3272 51.387 66.322 51.4722C66.3168 51.5575 66.3106 51.6428 66.3034 51.728C66.2962 51.8131 66.2879 51.8982 66.2787 51.9832C66.2695 52.0681 66.2593 52.1529 66.2481 52.2377C66.2369 52.3224 66.2247 52.407 66.2115 52.4914C66.1983 52.5758 66.1841 52.6601 66.1689 52.7442C66.1537 52.8283 66.1375 52.9122 66.1203 52.9959C66.1032 53.0796 66.085 53.1631 66.0659 53.2464C66.0467 53.3297 66.0266 53.4128 66.0056 53.4956C65.9845 53.5784 65.9624 53.661 65.9393 53.7433C65.9163 53.8256 65.8923 53.9076 65.8674 53.9893C65.7325 54.4166 65.5855 54.8632 65.401 55.2713C65.2825 55.5333 65.0948 55.7895 65.0235 56.0695C64.9322 56.4274 64.9465 56.8261 64.897 57.1938C64.8498 57.5243 64.7875 57.852 64.7101 58.1767C64.6327 58.5015 64.5406 58.8221 64.4336 59.1383C64.4068 59.2202 64.3791 59.3018 64.3503 59.383C64.3214 59.4642 64.2915 59.545 64.2606 59.6255C64.2298 59.7059 64.1979 59.786 64.165 59.8657C64.1321 59.9453 64.0982 60.0245 64.0633 60.1033C64.0284 60.1821 63.9925 60.2604 63.9556 60.3383C63.9187 60.4162 63.8809 60.4936 63.8421 60.5706C63.8032 60.6475 63.7635 60.7239 63.7227 60.7999C63.682 60.8758 63.6403 60.9512 63.5976 61.0261C63.555 61.1009 63.5114 61.1753 63.4668 61.2491C63.4223 61.3228 63.3769 61.396 63.3305 61.4686C63.2841 61.5413 63.2368 61.6133 63.1886 61.6848C63.1404 61.7562 63.0913 61.827 63.0413 61.8972C62.9913 61.9674 62.9405 62.037 62.8887 62.1059C62.837 62.1748 62.7844 62.243 62.731 62.3106C62.6775 62.3782 62.6232 62.4452 62.568 62.5114C62.5128 62.5776 62.4569 62.6431 62.4001 62.7079C62.3433 62.7727 62.2857 62.8368 62.2273 62.9001C62.1689 62.9635 62.1096 63.0261 62.0496 63.0879C61.9896 63.1498 61.9289 63.2109 61.8673 63.2712C61.8058 63.3315 61.7435 63.3911 61.6805 63.4498C61.6174 63.5086 61.5537 63.5665 61.4891 63.6237C61.4247 63.6808 61.3594 63.7371 61.2935 63.7926C61.2276 63.8482 61.161 63.9028 61.0937 63.9566C61.0264 64.0105 60.9584 64.0634 60.8898 64.1155C60.8211 64.1676 60.7518 64.2188 60.6819 64.2692C60.612 64.3195 60.5414 64.369 60.4702 64.4176C60.3991 64.4662 60.3273 64.5138 60.2548 64.5606C60.1825 64.6074 60.1095 64.6532 60.036 64.6981C59.9624 64.7431 59.8884 64.787 59.8137 64.8301C59.7391 64.8731 59.6639 64.9152 59.5881 64.9564C59.5124 64.9975 59.4362 65.0377 59.3595 65.077C59.2828 65.1162 59.2056 65.1545 59.1279 65.1918C59.0543 65.2274 58.9803 65.2621 58.906 65.2959C58.8316 65.3297 58.7567 65.3626 58.6815 65.3945C58.6063 65.4265 58.5308 65.4575 58.4548 65.4876C58.3788 65.5177 58.3025 65.5469 58.2258 65.5751C58.1491 65.6033 58.0721 65.6306 57.9947 65.6569C57.9174 65.6833 57.8397 65.7087 57.7617 65.7331C57.6837 65.7575 57.6055 65.781 57.5269 65.8034C57.4483 65.826 57.3695 65.8475 57.2904 65.868C57.2114 65.8886 57.132 65.9082 57.0525 65.9268C56.9729 65.9454 56.8931 65.963 56.8131 65.9797C56.7331 65.9963 56.6529 66.012 56.5725 66.0266C56.4921 66.0413 56.4116 66.055 56.3308 66.0676C56.2501 66.0804 56.1692 66.0921 56.0882 66.1028C56.0072 66.1134 55.9261 66.1231 55.8448 66.1318C55.7636 66.1405 55.6822 66.1483 55.6008 66.155C55.5194 66.1617 55.4379 66.1674 55.3563 66.1721C55.2747 66.1768 55.1931 66.1805 55.1114 66.1832C55.0297 66.1859 54.948 66.1876 54.8663 66.1883C54.7846 66.189 54.7029 66.1887 54.6211 66.1873C54.5395 66.186 54.4578 66.1836 54.3761 66.1803C54.2945 66.177 54.2129 66.1726 54.1313 66.1673C54.0498 66.162 53.9684 66.1556 53.887 66.1483C53.8056 66.141 53.7243 66.1326 53.6431 66.1233C53.562 66.1139 53.4809 66.1036 53.4 66.0923C53.319 66.0809 53.2383 66.0686 53.1576 66.0553C53.077 66.042 52.9966 66.0277 52.9163 66.0123C52.836 65.997 52.7559 65.9807 52.676 65.9635C52.5962 65.9462 52.5166 65.928 52.4371 65.9088C52.3577 65.8895 52.2785 65.8693 52.1996 65.8481C52.1207 65.827 52.0421 65.8048 51.9637 65.7817C51.8853 65.7586 51.8072 65.7345 51.7294 65.7095C51.6516 65.6845 51.5741 65.6585 51.497 65.6316C49.9861 66.291 48.4175 66.6303 46.7663 66.6206C45.0201 66.6175 43.1746 66.0793 41.6661 65.2062C41.5442 65.1354 41.4238 65.0621 41.3049 64.9864C41.1859 64.9108 41.0685 64.8327 40.9527 64.7523C40.8368 64.672 40.7227 64.5894 40.6101 64.5044C40.4976 64.4195 40.3868 64.3323 40.2777 64.2429C40.1686 64.1536 40.0614 64.0621 39.956 63.9685C39.8506 63.8748 39.7471 63.7791 39.6455 63.6814C39.5439 63.5836 39.4444 63.4838 39.3468 63.382C39.2492 63.2803 39.1537 63.1766 39.0602 63.071C38.9668 62.9655 38.8754 62.8581 38.7863 62.7489C38.6971 62.6396 38.6102 62.5287 38.5254 62.416C38.4407 62.3033 38.3583 62.189 38.2781 62.073C38.198 61.957 38.1201 61.8395 38.0447 61.7203C37.9692 61.6012 37.8962 61.4807 37.8255 61.3587C37.7549 61.2367 37.6867 61.1133 37.6209 60.9885C37.5552 60.8638 37.492 60.7378 37.4314 60.6106C37.3707 60.4833 37.3125 60.3549 37.257 60.2253C36.9713 59.55 36.7774 58.8507 36.5892 58.1436C36.2532 58.1547 35.9171 58.1629 35.581 58.1683C32.2962 58.2159 29.0044 58.1765 25.7191 58.1619L19.4746 58.1738L14.6956 58.177C13.7391 58.1774 12.7069 58.255 11.7638 58.095C10.7096 57.9162 9.70425 57.4507 8.93766 56.6972C8.41109 56.1797 8.03785 55.5435 7.88493 54.8173C7.78738 54.3543 7.82614 53.8372 7.82628 53.3653L7.82792 51.3698L7.82177 43.7964C6.80281 43.6754 5.70387 43.4448 4.79814 42.9514C4.27786 42.668 3.78674 42.2663 3.62643 41.6705C3.4704 41.0908 3.5555 40.2443 3.55672 39.6395L3.56324 36.4287L3.55425 34.0506C3.55235 33.5922 3.53067 33.121 3.56794 32.6642C3.58714 32.4289 3.64363 32.2097 3.76419 32.0052C4.41033 30.909 6.58149 30.3647 7.7614 30.0738C7.83441 27.7821 7.7947 25.3834 7.7813 23.0831L7.76038 21.1082C7.75724 20.7465 7.73727 20.3745 7.77125 20.0143C7.80037 19.7056 7.89204 19.4168 8.01461 19.133C8.36488 18.3219 8.88079 17.5659 9.59207 17.031C10.2325 16.5493 11.022 16.2743 11.7521 15.9589L14.1338 14.93C16.1308 14.0686 18.1172 13.1488 20.1354 12.3405C20.0578 9.85422 20.5938 7.7171 22.2548 5.79626C22.292 5.75248 22.3299 5.70916 22.3682 5.66632C22.4066 5.62348 22.4455 5.58111 22.4849 5.53923C22.5243 5.49735 22.5643 5.45596 22.6047 5.41506C22.6451 5.37417 22.686 5.33379 22.7275 5.2939C22.7689 5.25402 22.8109 5.21466 22.8532 5.17581C22.8957 5.13697 22.9386 5.09866 22.9819 5.06087C23.0253 5.02309 23.0691 4.98585 23.1133 4.94915C23.1576 4.91245 23.2024 4.87631 23.2475 4.84072C23.2927 4.80512 23.3383 4.7701 23.3844 4.73563C23.4304 4.70117 23.4769 4.66728 23.5237 4.63396C23.5706 4.60065 23.6179 4.56792 23.6656 4.53578C23.7133 4.50363 23.7613 4.47208 23.8098 4.44113C23.8583 4.41017 23.9071 4.37982 23.9564 4.35007C24.0056 4.32033 24.0552 4.2912 24.1051 4.26268C24.1551 4.23416 24.2053 4.20626 24.256 4.17898C24.3066 4.15171 24.3576 4.12506 24.4088 4.09905C24.4601 4.07303 24.5118 4.04766 24.5637 4.02292C24.6156 3.99818 24.6678 3.97409 24.7203 3.95064C24.7728 3.9272 24.8256 3.90441 24.8787 3.88227C24.9318 3.86013 24.9851 3.83865 25.0387 3.81783C25.0923 3.79701 25.1462 3.77686 25.2003 3.75737C25.2544 3.73788 25.3087 3.71907 25.3633 3.70093C25.4179 3.68278 25.4727 3.66532 25.5277 3.64853C25.5827 3.63174 25.6379 3.61564 25.6933 3.60022C25.7487 3.5848 25.8043 3.57006 25.8601 3.55602C25.9158 3.54197 25.9717 3.52862 26.0278 3.51595C26.0839 3.50329 26.1402 3.49133 26.1966 3.48006C26.253 3.46879 26.3095 3.45822 26.3662 3.44834C26.4229 3.43847 26.4796 3.4293 26.5365 3.42084C26.5934 3.41237 26.6504 3.40461 26.7074 3.39755C26.7645 3.39049 26.8217 3.38414 26.8789 3.3785C26.9361 3.37285 26.9934 3.36792 27.0508 3.3637Z" fill="url(#paint0_linear_2023_415)"/>
<path d="M7.75719 30.9761C7.86321 31.1717 7.79451 33.0424 7.79328 33.4086C6.97618 33.3571 6.12674 33.1492 5.38097 32.813C5.11369 32.6785 4.89746 32.5493 4.69556 32.3236C5.46977 31.5457 6.70668 31.2034 7.75719 30.9761Z" fill="#FAFCFF"/>
<path d="M60.5372 60.1639L60.5525 60.2091C60.4889 60.2924 60.4229 60.3737 60.3544 60.453C58.8651 62.1922 57.0991 63.0154 54.8286 63.1952L54.802 63.1769C54.8203 63.0718 54.967 62.9386 55.0387 62.8531C55.4753 62.3332 55.8387 61.8293 56.1498 61.2221C57.7634 61.1372 59.0793 60.8554 60.5372 60.1639Z" fill="#FAFCFF"/>
<path d="M55.3774 48.3026C55.5201 48.2914 55.6648 48.2779 55.808 48.2815C55.8452 48.2824 55.8823 48.2843 55.9193 48.287C55.9563 48.2898 55.9932 48.2935 56.0301 48.2981C56.0669 48.3027 56.1036 48.3082 56.1402 48.3146C56.1768 48.321 56.2132 48.3283 56.2494 48.3365C56.2856 48.3447 56.3216 48.3538 56.3574 48.3638C56.3931 48.3738 56.4286 48.3847 56.4638 48.3964C56.499 48.4081 56.534 48.4207 56.5686 48.4342C56.6032 48.4477 56.6374 48.462 56.6714 48.4771C56.7053 48.4923 56.7388 48.5083 56.7718 48.5251C56.805 48.5419 56.8376 48.5595 56.8699 48.5779C56.9021 48.5964 56.9338 48.6156 56.9652 48.6356C56.9964 48.6556 57.0272 48.6763 57.0574 48.6978C57.0877 48.7194 57.1174 48.7416 57.1466 48.7646C57.1757 48.7876 57.2043 48.8113 57.2323 48.8357C57.2603 48.8601 57.2877 48.8852 57.3145 48.9109C57.3412 48.9367 57.3673 48.9631 57.3927 48.9901C57.822 49.4474 58.0837 50.102 58.0569 50.7313C58.0251 51.4832 57.6447 52.0254 57.1096 52.5184C57.0316 52.573 57.009 52.6119 56.9099 52.6043C56.8729 52.5693 56.293 51.2507 56.1656 51.0193C55.6935 50.1611 55.1062 49.4188 54.4802 48.6689C54.7742 48.5005 55.0477 48.3828 55.3774 48.3026Z" fill="#FAFCFF"/>
<path d="M64.0128 57.3832C64.0318 57.5063 63.9794 57.6641 63.9533 57.7851C63.428 60.2226 61.9072 62.495 59.802 63.8435C57.7483 65.159 55.3072 65.6694 52.9106 65.1442C52.8204 65.123 52.7329 65.0913 52.645 65.062C52.6816 65.0101 54.0885 63.9255 54.2716 63.7731C54.6494 63.7825 55.0273 63.7932 55.4043 63.7569C57.4343 63.5613 59.3911 62.4842 60.7022 60.9349C61.0869 60.4803 61.3613 59.9215 61.7587 59.4887C61.9716 59.257 62.2874 59.0918 62.5305 58.8876C62.7986 58.6586 63.0565 58.4185 63.304 58.1673C63.5515 57.916 63.7877 57.6547 64.0128 57.3832Z" fill="#FAFCFF"/>
<path d="M40.9802 4.27664C41.1309 4.26336 41.2754 4.25459 41.4229 4.29613C41.705 4.37563 41.8772 4.56892 42.0199 4.81458C41.9752 4.82744 41.9313 4.84059 41.8874 4.85582C41.1714 5.10389 40.4709 5.45349 39.7757 5.75703L36.5013 7.17155L26.2407 11.6398L16.3727 15.8963L13.6595 17.0662C13.0356 17.3294 12.3711 17.5603 11.7872 17.9045C11.1418 18.2848 10.6773 18.8901 10.3585 19.557C10.3204 19.6469 10.3146 19.6862 10.2335 19.7436C10.1565 19.7387 10.0921 19.7329 10.021 19.7008C9.79066 19.5967 9.60691 19.3535 9.52529 19.119C9.43574 18.8618 9.46944 18.5925 9.58619 18.3498C9.8031 17.8993 10.2665 17.592 10.6978 17.3698C11.1962 17.113 11.73 16.9174 12.2446 16.6946L15.7474 15.1893L27.1384 10.2527L35.7341 6.50249L38.8933 5.1202C39.5809 4.82425 40.2671 4.50671 40.9802 4.27664Z" fill="#FAFCFF"/>
<path d="M27.1067 4.21822C27.6542 4.17299 28.2399 4.24317 28.7723 4.37223C30.2351 4.72684 31.5627 5.74082 32.3433 7.02257L24.6178 10.3775C23.4183 10.9301 22.1778 11.4404 20.9541 11.937C20.9353 9.99531 21.4361 8.09383 22.7054 6.5875C23.8614 5.2156 25.3088 4.37446 27.1067 4.21822Z" fill="#FAFCFF"/>
<path d="M55.3243 40.9956C55.3265 40.9953 55.3288 40.9949 55.331 40.9947C55.4085 40.9893 55.486 40.9849 55.5636 40.9815C55.6412 40.9782 55.7188 40.9757 55.7965 40.9743C55.8741 40.9728 55.9518 40.9723 56.0294 40.9728C56.1071 40.9733 56.1848 40.9748 56.2624 40.9772C56.34 40.9797 56.4176 40.9831 56.4952 40.9875C56.5727 40.9919 56.6502 40.9972 56.7276 41.0035C56.805 41.0099 56.8823 41.0172 56.9595 41.0254C57.0367 41.0337 57.1138 41.0429 57.1909 41.0531C57.2678 41.0633 57.3447 41.0745 57.4214 41.0866C57.4981 41.0987 57.5747 41.1118 57.6511 41.1258C57.7274 41.1399 57.8036 41.1549 57.8797 41.1708C57.9557 41.1868 58.0315 41.2037 58.107 41.2215C58.1826 41.2393 58.258 41.2581 58.3331 41.2779C58.4082 41.2976 58.483 41.3183 58.5576 41.3399C58.6322 41.3615 58.7066 41.3841 58.7806 41.4075C58.8546 41.431 58.9284 41.4554 59.0018 41.4807C59.0752 41.506 59.1483 41.5323 59.2211 41.5594C59.2938 41.5866 59.3662 41.6147 59.4382 41.6437C59.5103 41.6726 59.582 41.7024 59.6533 41.7332C59.7246 41.764 59.7956 41.7956 59.8661 41.8282C59.9366 41.8607 60.0067 41.8941 60.0764 41.9284C60.1461 41.9628 60.2153 41.9979 60.2841 42.0339C60.3529 42.07 60.4212 42.1069 60.4891 42.1447C60.557 42.1824 60.6244 42.221 60.6913 42.2604C60.7582 42.2998 60.8246 42.3401 60.8905 42.3812C60.9564 42.4223 61.0218 42.4642 61.0866 42.507C61.1515 42.5497 61.2158 42.5933 61.2795 42.6376C61.3433 42.6819 61.4065 42.7271 61.4691 42.773C61.5317 42.819 61.5937 42.8657 61.6552 42.9132C61.7167 42.9606 61.7775 43.0089 61.8377 43.0579C61.898 43.1069 61.9576 43.1567 62.0166 43.2072C62.0756 43.2577 62.134 43.309 62.1917 43.3609C62.253 43.4159 62.3136 43.4716 62.3736 43.5281C62.4335 43.5846 62.4928 43.6418 62.5513 43.6998C62.6098 43.7577 62.6676 43.8163 62.7247 43.8757C62.7818 43.9351 62.8381 43.9952 62.8937 44.0559C62.9492 44.1167 63.0041 44.1782 63.0582 44.2403C63.1122 44.3024 63.1655 44.3652 63.218 44.4286C63.2705 44.4921 63.3223 44.5562 63.3732 44.6209C63.4241 44.6856 63.4742 44.751 63.5235 44.8169C63.5729 44.8828 63.6214 44.9494 63.6691 45.0166C63.7167 45.0838 63.7635 45.1515 63.8096 45.2198C63.8555 45.2881 63.9007 45.357 63.945 45.4264C63.9893 45.4958 64.0327 45.5658 64.0753 45.6363C64.1178 45.7068 64.1595 45.7779 64.2003 45.8494C64.2411 45.9209 64.2811 45.993 64.3201 46.0655C64.3591 46.138 64.3972 46.211 64.4344 46.2845C64.4717 46.358 64.508 46.4319 64.5433 46.5062C64.5787 46.5806 64.6132 46.6554 64.6468 46.7306C64.6803 46.8058 64.7129 46.8814 64.7446 46.9574C64.7763 47.0335 64.807 47.1099 64.8368 47.1866C64.8666 47.2634 64.8954 47.3406 64.9233 47.4181C64.9512 47.4956 64.9781 47.5734 65.004 47.6516C65.03 47.7297 65.055 47.8082 65.0789 47.887C65.1029 47.9658 65.126 48.0449 65.148 48.1242C65.1701 48.2035 65.1912 48.2831 65.2113 48.363C65.2314 48.4429 65.2505 48.523 65.2686 48.6033C65.2867 48.6837 65.3038 48.7642 65.3199 48.845C65.336 48.9257 65.3512 49.0067 65.3653 49.0879C65.3794 49.169 65.3925 49.2503 65.4046 49.3318C65.4167 49.4132 65.4278 49.4948 65.4379 49.5766C65.448 49.6583 65.457 49.7401 65.4651 49.8221C65.4732 49.904 65.4802 49.9861 65.4863 50.0683C65.4923 50.1504 65.4973 50.2326 65.5013 50.3148C65.5055 50.3935 65.5087 50.4722 65.511 50.5509C65.5133 50.6296 65.5146 50.7084 65.5149 50.7871C65.5152 50.8659 65.5146 50.9447 65.5129 51.0234C65.5113 51.1021 65.5087 51.1809 65.5051 51.2596C65.5015 51.3382 65.4969 51.4168 65.4914 51.4954C65.4858 51.574 65.4793 51.6525 65.4719 51.7309C65.4644 51.8093 65.4559 51.8876 65.4465 51.9658C65.4371 52.044 65.4267 52.1221 65.4153 52.2C65.4039 52.2779 65.3916 52.3557 65.3783 52.4334C65.365 52.511 65.3508 52.5884 65.3356 52.6657C65.3204 52.743 65.3042 52.8201 65.2871 52.897C65.27 52.9739 65.2519 53.0505 65.2329 53.1269C65.2139 53.2034 65.194 53.2796 65.1731 53.3555C65.1521 53.4315 65.1303 53.5071 65.1075 53.5825C65.0848 53.6579 65.0611 53.733 65.0364 53.8078C65.0117 53.8826 64.9862 53.9571 64.9597 54.0313C64.9332 54.1055 64.9058 54.1793 64.8775 54.2528C64.8492 54.3263 64.82 54.3994 64.7898 54.4722C64.7597 54.545 64.7287 54.6174 64.6968 54.6894C64.6649 54.7614 64.632 54.833 64.5984 54.9041C64.5647 54.9754 64.5301 55.0462 64.4947 55.1165C64.4592 55.1868 64.4229 55.2567 64.3857 55.3261C64.3485 55.3955 64.3105 55.4645 64.2716 55.533C64.2327 55.6015 64.1929 55.6695 64.1524 55.737C64.1118 55.8045 64.0704 55.8715 64.0282 55.938C63.9859 56.0045 63.9429 56.0704 63.899 56.1358C63.8551 56.2012 63.8105 56.2661 63.765 56.3304C63.7195 56.3947 63.6733 56.4584 63.6262 56.5216C63.5791 56.5848 63.5313 56.6473 63.4827 56.7093C63.4341 56.7713 63.3847 56.8327 63.3346 56.8934C63.2845 56.9542 63.2336 57.0143 63.182 57.0738C63.1304 57.1333 63.078 57.1921 63.0249 57.2503C61.4056 59.0445 59.0126 60.2049 56.5995 60.3313C56.8286 59.7697 57.023 59.2199 57.1641 58.6299C58.9316 58.4577 60.5713 57.5049 61.8029 56.2626C62.0401 56.0138 62.2607 55.751 62.4647 55.4742C63.7176 53.7608 64.1972 51.5275 63.8584 49.4404C63.5164 47.3337 62.2465 45.2544 60.5103 44.0083C60.459 43.9713 60.4074 43.935 60.3552 43.8992C60.3031 43.8635 60.2505 43.8284 60.1976 43.794C60.1446 43.7595 60.0912 43.7257 60.0374 43.6926C59.9836 43.6595 59.9294 43.627 59.8747 43.5952C59.8201 43.5634 59.7651 43.5322 59.7098 43.5018C59.6544 43.4714 59.5987 43.4416 59.5426 43.4125C59.4865 43.3834 59.43 43.3551 59.3732 43.3274C59.3164 43.2996 59.2593 43.2726 59.2018 43.2463C59.1443 43.22 59.0866 43.1945 59.0285 43.1696C58.9704 43.1447 58.912 43.1205 58.8533 43.0971C58.7946 43.0736 58.7357 43.0509 58.6765 43.0289C58.6172 43.0069 58.5577 42.9857 58.498 42.9651C58.4382 42.9446 58.3782 42.9248 58.3179 42.9057C58.2577 42.8866 58.1972 42.8683 58.1365 42.8507C58.0758 42.8332 58.0149 42.8163 57.9538 42.8002C57.8926 42.7841 57.8314 42.7688 57.7699 42.7542C57.7084 42.7396 57.6467 42.7258 57.5849 42.7127C57.523 42.6996 57.4611 42.6873 57.399 42.6758C57.3368 42.6642 57.2746 42.6535 57.2122 42.6435C57.1498 42.6335 57.0873 42.6242 57.0247 42.6157C56.962 42.6072 56.8993 42.5995 56.8365 42.5926C56.7737 42.5856 56.7108 42.5794 56.6478 42.574C56.5849 42.5686 56.5219 42.564 56.4588 42.5601C56.3957 42.5563 56.3326 42.5532 56.2695 42.5509C56.2063 42.5485 56.1431 42.547 56.08 42.5463C56.0168 42.5455 55.9535 42.5455 55.8903 42.5463C55.8272 42.5471 55.764 42.5487 55.7008 42.551C55.6377 42.5534 55.5746 42.5565 55.5115 42.5604C55.4484 42.5642 55.3854 42.5689 55.3225 42.5744C55.2595 42.5798 55.1966 42.586 55.1338 42.593C55.071 42.6 55.0083 42.6077 54.9457 42.6162C54.8831 42.6247 54.8206 42.634 54.7582 42.6441C52.7229 42.9886 50.6126 44.1427 49.4059 45.8552C48.8358 45.716 48.2785 45.6386 47.6951 45.5898C47.9197 45.1668 48.2493 44.747 48.5609 44.3826C50.2964 42.3532 52.6703 41.2097 55.3243 40.9956Z" fill="#FAFCFF"/>
<path d="M55.4276 43.183C55.4364 43.1816 55.4451 43.1799 55.4539 43.179C57.1283 43.0191 58.9098 43.6001 60.2454 44.5997C60.2954 44.6374 60.3449 44.6757 60.3939 44.7146C60.4429 44.7535 60.4915 44.7929 60.5396 44.833C60.5877 44.873 60.6352 44.9137 60.6823 44.9549C60.7294 44.9961 60.776 45.0379 60.8221 45.0802C60.8682 45.1226 60.9137 45.1655 60.9588 45.209C61.0038 45.2524 61.0483 45.2964 61.0923 45.341C61.1362 45.3855 61.1797 45.4306 61.2226 45.4762C61.2654 45.5218 61.3077 45.5679 61.3495 45.6145C61.3912 45.6612 61.4324 45.7083 61.473 45.7559C61.5136 45.8035 61.5536 45.8517 61.5931 45.9003C61.6325 45.9489 61.6713 45.9979 61.7095 46.0475C61.7478 46.097 61.7854 46.147 61.8225 46.1975C61.8595 46.248 61.8959 46.2988 61.9317 46.3502C61.9675 46.4015 62.0026 46.4533 62.0371 46.5055C62.0717 46.5577 62.1056 46.6103 62.1388 46.6634C62.172 46.7164 62.2047 46.7698 62.2366 46.8236C62.2685 46.8774 62.2998 46.9316 62.3305 46.9862C62.3611 47.0408 62.391 47.0957 62.4204 47.1511C62.4497 47.2063 62.4783 47.262 62.5062 47.318C62.5341 47.374 62.5614 47.4303 62.588 47.487C62.6145 47.5437 62.6404 47.6007 62.6656 47.6579C62.6908 47.7152 62.7153 47.7728 62.739 47.8307C62.7628 47.8886 62.7859 47.9468 62.8083 48.0052C62.8307 48.0637 62.8523 48.1224 62.8733 48.1814C62.8942 48.2403 62.9144 48.2996 62.9339 48.359C62.9534 48.4185 62.9722 48.4782 62.9903 48.5381C63.0083 48.5981 63.0256 48.6582 63.0422 48.7185C63.0588 48.7789 63.0747 48.8394 63.0898 48.9002C63.1049 48.9609 63.1193 49.0218 63.1329 49.0829C63.1466 49.144 63.1594 49.2052 63.1716 49.2666C63.1837 49.328 63.1951 49.3895 63.2058 49.4512C63.2164 49.5129 63.2263 49.5747 63.2355 49.6366C63.2445 49.6986 63.2528 49.7608 63.2604 49.823C63.2679 49.8852 63.2746 49.9475 63.2806 50.0099C63.2866 50.0723 63.2918 50.1348 63.2962 50.1973C63.3007 50.2599 63.3044 50.3224 63.3073 50.3851C63.3102 50.4477 63.3124 50.5103 63.3137 50.573C63.3152 50.6356 63.3158 50.6983 63.3156 50.761C63.3154 50.8237 63.3145 50.8864 63.3128 50.949C63.3111 51.0117 63.3086 51.0743 63.3054 51.1369C63.3022 51.1995 63.2982 51.2621 63.2934 51.3246C63.2886 51.3871 63.2831 51.4495 63.2768 51.5119C63.2705 51.5742 63.2634 51.6365 63.2556 51.6987C63.2477 51.7609 63.2391 51.823 63.2298 51.885C63.2204 51.947 63.2103 52.0089 63.1994 52.0706C63.1885 52.1323 63.1769 52.1939 63.1645 52.2554C63.1521 52.3168 63.139 52.3781 63.1251 52.4392C63.1112 52.5003 63.0965 52.5613 63.0811 52.6221C63.0657 52.6828 63.0496 52.7434 63.0327 52.8038C63.0159 52.8641 62.9982 52.9242 62.9799 52.9842C62.9615 53.0442 62.9424 53.1039 62.9226 53.1633C62.9028 53.2228 62.8822 53.282 62.8609 53.3409C62.8396 53.3999 62.8177 53.4586 62.795 53.517C62.7722 53.5754 62.7488 53.6336 62.7246 53.6915C62.7005 53.7493 62.6756 53.8068 62.65 53.8641C62.6245 53.9213 62.5983 53.9782 62.5713 54.0348C62.5443 54.0914 62.5167 54.1476 62.4884 54.2036C62.46 54.2595 62.431 54.315 62.4013 54.3702C62.3716 54.4254 62.3412 54.4803 62.3102 54.5348C62.2791 54.5892 62.2474 54.6432 62.215 54.6969C62.1826 54.7506 62.1496 54.8039 62.1159 54.8567C62.0822 54.9096 62.0479 54.962 62.0129 55.014C61.9779 55.0661 61.9423 55.1177 61.9061 55.1688C61.8699 55.22 61.833 55.2707 61.7955 55.3209C60.7827 56.6622 58.9717 57.8011 57.2957 58.0291C57.3382 57.5671 57.3879 57.1072 57.4201 56.6443C57.4784 55.4547 57.311 54.3517 57.0776 53.1916C57.2367 53.1071 57.3958 53.0049 57.5371 52.8928C57.5744 52.8634 57.6109 52.833 57.6467 52.8018C57.6825 52.7705 57.7174 52.7384 57.7516 52.7054C57.7858 52.6724 57.8191 52.6386 57.8516 52.6039C57.8841 52.5692 57.9156 52.5337 57.9464 52.4975C57.9771 52.4612 58.0069 52.4242 58.0357 52.3865C58.0646 52.3488 58.0925 52.3103 58.1194 52.2712C58.1463 52.232 58.1722 52.1922 58.1972 52.1517C58.2222 52.1113 58.2461 52.0703 58.269 52.0287C58.2918 51.987 58.3137 51.9449 58.3344 51.9022C58.3552 51.8594 58.3749 51.8162 58.3935 51.7725C58.4121 51.7288 58.4297 51.6846 58.4461 51.6401C58.4625 51.5955 58.4778 51.5505 58.4919 51.5051C58.5061 51.4598 58.5191 51.4141 58.531 51.3681C58.5429 51.3221 58.5536 51.2758 58.5631 51.2293C58.5727 51.1828 58.5811 51.136 58.5883 51.089C58.5955 51.0421 58.6016 50.995 58.6064 50.9477C58.6118 50.899 58.6159 50.8502 58.6187 50.8012C58.6216 50.7523 58.6233 50.7033 58.6237 50.6543C58.6241 50.6053 58.6234 50.5563 58.6214 50.5073C58.6194 50.4583 58.6162 50.4094 58.6117 50.3606C58.6073 50.3118 58.6016 50.2631 58.5948 50.2145C58.5879 50.166 58.5799 50.1176 58.5706 50.0695C58.5613 50.0214 58.5508 49.9735 58.5392 49.9259C58.5275 49.8783 58.5147 49.831 58.5007 49.784C58.4867 49.737 58.4715 49.6904 58.4552 49.6442C58.4388 49.598 58.4213 49.5522 58.4027 49.5069C58.3841 49.4615 58.3644 49.4166 58.3435 49.3723C58.3227 49.3279 58.3007 49.2841 58.2776 49.2408C58.2546 49.1975 58.2305 49.1549 58.2054 49.1128C58.1802 49.0707 58.154 49.0293 58.1268 48.9886C58.0996 48.9478 58.0714 48.9077 58.0421 48.8684C58.0129 48.829 57.9827 48.7904 57.9516 48.7525C57.9223 48.7161 57.8923 48.6805 57.8613 48.6457C57.8303 48.6108 57.7985 48.5767 57.7658 48.5435C57.7332 48.5102 57.6997 48.4778 57.6653 48.4462C57.631 48.4146 57.596 48.3839 57.5601 48.354C57.5243 48.3242 57.4877 48.2953 57.4504 48.2673C57.4131 48.2393 57.3752 48.2123 57.3365 48.1862C57.2979 48.16 57.2586 48.1349 57.2188 48.1107C57.1788 48.0866 57.1383 48.0635 57.0973 48.0414C57.0563 48.0193 57.0147 47.9982 56.9726 47.9781C56.9305 47.9581 56.8879 47.9392 56.8448 47.9213C56.8018 47.9033 56.7583 47.8865 56.7144 47.8708C56.6705 47.855 56.6262 47.8404 56.5816 47.8269C56.5369 47.8134 56.492 47.801 56.4467 47.7897C56.4014 47.7785 56.3559 47.7684 56.3102 47.7594C56.2644 47.7504 56.2185 47.7426 56.1724 47.7359C56.1262 47.7292 56.0799 47.7236 56.0335 47.7193C55.3007 47.6505 54.6043 47.8314 54.0344 48.3007C52.9511 47.2593 51.4633 46.3972 50.0154 46.0161C50.0531 45.9704 50.0911 45.9249 50.1294 45.8796C50.1708 45.8314 50.2127 45.7836 50.2553 45.7364C50.2978 45.6892 50.3409 45.6425 50.3845 45.5964C50.4282 45.5502 50.4724 45.5046 50.5172 45.4595C50.562 45.4144 50.6073 45.3699 50.6532 45.326C50.6991 45.282 50.7455 45.2386 50.7924 45.1958C50.8393 45.1529 50.8868 45.1107 50.9347 45.069C50.9827 45.0274 51.0312 44.9863 51.0801 44.9458C51.1291 44.9053 51.1785 44.8654 51.2285 44.8261C51.2784 44.7869 51.3289 44.7482 51.3798 44.7101C51.4306 44.6721 51.482 44.6347 51.5338 44.5979C51.5856 44.5611 51.6378 44.525 51.6905 44.4895C51.7432 44.454 51.7963 44.4191 51.8499 44.3849C51.9034 44.3507 51.9574 44.3171 52.0117 44.2843C52.0661 44.2514 52.1208 44.2191 52.176 44.1875C52.2312 44.156 52.2867 44.1251 52.3425 44.095C52.3985 44.0648 52.4547 44.0353 52.5114 44.0065C52.568 43.9776 52.625 43.9495 52.6823 43.922C52.7396 43.8946 52.7972 43.8679 52.8552 43.8419C52.9131 43.8159 52.9714 43.7906 53.03 43.766C53.0886 43.7414 53.1475 43.7175 53.2067 43.6943C53.2658 43.6712 53.3253 43.6488 53.385 43.6271C53.4447 43.6054 53.5047 43.5844 53.5649 43.5642C53.6251 43.5439 53.6856 43.5244 53.7463 43.5057C53.807 43.4869 53.8679 43.4689 53.9291 43.4516C53.9903 43.4344 54.0516 43.4179 54.1131 43.4021C54.1747 43.3863 54.2364 43.3713 54.2984 43.3571C54.3603 43.3428 54.4223 43.3293 54.4846 43.3166C54.5468 43.3039 54.6092 43.2919 54.6717 43.2807C54.7343 43.2695 54.797 43.259 54.8598 43.2493C54.9226 43.2396 54.9855 43.2307 55.0485 43.2226C55.1115 43.2144 55.1746 43.2071 55.2378 43.2005C55.301 43.1939 55.3642 43.1881 55.4276 43.183Z" fill="#FAFCFF"/>
<path d="M41.3194 10.3942C41.5098 10.3871 41.716 10.3988 41.8897 10.4843C42.0453 10.5609 42.1521 10.6773 42.2353 10.8271C42.4274 11.1729 42.563 11.5797 42.713 11.9472L43.5906 14.1183C44.3688 16.0422 45.2146 17.9601 45.9091 19.9154C42.536 19.8573 39.1542 19.891 35.7804 19.8971L24.0393 19.9125L19.2651 19.9034C20.0245 19.5466 20.8082 19.2348 21.5782 18.9014C23.0768 18.2387 24.5822 17.5918 26.0945 16.9609L34.3342 13.409L39.3344 11.2251C39.985 10.9468 40.6398 10.5879 41.3194 10.3942Z" fill="#FAFCFF"/>
<path d="M42.9619 5.41008C43.2043 5.37482 43.4353 5.40559 43.6575 5.51115C43.9573 5.65362 44.2097 5.90654 44.3683 6.19673C44.6456 6.70449 44.8371 7.3088 45.0538 7.84686L46.4062 11.2151L48.3289 15.9531C48.8625 17.2547 49.4193 18.5655 49.8865 19.8923C48.863 19.8867 47.8395 19.8884 46.8161 19.8975C46.1398 18.185 45.4496 16.4782 44.7456 14.7769C44.2084 13.4419 43.6979 12.0912 43.137 10.7663C42.9222 10.2589 42.671 9.88882 42.1392 9.68087C41.7844 9.5421 41.3894 9.49958 41.0184 9.59508C40.4537 9.74034 39.886 10.0426 39.3507 10.2755L35.9998 11.7494L25.0327 16.4781C24.5174 16.6839 24.0134 16.9203 23.5026 17.1373L18.9623 19.075C18.4814 19.2786 17.3802 19.8215 16.9245 19.8932C16.3166 19.9889 15.6128 19.9232 14.9956 19.9225L11.1978 19.9223C11.2675 19.7345 11.366 19.5527 11.4788 19.3872C11.7094 19.0487 11.9979 18.7822 12.3651 18.5977C12.9367 18.3107 13.5492 18.0845 14.1359 17.8279L18.1031 16.102L30.4464 10.7709L38.9171 7.06168L40.8894 6.21114C41.5581 5.91853 42.2427 5.54526 42.9619 5.41008Z" fill="#FAFCFF"/>
<path d="M4.42258 33.2721C4.99007 33.617 5.5631 33.8449 6.21145 33.9938C7.56775 34.3051 9.00337 34.3429 10.3873 34.455L16.7438 34.9633C17.6556 35.0356 18.6662 35.0068 19.5482 35.2484C19.6281 35.2706 19.7072 35.2952 19.7856 35.3221C19.8641 35.3491 19.9416 35.3784 20.0182 35.41C20.0948 35.4415 20.1705 35.4754 20.2451 35.5115C20.3197 35.5476 20.3932 35.586 20.4655 35.6265C20.5379 35.667 20.6089 35.7097 20.6787 35.7545C20.7484 35.7992 20.8168 35.8461 20.8838 35.895C20.9507 35.9439 21.0161 35.9947 21.08 36.0476C21.1439 36.1003 21.2062 36.155 21.2668 36.2115C21.3194 36.2606 21.3707 36.3109 21.4207 36.3625C21.4708 36.4141 21.5196 36.4669 21.567 36.5209C21.6144 36.5749 21.6605 36.6301 21.7052 36.6864C21.7498 36.7427 21.7931 36.8001 21.8349 36.8585C21.8767 36.917 21.9171 36.9764 21.956 37.0369C21.9949 37.0973 22.0323 37.1587 22.0681 37.2211C22.1039 37.2834 22.1382 37.3465 22.1709 37.4106C22.2036 37.4746 22.2346 37.5394 22.2641 37.6049C22.2936 37.6705 22.3214 37.7368 22.3476 37.8037C22.3738 37.8707 22.3983 37.9382 22.4211 38.0064C22.4439 38.0745 22.465 38.1432 22.4844 38.2124C22.5038 38.2817 22.5215 38.3513 22.5374 38.4214C22.5534 38.4915 22.5676 38.562 22.58 38.6328C22.5925 38.7035 22.6031 38.7746 22.6121 38.8459C22.621 38.9172 22.6281 38.9887 22.6335 39.0604C22.6389 39.1321 22.6424 39.2039 22.6442 39.2758C22.686 40.5492 22.2198 41.6462 21.355 42.5687C21.1445 42.7708 20.9182 42.9533 20.6762 43.1164C20.0923 43.5031 19.3485 43.772 18.649 43.8308C18.0862 43.8781 17.5003 43.7904 16.9394 43.7396C16.2685 43.6788 15.5972 43.6222 14.9256 43.5698L10.1871 43.1682C9.12286 43.0754 8.04894 43.0253 7.00099 42.8085C6.05484 42.6128 4.9762 42.3486 4.41392 41.4923C4.37125 40.5485 4.40863 39.5869 4.41021 38.6412L4.42258 33.2721Z" fill="#FAFCFF"/>
<path d="M16.9611 36.9271C16.9968 36.9255 17.0325 36.9247 17.0683 36.9247C17.1039 36.9247 17.1396 36.9255 17.1753 36.9271C17.211 36.9288 17.2466 36.9312 17.2821 36.9345C17.3177 36.9377 17.3532 36.9418 17.3886 36.9467C17.424 36.9515 17.4592 36.9572 17.4943 36.9636C17.5295 36.9701 17.5644 36.9774 17.5992 36.9855C17.634 36.9935 17.6686 37.0024 17.703 37.012C17.7374 37.0217 17.7715 37.0321 17.8054 37.0433C17.8393 37.0545 17.873 37.0665 17.9063 37.0792C17.9397 37.0919 17.9728 37.1054 18.0055 37.1196C18.0383 37.1339 18.0707 37.1489 18.1027 37.1646C18.1348 37.1803 18.1665 37.1967 18.1979 37.2139C18.2292 37.231 18.2601 37.2489 18.2906 37.2675C18.3211 37.2861 18.3512 37.3053 18.3808 37.3253C18.4104 37.3452 18.4396 37.3658 18.4683 37.3871C18.497 37.4083 18.5252 37.4302 18.5529 37.4528C18.5819 37.477 18.6103 37.5019 18.6381 37.5275C18.666 37.5532 18.6932 37.5794 18.7197 37.6064C18.7462 37.6333 18.7721 37.6609 18.7973 37.6891C18.8225 37.7173 18.847 37.7461 18.8708 37.7755C18.8946 37.8049 18.9177 37.8348 18.94 37.8653C18.9623 37.8958 18.9839 37.9269 19.0047 37.9584C19.0256 37.99 19.0456 38.0221 19.0649 38.0546C19.0842 38.0871 19.1027 38.1201 19.1203 38.1536C19.138 38.187 19.1548 38.2208 19.1709 38.2551C19.1868 38.2894 19.202 38.324 19.2164 38.359C19.2307 38.394 19.2442 38.4293 19.2568 38.465C19.2694 38.5006 19.2812 38.5365 19.2921 38.5728C19.3029 38.609 19.3129 38.6454 19.322 38.6821C19.3311 38.7189 19.3393 38.7558 19.3466 38.7929C19.3539 38.83 19.3603 38.8672 19.3657 38.9046C19.3713 38.9421 19.3758 38.9796 19.3795 39.0172C19.3833 39.0553 19.3861 39.0935 19.3879 39.1317C19.3898 39.17 19.3907 39.2082 19.3906 39.2465C19.3906 39.2848 19.3896 39.323 19.3876 39.3613C19.3857 39.3995 19.3827 39.4377 19.3789 39.4758C19.3749 39.5139 19.3701 39.5518 19.3644 39.5897C19.3586 39.6275 19.3519 39.6652 19.3442 39.7027C19.3366 39.7402 19.328 39.7775 19.3184 39.8146C19.3089 39.8517 19.2985 39.8885 19.2871 39.925C19.2758 39.9616 19.2635 39.9979 19.2503 40.0338C19.2371 40.0698 19.2231 40.1054 19.2081 40.1406C19.1932 40.1759 19.1773 40.2107 19.1607 40.2452C19.1439 40.2796 19.1264 40.3136 19.108 40.3472C19.0896 40.3807 19.0704 40.4139 19.0503 40.4465C19.0303 40.4791 19.0094 40.5112 18.9878 40.5427C18.9661 40.5743 18.9436 40.6053 18.9205 40.6358C18.8973 40.6662 18.8733 40.6961 18.8486 40.7253C18.4178 41.2431 17.8388 41.5203 17.1745 41.5786C16.582 41.5825 16.0449 41.4255 15.5798 41.0492C15.1074 40.6669 14.7925 40.1242 14.73 39.5171C14.6662 38.8991 14.8342 38.2868 15.228 37.8031C15.6715 37.2581 16.2743 36.998 16.9611 36.9271Z" fill="url(#paint1_linear_2023_415)"/>
<path d="M16.9541 37.7771C17.2239 37.7633 17.5073 37.8318 17.7466 37.9555C17.7685 37.9667 17.7901 37.9785 17.8114 37.9908C17.8326 38.0031 17.8536 38.016 17.8743 38.0294C17.8949 38.0427 17.9152 38.0566 17.9351 38.0711C17.955 38.0855 17.9745 38.1005 17.9937 38.1159C18.0128 38.1313 18.0315 38.1472 18.0499 38.1637C18.0682 38.1801 18.0861 38.1969 18.1035 38.2142C18.121 38.2316 18.138 38.2493 18.1546 38.2675C18.1711 38.2857 18.1872 38.3043 18.2028 38.3233C18.2184 38.3423 18.2335 38.3617 18.2481 38.3815C18.2627 38.4013 18.2768 38.4214 18.2904 38.4419C18.3039 38.4625 18.317 38.4833 18.3295 38.5045C18.342 38.5257 18.354 38.5472 18.3653 38.569C18.3767 38.5908 18.3876 38.6129 18.3978 38.6352C18.4081 38.6575 18.4178 38.6801 18.4269 38.703C18.436 38.7258 18.4445 38.7489 18.4524 38.7722C18.4604 38.7955 18.4677 38.8189 18.4744 38.8426C18.5852 39.228 18.53 39.625 18.3267 39.9698C18.073 40.4 17.6907 40.5962 17.2229 40.7094C16.8696 40.7301 16.5637 40.6891 16.258 40.4963C16.2371 40.4831 16.2167 40.4694 16.1966 40.4552C16.1765 40.441 16.1567 40.4263 16.1374 40.411C16.1181 40.3958 16.0991 40.38 16.0806 40.3639C16.062 40.3476 16.0439 40.331 16.0262 40.3139C16.0085 40.2968 15.9912 40.2792 15.9744 40.2612C15.9576 40.2431 15.9413 40.2247 15.9255 40.2059C15.9096 40.187 15.8942 40.1678 15.8794 40.1482C15.8645 40.1285 15.8501 40.1085 15.8363 40.0882C15.8224 40.0678 15.8091 40.0471 15.7963 40.026C15.7835 40.005 15.7713 39.9836 15.7596 39.962C15.7479 39.9403 15.7368 39.9183 15.7262 39.8961C15.7156 39.8738 15.7056 39.8513 15.6963 39.8285C15.6868 39.8058 15.678 39.7828 15.6697 39.7596C15.6615 39.7364 15.6538 39.713 15.6468 39.6894C15.6397 39.6658 15.6333 39.6421 15.6275 39.6181C15.6216 39.5942 15.6164 39.5701 15.6118 39.5459C15.5364 39.1637 15.6166 38.746 15.8389 38.4247C16.1037 38.0419 16.5082 37.8542 16.9541 37.7771Z" fill="#FAFCFF"/>
<path d="M46.2575 46.3958C46.2602 46.3954 46.2628 46.3949 46.2655 46.3947C46.342 46.3892 46.4186 46.3847 46.4952 46.3811C46.5718 46.3775 46.6485 46.3747 46.7252 46.373C46.8019 46.3712 46.8786 46.3703 46.9553 46.3704C47.032 46.3704 47.1087 46.3714 47.1854 46.3732C47.2621 46.3752 47.3388 46.378 47.4154 46.3816C47.492 46.3854 47.5685 46.39 47.6451 46.3956C47.7216 46.4011 47.798 46.4076 47.8744 46.4149C47.9507 46.4223 48.027 46.4306 48.1031 46.4398C48.1793 46.449 48.2553 46.4591 48.3313 46.4702C48.4072 46.4812 48.4829 46.4931 48.5585 46.5059C48.6342 46.5188 48.7097 46.5325 48.785 46.5471C48.8603 46.5618 48.9354 46.5774 49.0103 46.5938C49.0853 46.6102 49.16 46.6276 49.2345 46.6458C49.309 46.664 49.3833 46.6831 49.4573 46.7031C49.5314 46.7231 49.6052 46.744 49.6788 46.7658C49.7523 46.7876 49.8256 46.8102 49.8987 46.8338C49.9717 46.8573 50.0444 46.8817 50.1168 46.9069C50.1893 46.9322 50.2614 46.9583 50.3332 46.9853C50.405 47.0123 50.4765 47.0401 50.5476 47.0689C50.6187 47.0976 50.6895 47.1271 50.7599 47.1575C50.8304 47.1879 50.9004 47.2192 50.9701 47.2512C51.0398 47.2833 51.1091 47.3162 51.178 47.3499C51.2469 47.3837 51.3154 47.4182 51.3835 47.4536C51.4515 47.489 51.5192 47.5251 51.5864 47.5621C51.6536 47.5991 51.7204 47.6369 51.7867 47.6755C51.8529 47.714 51.9188 47.7534 51.9842 47.7936C52.0495 47.8338 52.1144 47.8747 52.1787 47.9164C52.2431 47.9581 52.307 48.0006 52.3703 48.0438C52.4337 48.0871 52.4966 48.1311 52.5589 48.1758C52.6212 48.2206 52.6829 48.266 52.7442 48.3123C52.8054 48.3585 52.8661 48.4054 52.9262 48.4531C52.9863 48.5008 53.0458 48.5492 53.1047 48.5983C53.1658 48.6499 53.2262 48.7023 53.286 48.7554C53.3458 48.8086 53.405 48.8624 53.4635 48.917C53.5219 48.9715 53.5798 49.0268 53.6369 49.0827C53.694 49.1387 53.7505 49.1954 53.8062 49.2527C53.862 49.3101 53.917 49.3682 53.9714 49.4269C54.0257 49.4855 54.0793 49.5448 54.1322 49.6049C54.1851 49.6649 54.2373 49.7255 54.2887 49.7868C54.3401 49.8481 54.3908 49.9099 54.4407 49.9724C54.4906 50.035 54.5397 50.0981 54.5881 50.1618C54.6365 50.2254 54.6841 50.2897 54.7309 50.3546C54.7777 50.4195 54.8237 50.4849 54.8689 50.5509C54.9141 50.6169 54.9585 50.6834 55.002 50.7505C55.0456 50.8175 55.0884 50.8851 55.1303 50.9532C55.1723 51.0213 55.2134 51.0899 55.2536 51.1591C55.2939 51.2282 55.3333 51.2978 55.3719 51.3678C55.4104 51.4379 55.4481 51.5085 55.485 51.5795C55.5218 51.6504 55.5578 51.7219 55.5929 51.7938C55.628 51.8657 55.6622 51.9379 55.6955 52.0106C55.7289 52.0833 55.7614 52.1564 55.7929 52.2299C55.8245 52.3034 55.8551 52.3773 55.8849 52.4515C55.9147 52.5258 55.9435 52.6004 55.9714 52.6754C55.9994 52.7503 56.0264 52.8255 56.0525 52.9011C56.0786 52.9768 56.1038 53.0527 56.128 53.1289C56.1523 53.2051 56.1756 53.2816 56.198 53.3584C56.2204 53.4352 56.2419 53.5123 56.2624 53.5896C56.2829 53.6669 56.3024 53.7444 56.321 53.8222C56.3397 53.9 56.3573 53.978 56.3741 54.0562C56.3908 54.1345 56.4065 54.2129 56.4213 54.2914C56.4361 54.3701 56.45 54.4488 56.4629 54.5278C56.4758 54.6068 56.4877 54.6858 56.4986 54.765C56.5096 54.8443 56.5196 54.9236 56.5286 55.0031C56.5377 55.0826 56.5457 55.1622 56.5528 55.2418C56.7667 57.7758 56.001 60.4094 54.349 62.3563C52.6482 64.3607 50.269 65.5455 47.6549 65.76C47.5777 65.7652 47.5003 65.7694 47.423 65.7727C47.3456 65.7761 47.2682 65.7785 47.1908 65.7801C47.1134 65.7816 47.036 65.7822 46.9585 65.7819C46.8811 65.7816 46.8037 65.7804 46.7262 65.7783C46.6489 65.7761 46.5715 65.7731 46.4942 65.7691C46.4168 65.7652 46.3395 65.7603 46.2623 65.7546C46.1851 65.7488 46.108 65.7421 46.0309 65.7345C45.9538 65.7269 45.8769 65.7184 45.8 65.709C45.7231 65.6996 45.6464 65.6893 45.5698 65.6781C45.4932 65.6668 45.4167 65.6547 45.3403 65.6417C45.264 65.6287 45.1878 65.6147 45.1119 65.5999C45.0359 65.5851 44.96 65.5694 44.8844 65.5528C44.8088 65.5362 44.7333 65.5187 44.6581 65.5003C44.5829 65.4819 44.5079 65.4626 44.4331 65.4424C44.3583 65.4223 44.2838 65.4013 44.2096 65.3793C44.1353 65.3574 44.0613 65.3346 43.9876 65.311C43.9138 65.2873 43.8404 65.2628 43.7672 65.2374C43.6941 65.212 43.6212 65.1858 43.5487 65.1587C43.4761 65.1315 43.4039 65.1036 43.3321 65.0748C43.2602 65.046 43.1887 65.0163 43.1175 64.9858C43.0463 64.9553 42.9755 64.924 42.9051 64.8918C42.8346 64.8596 42.7646 64.8266 42.695 64.7928C42.6253 64.759 42.556 64.7244 42.4872 64.6889C42.4184 64.6534 42.3499 64.6172 42.2819 64.5801C42.2139 64.543 42.1464 64.5052 42.0793 64.4665C42.0122 64.4278 41.9456 64.3884 41.8794 64.3481C41.8133 64.3079 41.7476 64.2669 41.6824 64.2251C41.6172 64.1834 41.5525 64.1408 41.4883 64.0975C41.4241 64.0542 41.3605 64.0101 41.2973 63.9653C41.2342 63.9205 41.1716 63.8749 41.1095 63.8287C41.0474 63.7824 40.9859 63.7353 40.9249 63.6876C40.8639 63.6399 40.8035 63.5914 40.7437 63.5422C40.6814 63.4901 40.6197 63.4372 40.5586 63.3835C40.4976 63.3298 40.4372 63.2754 40.3775 63.2203C40.3178 63.1651 40.2588 63.1092 40.2005 63.0526C40.1421 62.9959 40.0845 62.9386 40.0276 62.8805C39.9707 62.8225 39.9146 62.7637 39.8591 62.7043C39.8037 62.6448 39.749 62.5847 39.6951 62.5239C39.6411 62.4631 39.5879 62.4016 39.5355 62.3395C39.483 62.2774 39.4314 62.2147 39.3805 62.1513C39.3296 62.0879 39.2795 62.0239 39.2302 61.9592C39.1809 61.8946 39.1324 61.8294 39.0848 61.7635C39.0371 61.6977 38.9902 61.6313 38.9442 61.5643C38.8982 61.4973 38.853 61.4297 38.8086 61.3616C38.7642 61.2935 38.7207 61.2249 38.6781 61.1557C38.6354 61.0865 38.5936 61.0168 38.5527 60.9466C38.5117 60.8763 38.4717 60.8056 38.4325 60.7344C38.3933 60.6631 38.355 60.5915 38.3176 60.5193C38.2801 60.4471 38.2436 60.3745 38.208 60.3015C38.1724 60.2284 38.1377 60.1549 38.1039 60.0809C38.0701 60.007 38.0372 59.9327 38.0053 59.8579C37.9733 59.7832 37.9423 59.7081 37.9122 59.6326C37.8821 59.557 37.853 59.4812 37.8248 59.4049C37.7965 59.3287 37.7692 59.2522 37.7429 59.1752C37.7166 59.0984 37.6912 59.0211 37.6668 58.9436C37.6424 58.866 37.619 58.7882 37.5965 58.7101C37.574 58.632 37.5525 58.5536 37.5319 58.475C37.5114 58.3963 37.4919 58.3174 37.4733 58.2383C37.4547 58.1591 37.437 58.0798 37.4204 58.0003C37.4038 57.9207 37.3881 57.8409 37.3735 57.761C37.3588 57.681 37.3452 57.6009 37.3325 57.5206C37.3198 57.4403 37.3082 57.3599 37.2975 57.2793C37.2868 57.1987 37.2771 57.118 37.2685 57.0372C37.2598 56.9564 37.2521 56.8754 37.2454 56.7944C37.2389 56.717 37.2333 56.6396 37.2287 56.5621C37.2241 56.4845 37.2204 56.407 37.2177 56.3294C37.215 56.2518 37.2132 56.1741 37.2124 56.0965C37.2116 56.0189 37.2118 55.9412 37.2129 55.8636C37.214 55.7859 37.216 55.7083 37.219 55.6307C37.222 55.5531 37.2259 55.4756 37.2309 55.398C37.2357 55.3206 37.2416 55.2431 37.2484 55.1658C37.2552 55.0884 37.263 55.0111 37.2717 54.9339C37.2804 54.8568 37.29 54.7798 37.3006 54.7028C37.3112 54.6259 37.3227 54.5491 37.3352 54.4725C37.3477 54.3958 37.3611 54.3194 37.3754 54.243C37.3898 54.1667 37.4051 54.0906 37.4212 54.0147C37.4375 53.9387 37.4546 53.863 37.4727 53.7874C37.4908 53.7119 37.5098 53.6366 37.5297 53.5616C37.5496 53.4865 37.5705 53.4117 37.5922 53.3372C37.614 53.2627 37.6367 53.1884 37.6602 53.1144C37.6838 53.0404 37.7083 52.9667 37.7337 52.8934C37.7591 52.8199 37.7854 52.7469 37.8125 52.6741C37.8397 52.6014 37.8678 52.529 37.8967 52.4569C37.9257 52.3849 37.9556 52.3132 37.9863 52.2419C38.017 52.1706 38.0486 52.0996 38.081 52.0291C38.1135 51.9585 38.1468 51.8884 38.181 51.8187C38.2152 51.749 38.2502 51.6797 38.286 51.6108C38.322 51.5419 38.3587 51.4735 38.3962 51.4055C38.4338 51.3376 38.4722 51.2701 38.5114 51.203C38.5506 51.136 38.5906 51.0695 38.6315 51.0034C38.6723 50.9374 38.714 50.8719 38.7564 50.8068C38.7989 50.7418 38.8422 50.6773 38.8862 50.6134C38.9302 50.5494 38.975 50.486 39.0206 50.4231C39.0662 50.3603 39.1126 50.298 39.1597 50.2363C39.2068 50.1745 39.2547 50.1134 39.3033 50.0529C39.3519 49.9923 39.4013 49.9324 39.4514 49.873C41.1749 47.8352 43.6073 46.6255 46.2575 46.3958Z" fill="#FAFCFF"/>
<path d="M46.204 48.0707C46.2682 48.0651 46.3324 48.0602 46.3967 48.0561C46.4611 48.052 46.5255 48.0486 46.5898 48.046C46.6542 48.0433 46.7187 48.0414 46.7831 48.0404C46.8475 48.0392 46.912 48.0388 46.9764 48.0392C47.0409 48.0396 47.1053 48.0407 47.1697 48.0425C47.2342 48.0444 47.2986 48.047 47.3629 48.0503C47.4273 48.0537 47.4916 48.0578 47.5558 48.0627C47.6201 48.0675 47.6844 48.0731 47.7485 48.0795C47.8126 48.0858 47.8766 48.0929 47.9406 48.1008C48.0046 48.1086 48.0685 48.1172 48.1322 48.1265C48.196 48.1358 48.2597 48.1459 48.3232 48.1567C48.3868 48.1675 48.4502 48.179 48.5135 48.1913C48.5767 48.2036 48.6399 48.2166 48.7028 48.2303C48.7658 48.244 48.8286 48.2585 48.8912 48.2737C48.9539 48.2889 49.0163 48.3048 49.0785 48.3214C49.1408 48.3381 49.2029 48.3555 49.2648 48.3736C49.3266 48.3917 49.3883 48.4105 49.4497 48.43C49.5111 48.4496 49.5723 48.4698 49.6332 48.4907C49.6942 48.5117 49.7549 48.5333 49.8153 48.5557C49.8758 48.578 49.936 48.6011 49.9959 48.6249C50.0558 48.6486 50.1154 48.6731 50.1748 48.6982C50.2341 48.7233 50.2932 48.7492 50.3519 48.7757C50.4107 48.8022 50.4691 48.8294 50.5272 48.8573C50.5853 48.8851 50.6431 48.9137 50.7006 48.9429C50.758 48.9721 50.8151 49.002 50.8719 49.0325C50.9286 49.0631 50.985 49.0943 51.041 49.1261C51.0971 49.158 51.1527 49.1905 51.208 49.2237C51.2633 49.2568 51.3182 49.2906 51.3727 49.325C51.4271 49.3594 51.4812 49.3945 51.5349 49.4301C51.5886 49.4658 51.6418 49.5021 51.6947 49.539C51.7475 49.5759 51.7999 49.6134 51.8518 49.6516C51.9038 49.6897 51.9553 49.7285 52.0064 49.7678C52.0569 49.8073 52.1069 49.8474 52.1564 49.8881C52.206 49.9289 52.255 49.9702 52.3035 50.0121C52.352 50.054 52.4 50.0965 52.4475 50.1396C52.495 50.1827 52.5419 50.2264 52.5883 50.2707C52.6347 50.3149 52.6806 50.3597 52.7259 50.405C52.7712 50.4504 52.816 50.4963 52.8602 50.5428C52.9043 50.5893 52.948 50.6363 52.991 50.6837C53.034 50.7313 53.0765 50.7793 53.1184 50.8279C53.1603 50.8765 53.2015 50.9255 53.2422 50.9751C53.2828 51.0247 53.3229 51.0747 53.3624 51.1253C53.4018 51.1759 53.4406 51.2269 53.4788 51.2784C53.517 51.3299 53.5546 51.3819 53.5915 51.4343C53.6284 51.4867 53.6647 51.5395 53.7003 51.5929C53.736 51.6462 53.7709 51.6999 53.8053 51.754C53.8396 51.8082 53.8732 51.8628 53.9062 51.9178C53.9392 51.9728 53.9715 52.0281 54.0031 52.0839C54.0348 52.1397 54.0657 52.1958 54.096 52.2524C54.1262 52.3089 54.1558 52.3658 54.1846 52.4231C54.2135 52.4803 54.2417 52.5379 54.2691 52.5958C54.2966 52.6538 54.3233 52.7121 54.3494 52.7707C54.3754 52.8293 54.4007 52.8882 54.4253 52.9474C54.4499 53.0066 54.4738 53.0661 54.4969 53.1259C54.5201 53.1857 54.5425 53.2458 54.5641 53.3061C54.5858 53.3665 54.6067 53.4271 54.6269 53.4879C54.647 53.5488 54.6665 53.6099 54.6852 53.6713C54.7039 53.7326 54.7219 53.7941 54.739 53.8559C54.7562 53.9177 54.7726 53.9797 54.7883 54.0418C54.804 54.104 54.8189 54.1663 54.833 54.2289C54.8472 54.2914 54.8606 54.3541 54.8732 54.417C54.8858 54.4799 54.8976 54.5429 54.9087 54.606C54.9198 54.6692 54.9301 54.7325 54.9396 54.7959C54.9491 54.8593 54.9579 54.9228 54.9659 54.9864C55.2387 57.1027 54.6887 59.3432 53.3741 61.0384C51.9827 62.8328 49.9914 63.8746 47.7574 64.149C45.5833 64.3109 43.5563 63.7284 41.8465 62.3584C40.1296 60.9828 39.1253 58.9757 38.8951 56.8032C38.8883 56.7377 38.8823 56.672 38.8771 56.6063C38.8719 56.5407 38.8676 56.4749 38.864 56.4091C38.8605 56.3433 38.8577 56.2775 38.8557 56.2116C38.8538 56.1458 38.8527 56.0799 38.8524 56.014C38.8521 55.9481 38.8525 55.8822 38.8538 55.8163C38.8551 55.7505 38.8573 55.6846 38.8602 55.6187C38.8631 55.5529 38.8668 55.4872 38.8714 55.4214C38.876 55.3557 38.8813 55.29 38.8875 55.2244C38.8936 55.1588 38.9006 55.0933 38.9084 55.0278C38.9162 54.9624 38.9248 54.8971 38.9341 54.8319C38.9435 54.7666 38.9537 54.7015 38.9647 54.6366C38.9757 54.5716 38.9875 54.5067 39 54.4421C39.0126 54.3774 39.026 54.3129 39.0402 54.2485C39.0544 54.1842 39.0694 54.12 39.0851 54.0561C39.1009 53.9921 39.1174 53.9283 39.1347 53.8647C39.1521 53.8011 39.1702 53.7378 39.1891 53.6747C39.208 53.6115 39.2276 53.5486 39.2481 53.486C39.2685 53.4233 39.2897 53.3609 39.3117 53.2988C39.3337 53.2367 39.3564 53.1749 39.3799 53.1133C39.4034 53.0517 39.4276 52.9905 39.4527 52.9296C39.4777 52.8686 39.5034 52.8079 39.5299 52.7476C39.5564 52.6872 39.5837 52.6272 39.6117 52.5676C39.6396 52.5079 39.6683 52.4486 39.6977 52.3897C39.7272 52.3307 39.7573 52.2722 39.7882 52.214C39.8191 52.1557 39.8507 52.0979 39.883 52.0405C39.9154 51.9831 39.9484 51.926 39.982 51.8694C40.0158 51.8128 40.0502 51.7566 40.0853 51.7008C40.1203 51.6451 40.1561 51.5897 40.1926 51.5348C40.229 51.4799 40.2662 51.4255 40.304 51.3715C40.3418 51.3176 40.3802 51.2641 40.4193 51.2111C40.4585 51.158 40.4983 51.1055 40.5387 51.0534C40.5791 51.0014 40.6201 50.9498 40.6618 50.8988C42.0347 49.2144 44.0672 48.2854 46.204 48.0707Z" fill="url(#paint2_linear_2023_415)"/>
<path d="M46.4707 48.6175C48.2893 48.4339 50.3262 49.1531 51.7269 50.2991C53.2325 51.5309 54.211 53.4237 54.3893 55.3578C54.3955 55.4196 54.4009 55.4814 54.4055 55.5432C54.4102 55.6051 54.4141 55.667 54.4172 55.729C54.4203 55.7909 54.4227 55.8529 54.4243 55.9149C54.4258 55.977 54.4267 56.0391 54.4267 56.1011C54.4268 56.1631 54.426 56.2252 54.4245 56.2872C54.4231 56.3493 54.4208 56.4112 54.4178 56.4732C54.4148 56.5352 54.411 56.5971 54.4064 56.659C54.4019 56.7209 54.3965 56.7827 54.3905 56.8444C54.3844 56.9062 54.3775 56.9678 54.3699 57.0294C54.3623 57.091 54.3539 57.1525 54.3448 57.2138C54.3356 57.2752 54.3257 57.3364 54.3151 57.3975C54.3044 57.4587 54.293 57.5197 54.2808 57.5805C54.2687 57.6414 54.2557 57.702 54.2421 57.7626C54.2284 57.8231 54.214 57.8834 54.1988 57.9436C54.1837 58.0037 54.1678 58.0637 54.1511 58.1235C54.1345 58.1832 54.1171 58.2428 54.0989 58.3021C54.0808 58.3615 54.062 58.4206 54.0424 58.4795C54.0228 58.5383 54.0025 58.597 53.9814 58.6553C53.9604 58.7137 53.9386 58.7718 53.9161 58.8297C53.8937 58.8874 53.8705 58.945 53.8465 59.0023C53.8227 59.0595 53.7981 59.1164 53.7727 59.1731C53.7474 59.2297 53.7214 59.2861 53.6947 59.3421C53.668 59.3981 53.6406 59.4538 53.6125 59.5091C53.5844 59.5644 53.5556 59.6194 53.5261 59.674C53.4967 59.7286 53.4666 59.7828 53.4358 59.8367C53.405 59.8905 53.3735 59.944 53.3414 59.9971C53.3093 60.0502 53.2765 60.1029 53.2431 60.1551C53.2097 60.2074 53.1756 60.2592 53.1409 60.3107C53.1061 60.3621 53.0708 60.4131 53.0348 60.4637C52.9988 60.5142 52.9623 60.5643 52.9251 60.6139C52.8878 60.6636 52.85 60.7128 52.8116 60.7615C52.7732 60.8102 52.7341 60.8584 52.6945 60.9061C51.3849 62.4731 49.544 63.3957 47.5183 63.5724C47.4585 63.5766 47.3987 63.5802 47.3389 63.583C47.279 63.5859 47.2191 63.588 47.1592 63.5895C47.0992 63.5909 47.0393 63.5915 46.9794 63.5915C46.9194 63.5915 46.8595 63.5908 46.7996 63.5893C46.7397 63.5879 46.6798 63.5857 46.6199 63.5828C46.5601 63.5799 46.5003 63.5764 46.4405 63.572C46.3807 63.5677 46.321 63.5627 46.2613 63.5569C46.2017 63.5512 46.1421 63.5447 46.0826 63.5376C46.0231 63.5304 45.9637 63.5225 45.9044 63.5139C45.8451 63.5053 45.7859 63.496 45.7268 63.486C45.6676 63.476 45.6087 63.4653 45.5498 63.4538C45.491 63.4424 45.4323 63.4303 45.3738 63.4175C45.3153 63.4047 45.2569 63.3911 45.1987 63.3769C45.1404 63.3627 45.0824 63.3478 45.0245 63.3321C44.9667 63.3166 44.909 63.3003 44.8515 63.2833C44.794 63.2663 44.7368 63.2486 44.6797 63.2302C44.6226 63.2119 44.5658 63.1928 44.5092 63.1731C44.4527 63.1534 44.3963 63.133 44.3402 63.112C44.2841 63.0909 44.2282 63.0691 44.1726 63.0467C44.1171 63.0243 44.0617 63.0013 44.0067 62.9776C43.9516 62.9538 43.8969 62.9294 43.8424 62.9044C43.788 62.8793 43.7339 62.8537 43.68 62.8273C43.6262 62.801 43.5727 62.774 43.5195 62.7464C43.4663 62.7188 43.4134 62.6906 43.3609 62.6617C43.3084 62.6328 43.2562 62.6033 43.2044 62.5732C43.1526 62.543 43.1012 62.5123 43.0501 62.4809C42.999 62.4496 42.9483 62.4176 42.898 62.3851C42.8477 62.3525 42.7978 62.3193 42.7483 62.2856C42.6987 62.2518 42.6496 62.2175 42.6009 62.1825C42.5522 62.1476 42.504 62.1121 42.4561 62.076C42.4083 62.0399 42.3609 62.0032 42.3139 61.966C42.2669 61.9288 42.2204 61.891 42.1743 61.8526C42.1269 61.8131 42.08 61.773 42.0336 61.7323C41.9872 61.6916 41.9414 61.6503 41.896 61.6085C41.8506 61.5667 41.8058 61.5243 41.7614 61.4814C41.7171 61.4385 41.6733 61.395 41.63 61.351C41.5867 61.307 41.544 61.2625 41.5018 61.2174C41.4596 61.1724 41.418 61.1268 41.3769 61.0807C41.3358 61.0347 41.2954 60.9881 41.2554 60.941C41.2155 60.894 41.1761 60.8464 41.1374 60.7984C41.0986 60.7504 41.0604 60.7019 41.0229 60.6529C40.9853 60.6039 40.9484 60.5545 40.912 60.5047C40.8756 60.4548 40.8399 60.4045 40.8047 60.3537C40.7697 60.303 40.7352 60.2518 40.7012 60.2002C40.6674 60.1486 40.6342 60.0966 40.6016 60.0442C40.569 59.9918 40.537 59.939 40.5057 59.8858C40.4744 59.8326 40.4438 59.7791 40.4139 59.7251C40.3839 59.6711 40.3545 59.6168 40.3259 59.5622C40.2972 59.5075 40.2692 59.4525 40.2419 59.3972C40.2146 59.3418 40.188 59.2861 40.1621 59.2302C40.1362 59.1742 40.1109 59.1178 40.0864 59.0612C40.0618 59.0046 40.0379 58.9477 40.0148 58.8904C39.9916 58.8332 39.9692 58.7758 39.9474 58.718C39.9257 58.6602 39.9047 58.6022 39.8844 58.544C39.864 58.4857 39.8444 58.4272 39.8255 58.3684C39.8066 58.3096 39.7884 58.2507 39.771 58.1915C39.7536 58.1323 39.7368 58.0728 39.7208 58.0132C39.7048 57.9536 39.6896 57.8938 39.6751 57.8339C39.6606 57.7739 39.6468 57.7137 39.6337 57.6534C39.6207 57.5931 39.6084 57.5326 39.5968 57.472C39.5853 57.4114 39.5745 57.3506 39.5644 57.2897C39.5544 57.2288 39.545 57.1678 39.5365 57.1067C39.5279 57.0456 39.5201 56.9844 39.513 56.923C39.5059 56.8617 39.4996 56.8004 39.494 56.7389C39.3215 54.7965 39.8846 52.7797 41.1523 51.2818C42.5467 49.634 44.3281 48.7942 46.4707 48.6175Z" fill="#FAFCFF"/>
<path d="M46.7785 53.5027C47.4546 53.4487 48.1087 53.5846 48.6736 53.9707C48.7112 53.9962 48.7482 54.0227 48.7845 54.05C48.8208 54.0774 48.8564 54.1057 48.8913 54.1349C48.9262 54.164 48.9603 54.194 48.9938 54.2248C49.0272 54.2557 49.0598 54.2873 49.0917 54.3198C49.1235 54.3523 49.1545 54.3855 49.1847 54.4195C49.2149 54.4535 49.2442 54.4882 49.2727 54.5237C49.3012 54.5591 49.3288 54.5953 49.3554 54.6321C49.3821 54.6689 49.4079 54.7064 49.4327 54.7446C49.4575 54.7827 49.4814 54.8214 49.5042 54.8606C49.5271 54.8999 49.549 54.9398 49.5699 54.9801C49.5908 55.0205 49.6108 55.0614 49.6297 55.1028C49.6485 55.1441 49.6664 55.1859 49.6832 55.2281C49.7 55.2704 49.7158 55.313 49.7305 55.3561C49.7452 55.3991 49.7589 55.4425 49.7714 55.4862C49.7839 55.5299 49.7954 55.5739 49.8058 55.6182C49.8161 55.6624 49.8254 55.7069 49.8335 55.7517C49.9644 56.4771 49.7753 57.2474 49.3476 57.8446C48.8788 58.4993 48.1965 58.8329 47.4157 58.9578C46.6251 58.9936 45.9739 58.8951 45.3258 58.4084C44.7315 57.962 44.3298 57.332 44.2324 56.5899C44.1407 55.8907 44.3255 55.1488 44.7584 54.589C45.2556 53.9461 45.9856 53.6089 46.7785 53.5027Z" fill="url(#paint3_linear_2023_415)"/>
<path d="M46.941 54.05C47.0064 54.0461 47.0718 54.045 47.1373 54.0466C47.2028 54.0482 47.268 54.0526 47.3331 54.0598C47.3982 54.067 47.4629 54.0769 47.5272 54.0896C47.5915 54.1022 47.655 54.1176 47.718 54.1356C47.7809 54.1537 47.843 54.1744 47.9042 54.1977C47.9654 54.221 48.0255 54.2469 48.0845 54.2754C48.1435 54.3038 48.2012 54.3347 48.2575 54.368C48.3139 54.4013 48.3688 54.437 48.4222 54.475C48.8973 54.814 49.1841 55.3109 49.2741 55.8831C49.2796 55.9186 49.2843 55.9542 49.288 55.9899C49.2917 56.0257 49.2946 56.0615 49.2965 56.0974C49.2985 56.1333 49.2995 56.1692 49.2997 56.2051C49.2999 56.241 49.2991 56.2769 49.2975 56.3128C49.2959 56.3487 49.2934 56.3846 49.29 56.4203C49.2866 56.4561 49.2822 56.4918 49.2771 56.5273C49.2719 56.5629 49.2658 56.5983 49.2589 56.6335C49.2519 56.6688 49.2441 56.7038 49.2354 56.7387C49.2267 56.7735 49.2171 56.8082 49.2067 56.8426C49.1963 56.877 49.1851 56.911 49.1729 56.9449C49.1608 56.9787 49.1479 57.0122 49.134 57.0454C49.1203 57.0786 49.1057 57.1114 49.0903 57.1439C49.0748 57.1763 49.0586 57.2083 49.0416 57.24C49.0246 57.2716 49.0068 57.3028 48.9882 57.3335C48.9696 57.3643 48.9503 57.3946 48.9302 57.4244C48.9101 57.4542 48.8893 57.4835 48.8678 57.5122C48.4602 58.0647 47.8885 58.3068 47.2283 58.4114C46.6579 58.4291 46.1022 58.2897 45.6465 57.9356C45.6179 57.9135 45.5898 57.8907 45.5623 57.8672C45.5348 57.8438 45.5079 57.8196 45.4815 57.7948C45.4552 57.77 45.4295 57.7445 45.4044 57.7185C45.3794 57.6924 45.355 57.6658 45.3312 57.6385C45.3074 57.6112 45.2843 57.5834 45.262 57.555C45.2396 57.5266 45.2179 57.4976 45.1969 57.4681C45.1759 57.4387 45.1557 57.4088 45.1362 57.3783C45.1167 57.3478 45.098 57.3169 45.08 57.2856C45.062 57.2542 45.0448 57.2224 45.0284 57.1901C45.012 57.1579 44.9964 57.1253 44.9816 57.0923C44.9667 57.0593 44.9528 57.026 44.9396 56.9923C44.9264 56.9586 44.914 56.9246 44.9025 56.8903C44.891 56.856 44.8804 56.8215 44.8705 56.7867C44.8607 56.7519 44.8518 56.7168 44.8437 56.6815C44.8356 56.6463 44.8284 56.6109 44.8221 56.5753C44.8157 56.5397 44.8103 56.5039 44.8057 56.4681C44.737 55.909 44.9132 55.3318 45.2639 54.8933C45.6867 54.3648 46.284 54.1235 46.941 54.05Z" fill="#FAFCFF"/>
<path d="M8.91135 19.7419C9.04232 19.832 9.13687 19.9973 9.2582 20.1054C9.64423 20.4495 10.223 20.6416 10.7227 20.735C11.7036 20.9183 12.969 20.8189 13.9908 20.8181L18.9888 20.841L44.7518 20.8321L50.8633 20.8272L52.7699 20.813C53.1776 20.8101 53.6113 20.779 54.014 20.8435C54.666 20.9479 55.3439 21.3295 55.8108 21.79C56.31 22.2822 56.6548 22.9557 56.7752 23.6462C56.8858 24.2801 56.84 24.9695 56.84 25.6126L56.8388 28.592L56.8294 40.1984C56.4769 40.1817 56.1243 40.1702 55.7714 40.1638C55.7626 39.8234 55.8716 39.1287 55.6875 38.8463C55.6401 38.7737 55.5866 38.7237 55.4985 38.7083C55.4289 38.6961 55.3484 38.7161 55.2982 38.7668C55.0576 39.0101 55.166 39.8414 55.1708 40.1859C54.8427 40.2077 54.5166 40.2471 54.1928 40.3042C53.8689 40.3613 53.5491 40.4358 53.2332 40.5275C50.5013 41.2984 48.1504 43.0604 46.7539 45.5496C46.4053 45.5569 46.0579 45.5805 45.7115 45.6203C45.6243 45.6304 45.5372 45.6416 45.4503 45.6538C45.3634 45.6661 45.2766 45.6794 45.19 45.6938C45.1034 45.7082 45.0169 45.7237 44.9307 45.7402C44.8445 45.7568 44.7585 45.7745 44.6727 45.7932C44.587 45.8118 44.5014 45.8316 44.4161 45.8524C44.3308 45.8732 44.2458 45.8951 44.1611 45.918C44.0763 45.9409 43.9919 45.9649 43.9077 45.9899C43.8236 46.015 43.7398 46.041 43.6562 46.0681C43.5727 46.0952 43.4896 46.1234 43.4068 46.1525C43.324 46.1817 43.2415 46.2119 43.1595 46.2431C43.0774 46.2743 42.9958 46.3066 42.9145 46.3398C42.8333 46.373 42.7525 46.4073 42.6721 46.4426C42.5916 46.4778 42.5117 46.5141 42.4322 46.5513C42.3527 46.5886 42.2736 46.6268 42.1951 46.666C42.1166 46.7052 42.0385 46.7453 41.9609 46.7865C41.8834 46.8276 41.8063 46.8697 41.7298 46.9128C41.6533 46.9559 41.5773 46.9999 41.502 47.0448C41.4265 47.0898 41.3517 47.1356 41.2774 47.1824C41.2031 47.2292 41.1294 47.2769 41.0563 47.3256C40.9832 47.3742 40.9107 47.4237 40.8389 47.4742C40.767 47.5246 40.6958 47.5759 40.6252 47.6281C40.5546 47.6804 40.4847 47.7334 40.4154 47.7873C40.3462 47.8413 40.2776 47.8961 40.2096 47.9517C40.1417 48.0074 40.0745 48.0638 40.008 48.1211C39.9415 48.1785 39.8758 48.2366 39.8107 48.2955C39.7456 48.3545 39.6813 48.4142 39.6177 48.4748C39.5541 48.5353 39.4913 48.5967 39.4293 48.6588C39.3672 48.7208 39.306 48.7837 39.2455 48.8474C39.185 48.911 39.1253 48.9754 39.0664 49.0404C39.0075 49.1056 38.9494 49.1714 38.8921 49.238C38.8349 49.3045 38.7785 49.3718 38.7229 49.4397C38.6673 49.5077 38.6125 49.5763 38.5587 49.6456C38.5064 49.7128 38.4551 49.7806 38.4045 49.849C38.354 49.9174 38.3043 49.9865 38.2554 50.0561C38.2066 50.1258 38.1587 50.196 38.1115 50.2669C38.0645 50.3377 38.0182 50.4091 37.9729 50.4811C37.9276 50.5531 37.8831 50.6256 37.8396 50.6987C37.796 50.7718 37.7534 50.8454 37.7117 50.9196C37.67 50.9937 37.6292 51.0683 37.5893 51.1434C37.5495 51.2186 37.5105 51.2942 37.4725 51.3703C37.4345 51.4464 37.3974 51.523 37.3613 51.6001C37.3252 51.6771 37.2901 51.7545 37.2559 51.8324C37.2217 51.9103 37.1884 51.9886 37.1561 52.0673C37.1239 52.1461 37.0926 52.2252 37.0623 52.3047C37.032 52.3841 37.0027 52.464 36.9744 52.5442C36.946 52.6244 36.9187 52.705 36.8923 52.7858C36.866 52.8667 36.8407 52.9479 36.8163 53.0295C36.792 53.111 36.7687 53.1928 36.7464 53.2749C36.7241 53.357 36.7028 53.4393 36.6825 53.5219C36.6623 53.6046 36.643 53.6874 36.6248 53.7706C36.6066 53.8536 36.5894 53.9369 36.5732 54.0205C36.557 54.104 36.5419 54.1877 36.5279 54.2716C36.5137 54.3555 36.5007 54.4395 36.4887 54.5237C36.4767 54.608 36.4657 54.6923 36.4557 54.7768C36.4458 54.8613 36.4369 54.9459 36.4291 55.0306C36.4212 55.1153 36.4144 55.2001 36.4087 55.285C36.403 55.3698 36.3983 55.4548 36.3946 55.5398C36.391 55.6248 36.3884 55.7098 36.3869 55.7949C36.3853 55.8799 36.3848 55.965 36.3854 56.0501C36.386 56.1351 36.3876 56.2201 36.3902 56.3052C36.3929 56.3902 36.3966 56.4752 36.4014 56.5601C36.4062 56.6451 36.412 56.7299 36.4189 56.8147C36.4257 56.8995 36.4336 56.9842 36.4426 57.0688C36.4516 57.1534 36.4616 57.2379 36.4726 57.3222L35.4871 57.3317C33.5943 57.3467 31.7014 57.348 29.8085 57.3356L20.3465 57.3448L14.9992 57.3522C14.0887 57.3531 13.1254 57.4169 12.2204 57.3265C12.1337 57.3172 12.0474 57.3056 11.9613 57.2917C11.8752 57.2778 11.7896 57.2617 11.7044 57.2432C11.6192 57.2248 11.5345 57.2042 11.4504 57.1813C11.3663 57.1584 11.2828 57.1333 11.2 57.1059C11.1172 57.0787 11.0352 57.0492 10.954 57.0176C10.8727 56.9859 10.7924 56.9522 10.713 56.9163C10.6335 56.8804 10.555 56.8424 10.4776 56.8024C10.4002 56.7623 10.3238 56.7203 10.2486 56.6762C9.41352 56.183 8.94307 55.5665 8.69984 54.6324C9.23353 55.0605 10.4187 55.8217 11.1048 55.8719C11.2047 55.8792 11.2889 55.8686 11.3656 55.7978C11.4227 55.745 11.4456 55.6554 11.4427 55.5791C11.4419 55.558 11.4404 55.5364 11.4343 55.5161C11.3711 55.3066 10.9705 55.2311 10.7843 55.1605C9.95103 54.8442 9.31508 54.4055 8.67605 53.792L8.67975 43.9158C9.56028 43.9282 10.4693 44.0581 11.3483 44.1343L15.7615 44.4971C16.8659 44.593 18.0403 44.79 19.1415 44.6179C19.2546 44.6 19.3668 44.5784 19.4783 44.5529C19.5899 44.5274 19.7004 44.4982 19.81 44.4651C19.9195 44.4321 20.0278 44.3953 20.1348 44.3549C20.2418 44.3144 20.3474 44.2703 20.4514 44.2227C20.5554 44.175 20.6576 44.1238 20.7581 44.0691C20.8586 44.0144 20.9571 43.9564 21.0536 43.895C21.1502 43.8336 21.2445 43.7689 21.3366 43.701C21.4287 43.6332 21.5184 43.5622 21.6056 43.4882C21.6718 43.4329 21.7367 43.3759 21.8001 43.3174C21.8635 43.2589 21.9255 43.1988 21.986 43.1373C22.0464 43.0756 22.1053 43.0126 22.1627 42.9481C22.2201 42.8836 22.2758 42.8177 22.3299 42.7505C22.384 42.6833 22.4365 42.6147 22.4872 42.5449C22.5379 42.475 22.5869 42.404 22.6341 42.3318C22.6813 42.2595 22.7267 42.1861 22.7703 42.1117C22.8139 42.0372 22.8557 41.9617 22.8956 41.8851C22.9354 41.8086 22.9734 41.7311 23.0094 41.6527C23.0455 41.5743 23.0796 41.495 23.1118 41.4149C23.1439 41.3348 23.1741 41.254 23.2022 41.1723C23.2304 41.0908 23.2565 41.0085 23.2806 40.9256C23.3047 40.8428 23.3268 40.7594 23.3468 40.6754C23.3668 40.5914 23.3846 40.507 23.4005 40.4222C23.4163 40.3373 23.4301 40.2521 23.4417 40.1666C23.4533 40.0811 23.4628 39.9953 23.4702 39.9093C23.5857 38.4842 23.163 37.079 22.2228 35.9937C22.144 35.9038 22.0622 35.8167 21.9774 35.7326C21.8926 35.6484 21.805 35.5672 21.7145 35.4891C21.6241 35.411 21.531 35.3361 21.4353 35.2645C21.3396 35.1929 21.2416 35.1246 21.1411 35.0598C21.0407 34.995 20.9382 34.9338 20.8335 34.8761C20.7288 34.8184 20.6222 34.7645 20.5138 34.7142C20.4054 34.664 20.2953 34.6175 20.1837 34.575C20.072 34.5324 19.959 34.4937 19.8446 34.459C18.8347 34.1488 17.0562 34.1289 15.964 34.0421L8.66423 33.471C8.70422 32.2747 8.6723 31.0672 8.67318 29.8695L8.65356 21.3973C8.89535 21.5875 9.14356 21.771 9.40839 21.9281C9.66897 22.0826 10.4996 22.5321 10.8 22.4C10.8776 22.3659 10.9445 22.2644 10.967 22.1857C11.001 22.0667 10.9305 21.9756 10.8355 21.9096C10.6648 21.791 10.4198 21.7228 10.2255 21.6453C9.75757 21.4587 9.07138 21.1363 8.84606 20.6575C8.69656 20.3398 8.80929 20.0512 8.91135 19.7419Z" fill="#FAFCFF"/>
<path d="M26.6559 55.5452C27.0211 55.518 28.4534 55.4557 28.6943 55.6633C28.7561 55.7165 28.7837 55.7814 28.7752 55.8627C28.7639 55.9707 28.6975 56.0449 28.627 56.1203C28.5979 56.127 28.5478 56.1395 28.5156 56.1442C28.1864 56.1918 26.7678 56.2374 26.5603 56.0285C26.5208 55.9888 26.4969 55.9412 26.4953 55.8859C26.4913 55.7389 26.5591 55.6473 26.6559 55.5452Z" fill="url(#paint4_linear_2023_415)"/>
<path d="M55.3632 31.8098C55.5013 31.8141 55.6087 31.81 55.7039 31.9283C55.8159 32.0674 55.7641 33.5705 55.7514 33.8417C55.7415 34.0526 55.7263 34.1623 55.5654 34.3082C55.4482 34.2973 55.3565 34.2921 55.2609 34.2157C55.1162 33.9637 55.1837 33.1338 55.1837 32.8204C55.1836 32.4943 55.1185 32.0547 55.3632 31.8098Z" fill="url(#paint5_linear_2023_415)"/>
<path d="M12.514 55.5566C13.1113 55.552 13.7668 55.4921 14.3577 55.5592C14.5093 55.5764 14.6464 55.6119 14.7446 55.7352C14.76 55.8275 14.7598 55.8522 14.7183 55.9407C14.6684 56.0472 14.5916 56.0805 14.4875 56.121C13.9416 56.1181 13.0614 56.2045 12.5604 56.1105C12.4292 56.0859 12.3318 56.0442 12.2542 55.9324C12.2349 55.8426 12.2393 55.7701 12.2909 55.6918C12.3507 55.6007 12.416 55.5859 12.514 55.5566Z" fill="url(#paint6_linear_2023_415)"/>
<path d="M55.2895 24.944C55.309 24.9426 55.3285 24.9391 55.348 24.9398C55.4391 24.943 55.4804 24.9669 55.5408 25.0343C55.8095 25.3344 55.7763 26.6466 55.7452 27.0746C55.7317 27.2603 55.7036 27.3281 55.5616 27.4527C55.448 27.4478 55.3334 27.4199 55.246 27.3436C55.1985 27.3021 55.1966 27.2682 55.1891 27.206C55.123 26.6559 55.1738 26.0616 55.1194 25.4964C55.1104 25.4038 55.0871 25.2888 55.0964 25.1974C55.1066 25.0976 55.2206 25.0103 55.2895 24.944Z" fill="url(#paint7_linear_2023_415)"/>
<path d="M55.3575 28.2964C55.4857 28.2999 55.5915 28.308 55.6886 28.4006C55.8241 28.7024 55.7562 29.263 55.7564 29.5992C55.7564 29.9644 55.8542 30.6368 55.5866 30.9046C55.4861 30.9009 55.3671 30.8944 55.2864 30.8265C55.1933 30.7484 55.1927 30.6359 55.1863 30.5241C55.1667 30.183 55.1368 28.7396 55.2333 28.4788C55.2613 28.4032 55.3049 28.3557 55.3575 28.2964Z" fill="url(#paint8_linear_2023_415)"/>
<path d="M16.0098 55.5534C16.6128 55.5559 17.2665 55.4916 17.863 55.5615C18.0202 55.5799 18.1658 55.617 18.2683 55.7443C18.2866 55.8063 18.2932 55.8402 18.2731 55.9048C18.2331 56.0335 18.1595 56.0743 18.0458 56.1243C17.5774 56.1271 16.3669 56.2019 15.9748 56.0887C15.8697 56.0584 15.7835 56.0171 15.7281 55.9194C15.7196 55.819 15.7327 55.7707 15.7676 55.6793C15.8452 55.5954 15.9037 55.5798 16.0098 55.5534Z" fill="url(#paint9_linear_2023_415)"/>
<path d="M23.8445 55.5591C24.2672 55.552 24.9077 55.4654 25.2985 55.5993C25.4092 55.6373 25.4506 55.6876 25.4987 55.7906C25.4934 55.8958 25.4843 55.9391 25.425 56.0311C25.1968 56.1791 24.8075 56.1234 24.5398 56.1202C24.1445 56.1244 23.4056 56.2103 23.062 56.057C22.9622 56.0125 22.9004 55.9602 22.8596 55.8562C22.8787 55.7937 22.8764 55.7799 22.9258 55.7312C23.1491 55.5106 23.5559 55.5575 23.8445 55.5591Z" fill="url(#paint10_linear_2023_415)"/>
<path d="M30.0236 55.5436C30.4651 55.5081 31.8861 55.4494 32.2085 55.6753C32.2583 55.7736 32.2672 55.8281 32.2376 55.9382C32.2095 56.0427 32.1466 56.0739 32.0611 56.1269C31.7025 56.1928 30.2374 56.2398 29.9739 56.0561C29.9188 56.0177 29.8807 55.9544 29.8772 55.8876C29.87 55.7451 29.9366 55.6489 30.0236 55.5436Z" fill="url(#paint11_linear_2023_415)"/>
<path d="M19.6116 55.5522C20.0058 55.5423 21.4356 55.4827 21.6977 55.5883C21.7882 55.6248 21.8351 55.6687 21.8764 55.7577C21.8816 55.8415 21.8837 55.9308 21.8387 56.0063C21.7889 56.0898 21.6927 56.096 21.6075 56.1192C21.0953 56.1234 20.0407 56.1964 19.5847 56.1015C19.4557 56.0747 19.3645 56.0329 19.2902 55.9211C19.2768 55.8338 19.2833 55.7856 19.3263 55.7101C19.3908 55.5966 19.4949 55.5817 19.6116 55.5522Z" fill="url(#paint12_linear_2023_415)"/>
<path d="M55.3492 35.2038C55.4942 35.2027 55.578 35.2046 55.6925 35.3074C55.7872 35.4777 55.7936 37.3879 55.7452 37.6521C55.7278 37.7471 55.6251 37.7988 55.5506 37.8487C55.4238 37.8413 55.3441 37.8305 55.2473 37.745C55.0995 37.4763 55.1562 36.0615 55.1762 35.6541C55.1859 35.455 55.1993 35.3409 55.3492 35.2038Z" fill="url(#paint13_linear_2023_415)"/>
<path d="M32.968 22.1179C33.3514 22.081 34.9961 22.0274 35.2732 22.1935C35.3304 22.2279 35.3742 22.2863 35.3818 22.3528C35.3982 22.4975 35.3299 22.5858 35.2408 22.6882C34.8956 22.7333 33.1338 22.7786 32.921 22.5967C32.8507 22.5366 32.8326 22.489 32.8309 22.3971C32.8288 22.2899 32.9031 22.1949 32.968 22.1179Z" fill="url(#paint14_linear_2023_415)"/>
<path d="M46.9802 22.1195C47.4833 22.1163 49.005 21.9895 49.3476 22.2643C49.3848 22.3419 49.398 22.3658 49.3867 22.4542C49.3709 22.5786 49.3075 22.6315 49.2144 22.7005C48.9037 22.7381 48.5718 22.7044 48.2583 22.7054C47.907 22.7064 47.5314 22.7399 47.1829 22.6991C47.0778 22.6868 46.928 22.6583 46.8456 22.5857C46.7811 22.5289 46.7659 22.4658 46.7805 22.3837C46.7993 22.2773 46.902 22.1848 46.9802 22.1195Z" fill="url(#paint15_linear_2023_415)"/>
<path d="M34.8045 55.5257C35.0419 55.5171 35.5535 55.4449 35.7515 55.6012C35.8237 55.6584 35.8588 55.7241 35.8595 55.8173C35.8603 55.9062 35.8299 55.9978 35.7648 56.0602C35.5354 56.2805 34.8492 56.1679 34.5362 56.1584C34.2864 56.154 33.7544 56.2445 33.5523 56.0822C33.4794 56.0235 33.4448 55.959 33.4397 55.8647C33.4352 55.7796 33.4599 55.6928 33.5236 55.6333C33.7393 55.4321 34.5003 55.5276 34.8045 55.5257Z" fill="url(#paint16_linear_2023_415)"/>
<path d="M15.6594 22.0932C15.9847 22.0974 17.7371 22.022 17.8891 22.1848C17.9799 22.282 17.9536 22.4205 17.9378 22.5391C17.8787 22.6299 17.8166 22.6526 17.7214 22.6931C17.4364 22.7102 15.9096 22.7519 15.6907 22.6927C15.5748 22.6613 15.4617 22.5812 15.4137 22.4688C15.3811 22.3924 15.401 22.2966 15.4429 22.2286C15.4944 22.145 15.5727 22.1207 15.6594 22.0932Z" fill="url(#paint17_linear_2023_415)"/>
<path d="M36.3621 22.1226C36.6974 22.0829 38.4641 22.0388 38.6863 22.1438C38.7529 22.1753 38.8062 22.2524 38.8182 22.324C38.8408 22.4592 38.7847 22.5809 38.7164 22.6922C38.3472 22.7194 36.554 22.7909 36.3373 22.6059C36.272 22.5502 36.2362 22.4991 36.2351 22.4114C36.2339 22.3055 36.2978 22.2006 36.3621 22.1226Z" fill="url(#paint18_linear_2023_415)"/>
<path d="M22.5081 22.1128C22.9189 22.0896 24.6513 22.0046 24.9142 22.2192C24.9707 22.2652 25.0021 22.3319 24.9941 22.4053C24.9828 22.5097 24.9166 22.5788 24.8478 22.6503C24.5027 22.7397 22.7336 22.768 22.4827 22.6161C22.4255 22.5816 22.3832 22.5244 22.3746 22.4579C22.3557 22.3115 22.4218 22.2205 22.5081 22.1128Z" fill="url(#paint19_linear_2023_415)"/>
<path d="M29.5091 22.1158C29.9052 22.0903 31.703 22.0061 31.9467 22.2499C32.0101 22.3132 32.0071 22.3458 32.0015 22.4266C31.935 22.5365 31.8811 22.6124 31.78 22.6927C31.3656 22.7214 29.7974 22.7932 29.4935 22.6198C29.4326 22.5851 29.3883 22.5317 29.3778 22.4622C29.3558 22.3174 29.4282 22.2258 29.5091 22.1158Z" fill="url(#paint20_linear_2023_415)"/>
<path d="M26.0182 22.1175C26.4113 22.1108 28.1813 22.0019 28.4162 22.224C28.4524 22.2582 28.4826 22.3091 28.4839 22.3595C28.4878 22.498 28.397 22.604 28.3072 22.6982C27.9035 22.7004 26.1746 22.8193 25.9287 22.5836C25.8917 22.5483 25.8615 22.4991 25.8587 22.4476C25.8511 22.3093 25.9299 22.2133 26.0182 22.1175Z" fill="url(#paint21_linear_2023_415)"/>
<path d="M53.4178 22.4152C53.7928 22.4277 54.1937 22.7506 54.4632 22.9953C54.7516 23.2571 55.2131 23.7361 55.2162 24.1481C55.2173 24.2921 55.1567 24.3689 55.0601 24.4639C54.9698 24.4488 54.8907 24.4445 54.8153 24.3886C54.617 24.2418 54.364 23.7485 54.1536 23.5261C53.9052 23.2636 53.6455 23.1588 53.3672 22.9512C53.2911 22.8944 53.2157 22.8141 53.2153 22.713C53.2149 22.5828 53.3302 22.4943 53.4178 22.4152Z" fill="url(#paint22_linear_2023_415)"/>
<path d="M43.3928 22.1171C44.0755 22.1102 44.7953 22.0623 45.4738 22.1169C45.6014 22.1273 45.7352 22.1398 45.8094 22.2597C45.8546 22.3325 45.86 22.4595 45.8335 22.5417C45.8005 22.6439 45.7763 22.6539 45.6897 22.7092C45.3281 22.7237 43.4853 22.7929 43.2794 22.5867C43.2156 22.5229 43.1997 22.4745 43.2108 22.3853C43.2245 22.2763 43.3163 22.1867 43.3928 22.1171Z" fill="url(#paint23_linear_2023_415)"/>
<path d="M39.8499 22.1132C40.2736 22.0941 41.9359 22.0256 42.2162 22.1999C42.2883 22.2448 42.3345 22.3111 42.339 22.3981C42.3448 22.5078 42.2766 22.5995 42.2161 22.6835C41.8555 22.7403 40.1106 22.7622 39.8157 22.6499C39.7725 22.5965 39.7377 22.5577 39.727 22.4867C39.7053 22.3415 39.7726 22.2288 39.8499 22.1132Z" fill="url(#paint24_linear_2023_415)"/>
<path d="M50.4639 22.1195C50.9799 22.1046 52.1104 22.0598 52.5608 22.1364C52.6938 22.1591 52.797 22.1967 52.9032 22.2794C52.9438 22.3641 52.965 22.4273 52.9318 22.5217C52.8974 22.6194 52.8007 22.6627 52.7161 22.7096C52.688 22.7132 52.6599 22.7174 52.6316 22.7195C52.2994 22.7437 50.9848 22.7563 50.6783 22.7133C50.5707 22.6982 50.3922 22.6575 50.3168 22.571C50.2852 22.5347 50.2664 22.4896 50.269 22.4418C50.2766 22.3006 50.3632 22.208 50.4639 22.1195Z" fill="url(#paint25_linear_2023_415)"/>
<path d="M19.0487 22.0841C19.4339 22.0826 21.1871 22.0002 21.3963 22.2028C21.4715 22.2757 21.4678 22.3083 21.4746 22.4067C21.4247 22.527 21.3883 22.6056 21.2909 22.6937C20.7596 22.702 19.7024 22.7766 19.235 22.6921C19.1023 22.6681 19.0067 22.6252 18.9063 22.5367C18.8642 22.4571 18.8533 22.4093 18.8687 22.322C18.8909 22.1971 18.9529 22.1532 19.0487 22.0841Z" fill="url(#paint26_linear_2023_415)"/>
<path d="M13.7419 22.0976C13.9201 22.094 14.2258 22.0506 14.3826 22.1435C14.4544 22.186 14.504 22.2643 14.514 22.3468C14.5153 22.3573 14.516 22.3679 14.5161 22.3786C14.5162 22.3893 14.5157 22.3999 14.5146 22.4105C14.5136 22.4211 14.5119 22.4316 14.5097 22.442C14.5075 22.4525 14.5047 22.4628 14.5014 22.4729C14.498 22.483 14.4941 22.4929 14.4897 22.5026C14.4853 22.5123 14.4803 22.5217 14.4748 22.5308C14.4694 22.54 14.4634 22.5488 14.4569 22.5573C14.4505 22.5658 14.4436 22.5739 14.4363 22.5816C14.2424 22.7874 12.8194 22.6977 12.5012 22.696C12.2876 22.6998 12.0803 22.7272 11.8967 22.5952C11.8089 22.5321 11.7704 22.4692 11.752 22.3612C11.7641 22.3084 11.7732 22.2655 11.8138 22.2256C12.027 22.0164 13.4088 22.0981 13.7419 22.0976Z" fill="url(#paint27_linear_2023_415)"/>
<defs>
<linearGradient id="paint0_linear_2023_415" x1="34.9374" y1="3.35181" x2="34.9374" y2="66.6208" gradientUnits="userSpaceOnUse">
<stop stop-color="#085DA9"/>
<stop offset="0.2" stop-color="#6C5B97"/>
<stop offset="0.4" stop-color="#995685"/>
<stop offset="0.6" stop-color="#BE4F73"/>
<stop offset="0.8" stop-color="#E04461"/>
<stop offset="1" stop-color="#FF314F"/>
</linearGradient>
<linearGradient id="paint1_linear_2023_415" x1="17.0537" y1="36.9247" x2="17.0537" y2="41.5787" gradientUnits="userSpaceOnUse">
<stop stop-color="#085DA9"/>
<stop offset="0.2" stop-color="#6C5B97"/>
<stop offset="0.4" stop-color="#995685"/>
<stop offset="0.6" stop-color="#BE4F73"/>
<stop offset="0.8" stop-color="#E04461"/>
<stop offset="1" stop-color="#FF314F"/>
</linearGradient>
<linearGradient id="paint2_linear_2023_415" x1="46.9431" y1="48.0391" x2="46.9431" y2="64.1753" gradientUnits="userSpaceOnUse">
<stop stop-color="#085DA9"/>
<stop offset="0.2" stop-color="#6C5B97"/>
<stop offset="0.4" stop-color="#995685"/>
<stop offset="0.6" stop-color="#BE4F73"/>
<stop offset="0.8" stop-color="#E04461"/>
<stop offset="1" stop-color="#FF314F"/>
</linearGradient>
<linearGradient id="paint3_linear_2023_415" x1="47.0419" y1="53.4913" x2="47.0419" y2="58.9644" gradientUnits="userSpaceOnUse">
<stop stop-color="#085DA9"/>
<stop offset="0.2" stop-color="#6C5B97"/>
<stop offset="0.4" stop-color="#995685"/>
<stop offset="0.6" stop-color="#BE4F73"/>
<stop offset="0.8" stop-color="#E04461"/>
<stop offset="1" stop-color="#FF314F"/>
</linearGradient>
<linearGradient id="paint4_linear_2023_415" x1="27.6359" y1="55.5149" x2="27.6359" y2="56.1844" gradientUnits="userSpaceOnUse">
<stop stop-color="#085DA9"/>
<stop offset="0.2" stop-color="#6C5B97"/>
<stop offset="0.4" stop-color="#995685"/>
<stop offset="0.6" stop-color="#BE4F73"/>
<stop offset="0.8" stop-color="#E04461"/>
<stop offset="1" stop-color="#FF314F"/>
</linearGradient>
<linearGradient id="paint5_linear_2023_415" x1="55.4712" y1="31.8098" x2="55.4712" y2="34.3082" gradientUnits="userSpaceOnUse">
<stop stop-color="#085DA9"/>
<stop offset="0.2" stop-color="#6C5B97"/>
<stop offset="0.4" stop-color="#995685"/>
<stop offset="0.6" stop-color="#BE4F73"/>
<stop offset="0.8" stop-color="#E04461"/>
<stop offset="1" stop-color="#FF314F"/>
</linearGradient>
<linearGradient id="paint6_linear_2023_415" x1="13.4988" y1="55.5276" x2="13.4988" y2="56.1545" gradientUnits="userSpaceOnUse">
<stop stop-color="#085DA9"/>
<stop offset="0.2" stop-color="#6C5B97"/>
<stop offset="0.4" stop-color="#995685"/>
<stop offset="0.6" stop-color="#BE4F73"/>
<stop offset="0.8" stop-color="#E04461"/>
<stop offset="1" stop-color="#FF314F"/>
</linearGradient>
<linearGradient id="paint7_linear_2023_415" x1="55.43" y1="24.9397" x2="55.43" y2="27.4527" gradientUnits="userSpaceOnUse">
<stop stop-color="#085DA9"/>
<stop offset="0.2" stop-color="#6C5B97"/>
<stop offset="0.4" stop-color="#995685"/>
<stop offset="0.6" stop-color="#BE4F73"/>
<stop offset="0.8" stop-color="#E04461"/>
<stop offset="1" stop-color="#FF314F"/>
</linearGradient>
<linearGradient id="paint8_linear_2023_415" x1="55.4699" y1="28.2964" x2="55.4699" y2="30.9046" gradientUnits="userSpaceOnUse">
<stop stop-color="#085DA9"/>
<stop offset="0.2" stop-color="#6C5B97"/>
<stop offset="0.4" stop-color="#995685"/>
<stop offset="0.6" stop-color="#BE4F73"/>
<stop offset="0.8" stop-color="#E04461"/>
<stop offset="1" stop-color="#FF314F"/>
</linearGradient>
<linearGradient id="paint9_linear_2023_415" x1="17.0055" y1="55.5288" x2="17.0055" y2="56.1512" gradientUnits="userSpaceOnUse">
<stop stop-color="#085DA9"/>
<stop offset="0.2" stop-color="#6C5B97"/>
<stop offset="0.4" stop-color="#995685"/>
<stop offset="0.6" stop-color="#BE4F73"/>
<stop offset="0.8" stop-color="#E04461"/>
<stop offset="1" stop-color="#FF314F"/>
</linearGradient>
<linearGradient id="paint10_linear_2023_415" x1="24.1792" y1="55.525" x2="24.1792" y2="56.148" gradientUnits="userSpaceOnUse">
<stop stop-color="#085DA9"/>
<stop offset="0.2" stop-color="#6C5B97"/>
<stop offset="0.4" stop-color="#995685"/>
<stop offset="0.6" stop-color="#BE4F73"/>
<stop offset="0.8" stop-color="#E04461"/>
<stop offset="1" stop-color="#FF314F"/>
</linearGradient>
<linearGradient id="paint11_linear_2023_415" x1="31.0656" y1="55.5094" x2="31.0656" y2="56.1853" gradientUnits="userSpaceOnUse">
<stop stop-color="#085DA9"/>
<stop offset="0.2" stop-color="#6C5B97"/>
<stop offset="0.4" stop-color="#995685"/>
<stop offset="0.6" stop-color="#BE4F73"/>
<stop offset="0.8" stop-color="#E04461"/>
<stop offset="1" stop-color="#FF314F"/>
</linearGradient>
<linearGradient id="paint12_linear_2023_415" x1="20.5815" y1="55.5265" x2="20.5815" y2="56.15" gradientUnits="userSpaceOnUse">
<stop stop-color="#085DA9"/>
<stop offset="0.2" stop-color="#6C5B97"/>
<stop offset="0.4" stop-color="#995685"/>
<stop offset="0.6" stop-color="#BE4F73"/>
<stop offset="0.8" stop-color="#E04461"/>
<stop offset="1" stop-color="#FF314F"/>
</linearGradient>
<linearGradient id="paint13_linear_2023_415" x1="55.4618" y1="35.2036" x2="55.4618" y2="37.8487" gradientUnits="userSpaceOnUse">
<stop stop-color="#085DA9"/>
<stop offset="0.2" stop-color="#6C5B97"/>
<stop offset="0.4" stop-color="#995685"/>
<stop offset="0.6" stop-color="#BE4F73"/>
<stop offset="0.8" stop-color="#E04461"/>
<stop offset="1" stop-color="#FF314F"/>
</linearGradient>
<linearGradient id="paint14_linear_2023_415" x1="34.1075" y1="22.0793" x2="34.1075" y2="22.7285" gradientUnits="userSpaceOnUse">
<stop stop-color="#085DA9"/>
<stop offset="0.2" stop-color="#6C5B97"/>
<stop offset="0.4" stop-color="#995685"/>
<stop offset="0.6" stop-color="#BE4F73"/>
<stop offset="0.8" stop-color="#E04461"/>
<stop offset="1" stop-color="#FF314F"/>
</linearGradient>
<linearGradient id="paint15_linear_2023_415" x1="48.083" y1="22.0875" x2="48.083" y2="22.7193" gradientUnits="userSpaceOnUse">
<stop stop-color="#085DA9"/>
<stop offset="0.2" stop-color="#6C5B97"/>
<stop offset="0.4" stop-color="#995685"/>
<stop offset="0.6" stop-color="#BE4F73"/>
<stop offset="0.8" stop-color="#E04461"/>
<stop offset="1" stop-color="#FF314F"/>
</linearGradient>
<linearGradient id="paint16_linear_2023_415" x1="34.6494" y1="55.5016" x2="34.6494" y2="56.1956" gradientUnits="userSpaceOnUse">
<stop stop-color="#085DA9"/>
<stop offset="0.2" stop-color="#6C5B97"/>
<stop offset="0.4" stop-color="#995685"/>
<stop offset="0.6" stop-color="#BE4F73"/>
<stop offset="0.8" stop-color="#E04461"/>
<stop offset="1" stop-color="#FF314F"/>
</linearGradient>
<linearGradient id="paint17_linear_2023_415" x1="16.6757" y1="22.0793" x2="16.6757" y2="22.7233" gradientUnits="userSpaceOnUse">
<stop stop-color="#085DA9"/>
<stop offset="0.2" stop-color="#6C5B97"/>
<stop offset="0.4" stop-color="#995685"/>
<stop offset="0.6" stop-color="#BE4F73"/>
<stop offset="0.8" stop-color="#E04461"/>
<stop offset="1" stop-color="#FF314F"/>
</linearGradient>
<linearGradient id="paint18_linear_2023_415" x1="37.5292" y1="22.0786" x2="37.5292" y2="22.7287" gradientUnits="userSpaceOnUse">
<stop stop-color="#085DA9"/>
<stop offset="0.2" stop-color="#6C5B97"/>
<stop offset="0.4" stop-color="#995685"/>
<stop offset="0.6" stop-color="#BE4F73"/>
<stop offset="0.8" stop-color="#E04461"/>
<stop offset="1" stop-color="#FF314F"/>
</linearGradient>
<linearGradient id="paint19_linear_2023_415" x1="23.6833" y1="22.0767" x2="23.6833" y2="22.7237" gradientUnits="userSpaceOnUse">
<stop stop-color="#085DA9"/>
<stop offset="0.2" stop-color="#6C5B97"/>
<stop offset="0.4" stop-color="#995685"/>
<stop offset="0.6" stop-color="#BE4F73"/>
<stop offset="0.8" stop-color="#E04461"/>
<stop offset="1" stop-color="#FF314F"/>
</linearGradient>
<linearGradient id="paint20_linear_2023_415" x1="30.689" y1="22.0809" x2="30.689" y2="22.7321" gradientUnits="userSpaceOnUse">
<stop stop-color="#085DA9"/>
<stop offset="0.2" stop-color="#6C5B97"/>
<stop offset="0.4" stop-color="#995685"/>
<stop offset="0.6" stop-color="#BE4F73"/>
<stop offset="0.8" stop-color="#E04461"/>
<stop offset="1" stop-color="#FF314F"/>
</linearGradient>
<linearGradient id="paint21_linear_2023_415" x1="27.1711" y1="22.085" x2="27.1711" y2="22.7301" gradientUnits="userSpaceOnUse">
<stop stop-color="#085DA9"/>
<stop offset="0.2" stop-color="#6C5B97"/>
<stop offset="0.4" stop-color="#995685"/>
<stop offset="0.6" stop-color="#BE4F73"/>
<stop offset="0.8" stop-color="#E04461"/>
<stop offset="1" stop-color="#FF314F"/>
</linearGradient>
<linearGradient id="paint22_linear_2023_415" x1="54.2158" y1="22.4152" x2="54.2158" y2="24.4639" gradientUnits="userSpaceOnUse">
<stop stop-color="#085DA9"/>
<stop offset="0.2" stop-color="#6C5B97"/>
<stop offset="0.4" stop-color="#995685"/>
<stop offset="0.6" stop-color="#BE4F73"/>
<stop offset="0.8" stop-color="#E04461"/>
<stop offset="1" stop-color="#FF314F"/>
</linearGradient>
<linearGradient id="paint23_linear_2023_415" x1="44.5285" y1="22.0911" x2="44.5285" y2="22.732" gradientUnits="userSpaceOnUse">
<stop stop-color="#085DA9"/>
<stop offset="0.2" stop-color="#6C5B97"/>
<stop offset="0.4" stop-color="#995685"/>
<stop offset="0.6" stop-color="#BE4F73"/>
<stop offset="0.8" stop-color="#E04461"/>
<stop offset="1" stop-color="#FF314F"/>
</linearGradient>
<linearGradient id="paint24_linear_2023_415" x1="41.0311" y1="22.0839" x2="41.0311" y2="22.7302" gradientUnits="userSpaceOnUse">
<stop stop-color="#085DA9"/>
<stop offset="0.2" stop-color="#6C5B97"/>
<stop offset="0.4" stop-color="#995685"/>
<stop offset="0.6" stop-color="#BE4F73"/>
<stop offset="0.8" stop-color="#E04461"/>
<stop offset="1" stop-color="#FF314F"/>
</linearGradient>
<linearGradient id="paint25_linear_2023_415" x1="51.6085" y1="22.0929" x2="51.6085" y2="22.7417" gradientUnits="userSpaceOnUse">
<stop stop-color="#085DA9"/>
<stop offset="0.2" stop-color="#6C5B97"/>
<stop offset="0.4" stop-color="#995685"/>
<stop offset="0.6" stop-color="#BE4F73"/>
<stop offset="0.8" stop-color="#E04461"/>
<stop offset="1" stop-color="#FF314F"/>
</linearGradient>
<linearGradient id="paint26_linear_2023_415" x1="20.1683" y1="22.0663" x2="20.1683" y2="22.732" gradientUnits="userSpaceOnUse">
<stop stop-color="#085DA9"/>
<stop offset="0.2" stop-color="#6C5B97"/>
<stop offset="0.4" stop-color="#995685"/>
<stop offset="0.6" stop-color="#BE4F73"/>
<stop offset="0.8" stop-color="#E04461"/>
<stop offset="1" stop-color="#FF314F"/>
</linearGradient>
<linearGradient id="paint27_linear_2023_415" x1="13.134" y1="22.0823" x2="13.134" y2="22.7169" gradientUnits="userSpaceOnUse">
<stop stop-color="#085DA9"/>
<stop offset="0.2" stop-color="#6C5B97"/>
<stop offset="0.4" stop-color="#995685"/>
<stop offset="0.6" stop-color="#BE4F73"/>
<stop offset="0.8" stop-color="#E04461"/>
<stop offset="1" stop-color="#FF314F"/>
</linearGradient>
</defs>
</svg>
