<svg width="70" height="70" viewBox="0 0 70 70" fill="none" xmlns="http://www.w3.org/2000/svg">
<path d="M34.624 2.49693C34.7066 2.49152 34.7912 2.48615 34.874 2.49108C35.1943 2.51014 38.8151 4.29238 39.2892 4.51389L52.9727 10.9278L62.2598 15.2742C63.6505 15.927 65.0591 16.5528 66.437 17.232C66.6229 17.3236 66.8494 17.4213 66.993 17.5742C67.1416 18.0355 67.0617 19.9504 67.0614 20.5396L67.0553 25.6617L67.0531 37.7915C67.0494 39.5547 67.0898 41.33 67.0453 43.092C67.0409 43.2624 67.0263 43.4343 66.979 43.5987C66.5903 43.9876 65.9307 44.4113 65.4771 44.7597L61.5847 47.7208L42.1638 62.5871L38.2051 65.5709C37.8051 65.8735 36.7608 66.7762 36.3809 66.9216C36.1074 67.0262 35.8283 66.8687 35.5881 66.7518C34.7488 66.3145 33.8789 65.922 33.0251 65.5134L28.3109 63.244L11.6447 55.1722L5.87561 52.399L4.23136 51.6103C3.82468 51.4151 3.37111 51.2352 3.01587 50.9547C2.89318 50.4235 2.9663 49.4206 2.96618 48.8258L2.96823 44.3351L2.9579 40.9062C2.95579 40.3322 2.89303 39.6966 2.98262 39.1329C3.22956 38.7671 3.56029 38.4299 3.84935 38.0956L5.61665 36.0687L11.0326 29.7307L30.0225 7.67205L32.9127 4.35904C33.3995 3.79775 33.8698 3.18104 34.3912 2.65551C34.461 2.58515 34.5352 2.53965 34.624 2.49693Z" fill="url(#paint0_linear_2023_48)"/>
<path d="M34.903 3.61621C35.235 3.73969 35.5647 3.91692 35.8872 4.06527C36.7023 4.44267 37.5147 4.82586 38.3244 5.21482L44.4385 8.06422L56.2019 13.566C59.4168 15.0446 62.6229 16.5421 65.8202 18.0586C65.3705 18.4462 64.8796 18.7996 64.4118 19.1659L64.2166 19.3161C62.069 18.3852 59.956 17.3606 57.8294 16.3823L43.0286 9.4835C40.7478 8.39608 38.4599 7.32395 36.1647 6.26711C35.325 5.88613 34.5093 5.44522 33.6445 5.1235C34.0466 4.61128 34.4674 4.10022 34.903 3.61621Z" fill="#FAFCFF"/>
<path d="M65.9844 40.0548C66.0544 40.3705 66.0064 40.7906 66.0032 41.1185C65.9929 41.7467 65.991 42.3748 65.9976 43.003C63.4511 45.092 60.7596 47.0156 58.1477 49.0225L41.8521 61.5419C41.3354 61.9382 36.5825 65.6252 36.4967 65.6339C36.477 64.7211 36.4354 63.8105 36.3992 62.8983C36.725 62.6818 37.0299 62.4107 37.339 62.1698L39.4913 60.4755L46.3341 55.1362L65.9844 40.0548Z" fill="#FAFCFF"/>
<path d="M4.02197 47.6504C4.51994 47.8003 5.52419 48.357 6.05289 48.604L12.1153 51.5035L28.1311 59.2675C30.6689 60.5023 33.1818 61.815 35.7526 62.9786C35.8222 63.8924 35.8593 64.8301 35.8621 65.7463C33.8407 64.8102 31.8518 63.8097 29.8462 62.8407L16.5744 56.4132L8.88116 52.7145C7.26105 51.9401 5.59673 51.2047 4.02514 50.3362L4.02197 47.6504Z" fill="#FAFCFF"/>
<path d="M6.36562 36.8008C6.97663 37.1215 7.61428 37.3939 8.23266 37.7009C10.4465 38.8013 12.6695 39.8826 14.9019 40.9448L30.7864 48.6115L35.375 50.7906C36.2634 51.2036 37.1685 51.5838 38.046 52.0198C37.3666 52.8964 36.6792 53.7666 35.9838 54.6306C34.3896 53.9517 32.7688 53.1281 31.202 52.3748C28.6058 51.1473 26.02 49.8981 23.4447 48.6272L4.20166 39.3336C4.45683 38.9562 4.77819 38.615 5.07725 38.2721L6.36562 36.8008Z" fill="#FAFCFF"/>
<path d="M4.02955 39.9768C4.91435 40.3415 5.78215 40.82 6.64339 41.2403L11.8191 43.7515L26.9727 51.0505C29.8994 52.4603 32.8219 53.9046 35.7845 55.2363L35.7794 62.2495C32.7218 60.7992 29.6767 59.3231 26.644 57.8211L11.6767 50.5927C9.1343 49.3662 6.60096 48.1051 4.03272 46.9342C4.00426 45.718 4.02155 44.4971 4.01888 43.2803C4.01646 42.1802 3.99077 41.0762 4.02955 39.9768Z" fill="#FAFCFF"/>
<path d="M65.9967 18.8002C66.0076 18.8165 66.022 18.831 66.0294 18.8492C66.0815 18.9785 66.0156 23.5922 66.0143 24.2354C66.0394 29.2312 66.0362 34.2271 66.0045 39.2229C64.7936 40.0887 63.6229 41.0316 62.4448 41.9422L57.4961 45.7401L43.8534 56.2439C42.2419 57.5256 40.6215 58.7957 38.9921 60.0545C38.1533 60.7104 37.3255 61.3898 36.4659 62.0178L36.4439 62.0068C36.3838 61.9013 36.427 55.8358 36.4287 55.1C39.3176 51.4254 42.2354 47.7739 45.1822 44.1454L54.601 32.393C56.8192 29.5899 59.0569 26.8025 61.3139 24.0307L63.5632 21.2312C63.9586 20.734 64.3444 20.1535 64.8018 19.7132C65.1517 19.3765 65.6061 19.0921 65.9967 18.8002Z" fill="#FAFCFF"/>
<path d="M33.2111 5.62634C33.545 5.67543 35.4209 6.64372 35.9036 6.87258L39.536 8.56864L54.8706 15.734C57.0657 16.7648 59.2688 17.7782 61.4799 18.7742C62.2634 19.1289 63.0335 19.5248 63.8251 19.8589C61.3519 23.0165 58.7899 26.1062 56.2906 29.2436C55.4906 30.2478 54.6677 31.2362 53.8947 32.2614L53.6415 32.1299L22.8174 17.5945C23.9655 16.2207 25.1691 14.8904 26.3375 13.5333C28.612 10.8832 30.9032 8.24759 33.2111 5.62634Z" fill="#FAFCFF"/>
<path d="M33.498 6.7948C33.5934 6.79507 33.6785 6.80509 33.7671 6.84124C34.3753 7.08924 34.9718 7.4199 35.5659 7.70455L39.7769 9.72498L54.7245 16.706L59.1445 18.7316L60.645 19.4339C60.9038 19.5543 61.1722 19.6556 61.4256 19.7878C61.5781 19.8675 61.7251 19.9639 61.7771 20.1358C61.7217 20.3228 61.6269 20.4813 61.5098 20.6361C61.0935 21.1862 60.6152 21.7027 60.1725 22.2326L56.305 26.7697L54.4351 28.9728C54.1935 29.2533 53.9323 29.6242 53.6448 29.8552C53.544 29.9363 53.4661 29.9328 53.3462 29.9214C52.835 29.7221 52.3436 29.4648 51.8492 29.2276C51.1629 28.9002 50.4747 28.5768 49.7846 28.2573C47.1571 27.0481 44.5369 25.8234 41.9239 24.5832C38.2488 22.886 34.5854 21.1638 30.9337 19.4166L26.6893 17.422C26.2298 17.2044 25.7498 17.0173 25.2979 16.7857C25.1579 16.714 25.0259 16.6368 24.979 16.4814C25.0305 16.3382 25.1115 16.224 25.2105 16.1097C26.9578 14.093 28.765 12.1219 30.5362 10.1252L32.3627 8.06309C32.734 7.63933 33.0911 7.1842 33.498 6.7948Z" fill="url(#paint1_linear_2023_48)"/>
<path d="M33.6788 7.54773C36.5141 8.90608 39.3566 10.2491 42.2063 11.5768L52.1535 16.2473L57.6296 18.7654C58.7242 19.2627 59.8574 19.7228 60.9185 20.2884C60.5099 20.9216 59.8795 21.5788 59.3887 22.165L55.9378 26.2159L54.1356 28.3241C53.892 28.6085 53.6415 28.9845 53.3544 29.2144L53.2534 29.1926C51.8198 28.5457 50.4122 27.8431 48.9869 27.1785L36.5206 21.3405L29.8806 18.1955C28.5499 17.5748 27.1584 17.0325 25.8735 16.3224C26.909 15.2236 27.8924 14.0719 28.8924 12.9405L31.8019 9.68861C32.4296 8.97822 33.0286 8.23754 33.6788 7.54773Z" fill="#FAFCFF"/>
<path d="M33.7564 8.36377C34.1739 8.5076 34.5752 8.74016 34.9743 8.93081C35.7175 9.28778 36.4637 9.63856 37.2127 9.98313L42.909 12.6366C43.762 13.0357 44.6376 13.412 45.4815 13.8273C45.5859 13.8787 45.723 13.9631 45.7756 14.0728C45.8162 14.1576 45.7971 14.2305 45.7603 14.3114C45.5741 14.7211 44.8618 15.4102 44.535 15.7806L42.0338 18.6066C41.3817 19.3607 40.7245 20.1104 40.0623 20.8556C39.8049 21.1482 39.5637 21.4708 39.2915 21.7486C39.2414 21.7998 39.1912 21.8241 39.1262 21.8516C38.4919 21.6851 37.7447 21.2516 37.1407 20.9715L32.5224 18.7978L28.9221 17.1127C28.4678 16.9004 27.4116 16.4864 27.0831 16.2032C27.0182 16.1473 26.9998 16.0952 26.9924 16.0137C27.0563 15.8743 27.1378 15.7484 27.2348 15.6302C27.482 15.3288 27.7574 15.0475 28.0149 14.7544L30.5781 11.8854L32.5179 9.65009C32.8928 9.22202 33.2851 8.68144 33.7564 8.36377Z" fill="url(#paint2_linear_2023_48)"/>
<path d="M33.8126 9.15112C34.1569 9.26111 34.5034 9.44924 34.8327 9.60031L37.0183 10.6182C38.5692 11.3286 40.1154 12.0489 41.6569 12.7793C42.7638 13.2814 43.865 13.7955 44.9605 14.3217C43.9595 15.4304 42.9888 16.5631 42.0003 17.6826C40.9896 18.8271 39.9617 19.9586 38.9869 21.134C38.9325 21.1427 28.8797 16.3643 27.842 15.9049L33.8126 9.15112Z" fill="#FAFCFF"/>
<path d="M47.6035 14.9248C47.6886 14.9251 47.77 14.9373 47.8495 14.9684C48.3722 15.1726 48.8829 15.4586 49.3949 15.6928C50.7494 16.3027 52.0991 16.9232 53.444 17.5542L57.6986 19.4892C58.292 19.7608 58.912 20.0019 59.4894 20.3039C59.5951 20.3592 59.6832 20.421 59.7262 20.5376C59.7731 20.6647 59.74 20.7928 59.6729 20.9056C59.5075 21.1839 59.2088 21.465 59.0021 21.7216C58.1221 22.8137 57.2019 23.8689 56.2896 24.9336L54.4826 27.0544C54.1547 27.443 53.8417 27.8674 53.4838 28.2267C53.3874 28.3235 53.3057 28.3637 53.1747 28.3996C52.429 28.2373 51.0998 27.5153 50.342 27.1618C48.6258 26.3756 46.9161 25.5754 45.2129 24.7613C44.2629 24.3239 43.3166 23.8786 42.374 23.4254C42.0009 23.2464 41.5843 23.0886 41.2321 22.8751C41.096 22.7927 41.0021 22.7199 40.9607 22.5588C40.9774 22.4451 41.004 22.3741 41.0768 22.2836C41.3974 21.8843 41.7664 21.5074 42.1066 21.1237L44.5044 18.4225L46.5718 16.0608C46.9027 15.6855 47.226 15.2515 47.6035 14.9248Z" fill="url(#paint3_linear_2023_48)"/>
<path d="M47.9724 16C50.3999 17.0898 52.8217 18.1923 55.2377 19.3076C56.5426 19.9056 57.8591 20.4779 59.1577 21.0894C58.5671 21.7516 58.0113 22.4508 57.4394 23.1298L54.5593 26.5164C54.3031 26.8163 53.5259 27.8298 53.2573 27.9848C51.8611 27.4008 50.5085 26.7425 49.1384 26.1019L42 22.7607C42.6117 21.9784 43.3161 21.2559 43.971 20.5088C45.2953 18.9974 46.629 17.4945 47.9724 16Z" fill="#FAFCFF"/>
<path d="M22.3695 18.1381C22.7387 18.1849 24.2708 19.0095 24.7087 19.2121L38.4873 25.7262L47.8468 30.1321C49.709 31.0022 51.6049 31.8313 53.4345 32.7662C53.0489 33.332 52.5935 33.8611 52.1657 34.3956L50.1487 36.9085L44.7922 43.5927L40.8816 48.4744C40.1424 49.4054 39.2687 50.6269 38.4351 51.4509L38.099 51.3198C35.3848 50.1003 32.6918 48.8359 30.0198 47.5264C27.2468 46.2145 24.4832 44.8829 21.7291 43.5316L6.83691 36.3009C7.3168 35.6484 7.86388 35.0342 8.38464 34.4138C9.60645 32.9763 10.8373 31.5467 12.0773 30.1247L22.3695 18.1381Z" fill="#FAFCFF"/>
<path d="M46.8282 31.2824C47.2467 31.2414 47.6605 31.2927 48.0261 31.5155C48.3366 31.7048 48.5841 32.0029 48.6659 32.3618C48.7377 32.6766 48.6665 32.9988 48.4851 33.2642C48.2075 33.6702 47.7797 33.8501 47.3128 33.9334C46.8927 33.9662 46.4789 33.9094 46.1105 33.6912C45.8036 33.5094 45.5524 33.2284 45.4717 32.8743C45.3985 32.5532 45.4823 32.2162 45.6669 31.9473C45.9408 31.5484 46.3713 31.3728 46.8282 31.2824Z" fill="url(#paint4_linear_2023_48)"/>
<path d="M46.9204 31.9307C47.1408 31.9145 47.3513 31.9221 47.5593 32.0054C47.7473 32.0808 47.9214 32.223 47.9914 32.4181C47.9979 32.4357 48.0035 32.4537 48.0081 32.472C48.0127 32.4903 48.0163 32.5088 48.019 32.5274C48.0216 32.5461 48.0232 32.5649 48.0238 32.5837C48.0244 32.6026 48.0239 32.6214 48.0225 32.6402C48.021 32.659 48.0186 32.6776 48.0152 32.6961C48.0117 32.7147 48.0072 32.733 48.0018 32.751C47.9964 32.7691 47.99 32.7868 47.9827 32.8042C47.9753 32.8215 47.9671 32.8385 47.9579 32.8549C47.8008 33.1338 47.5001 33.2202 47.211 33.2929C46.9392 33.3198 46.6784 33.2987 46.4374 33.1582C46.2794 33.066 46.1448 32.9213 46.1024 32.7394C46.0985 32.7226 46.0955 32.7057 46.0933 32.6887C46.0911 32.6717 46.0898 32.6546 46.0893 32.6374C46.0888 32.6202 46.0892 32.6031 46.0904 32.586C46.0917 32.5688 46.0937 32.5518 46.0966 32.5349C46.0996 32.5179 46.1033 32.5012 46.1079 32.4846C46.1125 32.4681 46.1179 32.4518 46.1241 32.4358C46.1303 32.4198 46.1372 32.4041 46.145 32.3888C46.1527 32.3735 46.1612 32.3586 46.1705 32.3441C46.3335 32.0867 46.6394 31.9923 46.9204 31.9307Z" fill="#FAFCFF"/>
<path d="M32.5412 24.1407C32.9698 24.0896 33.4308 24.1709 33.795 24.4085C34.0982 24.6064 34.3382 24.9106 34.4008 25.2732C34.4539 25.5813 34.3656 25.8921 34.1863 26.1448C33.8934 26.5576 33.4545 26.7298 32.9781 26.8201C32.5333 26.8543 32.0676 26.7658 31.6921 26.5157C31.4102 26.3279 31.2 26.0503 31.1367 25.7135C31.0767 25.3941 31.1594 25.0692 31.348 24.8067C31.633 24.41 32.0746 24.2195 32.5412 24.1407Z" fill="url(#paint5_linear_2023_48)"/>
<path d="M32.5607 24.7842C32.8165 24.7595 33.0565 24.764 33.2975 24.864C33.487 24.9426 33.6695 25.0818 33.7444 25.2789C33.7506 25.2948 33.7559 25.311 33.7604 25.3275C33.7649 25.344 33.7685 25.3607 33.7712 25.3776C33.774 25.3944 33.7759 25.4114 33.7769 25.4284C33.7779 25.4455 33.778 25.4626 33.7773 25.4796C33.7765 25.4967 33.7749 25.5137 33.7724 25.5306C33.7699 25.5475 33.7665 25.5643 33.7623 25.5808C33.758 25.5974 33.753 25.6137 33.747 25.6297C33.7411 25.6457 33.7344 25.6614 33.7269 25.6768C33.5932 25.9547 33.2759 26.0886 32.9991 26.1776C32.7383 26.2086 32.4885 26.1904 32.2437 26.0871C32.0561 26.0079 31.8669 25.8642 31.7926 25.668C31.7868 25.6525 31.7817 25.6367 31.7774 25.6207C31.7732 25.6047 31.7697 25.5886 31.7671 25.5722C31.7645 25.5558 31.7628 25.5394 31.7619 25.5228C31.761 25.5063 31.761 25.4898 31.7618 25.4733C31.7626 25.4567 31.7643 25.4403 31.7669 25.4239C31.7694 25.4075 31.7727 25.3913 31.7769 25.3753C31.7812 25.3593 31.7862 25.3435 31.792 25.328C31.7979 25.3125 31.8045 25.2974 31.8119 25.2826C31.9531 24.9967 32.2787 24.8803 32.5607 24.7842Z" fill="#FAFCFF"/>
<path d="M40.0552 27.6993C40.4216 27.7103 40.7765 27.7996 41.0808 28.0126C41.3762 28.2193 41.5855 28.5296 41.637 28.8893C41.6838 29.2156 41.5847 29.538 41.3852 29.7974C41.0475 30.2366 40.5585 30.3857 40.0371 30.4592C39.618 30.4621 39.1864 30.3395 38.8553 30.0765C38.5931 29.8682 38.4079 29.5721 38.3744 29.2355C38.3414 28.9044 38.4582 28.5742 38.6722 28.3222C39.0232 27.9089 39.532 27.7395 40.0552 27.6993Z" fill="url(#paint6_linear_2023_48)"/>
<path d="M40.1078 28.3481C40.3352 28.3641 40.5706 28.4276 40.7574 28.5637C40.8837 28.6558 40.9759 28.7921 40.999 28.9481C41.0225 29.1065 40.9736 29.262 40.8785 29.3889C40.6499 29.6937 40.2866 29.7646 39.9334 29.814C39.7128 29.7819 39.4808 29.7335 39.2928 29.607C39.1574 29.5159 39.049 29.3891 39.021 29.2245C38.9934 29.0626 39.0519 28.9045 39.1515 28.7779C39.3869 28.4788 39.7486 28.3875 40.1078 28.3481Z" fill="#FAFCFF"/>
<path d="M26.1831 21.1642C26.6307 21.1193 27.0563 21.1619 27.4579 21.3785C27.7766 21.5503 28.0591 21.8249 28.159 22.1816C28.2446 22.4871 28.1814 22.8282 28.0149 23.0953C27.7618 23.5011 27.3328 23.704 26.8848 23.8135C26.4276 23.8908 25.9708 23.8336 25.5608 23.6119C25.2408 23.4388 24.9796 23.1648 24.8822 22.8083C24.877 22.7892 24.8722 22.77 24.868 22.7507C24.8638 22.7313 24.86 22.7119 24.8568 22.6924C24.8536 22.6729 24.8508 22.6533 24.8485 22.6336C24.8463 22.6139 24.8446 22.5942 24.8433 22.5745C24.8421 22.5548 24.8414 22.535 24.8411 22.5152C24.8409 22.4954 24.8412 22.4756 24.842 22.4558C24.8428 22.436 24.8441 22.4163 24.8459 22.3966C24.8477 22.3769 24.85 22.3573 24.8528 22.3377C24.8556 22.3181 24.8589 22.2986 24.8627 22.2792C24.8665 22.2598 24.8708 22.2404 24.8757 22.2212C24.8804 22.202 24.8857 22.183 24.8915 22.1641C24.8973 22.1451 24.9036 22.1263 24.9103 22.1077C24.917 22.0891 24.9242 22.0707 24.9319 22.0525C24.9396 22.0342 24.9477 22.0162 24.9563 21.9984C24.9649 21.9805 24.974 21.963 24.9835 21.9457C24.993 21.9283 25.0029 21.9112 25.0133 21.8943C25.2717 21.4725 25.7263 21.2823 26.1831 21.1642Z" fill="url(#paint7_linear_2023_48)"/>
<path d="M26.3442 21.7806C26.6035 21.7636 26.837 21.7712 27.0783 21.8794C27.269 21.9648 27.4561 22.1122 27.5255 22.3165C27.5696 22.4467 27.5543 22.5813 27.4906 22.7022C27.345 22.9786 27.0277 23.0887 26.749 23.1768C26.462 23.2164 26.1864 23.2041 25.922 23.0733C25.7429 22.9845 25.5756 22.8395 25.5195 22.6408C25.4815 22.5064 25.5041 22.3664 25.5744 22.2467C25.7341 21.9747 26.0564 21.8595 26.3442 21.7806Z" fill="#FAFCFF"/>
<path d="M37.3261 31.7526C37.3351 31.7528 37.3441 31.7526 37.3529 31.7532C37.6842 31.778 40.48 33.1742 40.7043 33.4363C40.7382 33.5458 40.7459 33.6245 40.7198 33.7376C40.6385 34.0903 40.2183 34.6438 39.92 34.8391C39.6098 34.8198 36.7355 33.4463 36.5634 33.2198C36.4817 33.1123 36.5017 32.936 36.5373 32.8161C36.6372 32.48 37.0237 31.919 37.3261 31.7526Z" fill="url(#paint8_linear_2023_48)"/>
<path d="M37.5079 32.4884C37.8972 32.579 39.6579 33.4994 40.0199 33.7349C39.9365 33.8701 39.8384 33.9874 39.7365 34.1083C38.9665 33.8466 37.9493 33.2798 37.21 32.8943C37.3132 32.7629 37.4092 32.6233 37.5079 32.4884Z" fill="#FAFCFF"/>
<path d="M42.359 34.2467C42.4082 34.249 42.4253 34.2489 42.4769 34.2559C42.7418 34.2919 45.0535 35.4619 45.4442 35.6887C45.5492 35.7498 45.7525 35.8564 45.8047 35.9666C45.8351 36.0309 45.8214 36.1428 45.8056 36.2088C45.7298 36.5241 45.2929 37.1564 45.0185 37.3259C44.9659 37.3276 44.915 37.3295 44.8626 37.3241C44.5824 37.2953 41.6616 35.824 41.573 35.6627C41.5089 35.5462 41.5129 35.3824 41.556 35.2606C41.5966 35.1459 42.0384 34.4769 42.1224 34.3881C42.1856 34.3213 42.2763 34.2836 42.359 34.2467Z" fill="url(#paint9_linear_2023_48)"/>
<path d="M42.5282 34.9525C43.3112 35.3236 44.344 35.752 45.0501 36.2211C44.9772 36.3645 44.8978 36.4934 44.8068 36.6259C44.3285 36.47 42.7155 35.6443 42.2603 35.3595L42.5282 34.9525Z" fill="#FAFCFF"/>
<path d="M32.1583 29.2927C32.2406 29.2853 32.3271 29.2776 32.4085 29.2957C32.7525 29.3721 35.0616 30.5535 35.4486 30.7856C35.5425 30.8419 35.6741 30.9145 35.7261 31.0139C35.7815 31.12 35.7727 31.2458 35.7411 31.3576C35.6486 31.6847 35.2604 32.2568 34.9685 32.4207C34.8746 32.416 34.7811 32.405 34.6919 32.3736C34.195 32.199 33.6934 31.8986 33.2181 31.6668C32.7348 31.4311 32.2143 31.2225 31.7503 30.954C31.6257 30.8819 31.4931 30.7989 31.3986 30.6892C31.3358 30.6165 31.3304 30.5669 31.3433 30.4712C31.3888 30.1311 31.8859 29.503 32.1583 29.2927Z" fill="url(#paint10_linear_2023_48)"/>
<path d="M32.3871 29.9657C33.2351 30.4729 34.2 30.8321 35.0822 31.2813C35.005 31.4304 34.9054 31.5595 34.8056 31.6938C33.8731 31.3176 32.9821 30.8451 32.0762 30.4106C32.1841 30.2657 32.2843 30.1143 32.3871 29.9657Z" fill="#FAFCFF"/>
<path d="M27.079 26.762C27.0986 26.762 27.1181 26.7614 27.1377 26.762C27.4011 26.7695 30.4361 28.2656 30.5763 28.4747C30.6411 28.5713 30.6172 28.7191 30.5813 28.8216C30.4511 29.1929 30.0466 29.7426 29.6948 29.911C29.5963 29.9016 29.5143 29.8855 29.4219 29.8491C28.9979 29.6821 26.4473 28.4401 26.1905 28.2061C26.158 28.1068 26.1557 28.0394 26.1839 27.94C26.2879 27.5732 26.7529 26.9566 27.079 26.762Z" fill="url(#paint11_linear_2023_48)"/>
<path d="M27.2605 27.4768C28.1384 27.9008 29.0516 28.295 29.8982 28.7772C29.7991 28.9148 29.6788 29.0396 29.5664 29.1666C29.0611 29.0825 27.4675 28.1911 26.9468 27.9082C27.0377 27.7579 27.1555 27.6178 27.2605 27.4768Z" fill="#FAFCFF"/>
<path d="M21.7845 24.1968C21.8308 24.197 21.8765 24.1969 21.9226 24.2025C22.142 24.2285 24.8288 25.6018 25.1595 25.7982C25.2707 25.8643 25.3713 25.9302 25.4528 26.0322C25.4893 26.1465 25.488 26.2313 25.4519 26.3439C25.3381 26.6991 24.9556 27.2691 24.6293 27.4403C24.2279 27.4145 21.6672 26.1234 21.2029 25.847C21.0914 25.7807 20.9983 25.7099 20.9088 25.6158C20.8745 25.5239 20.8744 25.456 20.9001 25.3624C21.0032 24.9869 21.458 24.3986 21.7845 24.1968Z" fill="url(#paint12_linear_2023_48)"/>
<path d="M21.9479 24.8997C22.893 25.3046 23.8306 25.821 24.7448 26.2933C24.6687 26.448 24.5923 26.5823 24.4881 26.7208C23.5302 26.3208 22.5756 25.8432 21.6555 25.3621C21.7395 25.1944 21.8378 25.0507 21.9479 24.8997Z" fill="#FAFCFF"/>
<path d="M36.1482 39.7993C37.4268 39.666 38.9919 40.0849 39.9941 40.8992C40.5565 41.3561 40.7987 41.8691 41.1447 42.4798C41.4442 43.0085 41.7251 43.4381 41.7856 44.0605C41.8568 44.7937 41.5564 45.5179 41.0957 46.0766C40.1344 47.2424 38.6404 47.6683 37.196 47.8148C35.6392 47.8726 33.9655 47.5695 32.716 46.578C32.0259 46.0304 31.5112 45.2593 31.4162 44.3701C31.3065 43.3432 31.7008 42.4201 32.3443 41.6387C33.3296 40.4422 34.6335 39.9424 36.1482 39.7993Z" fill="url(#paint13_linear_2023_48)"/>
<path d="M32.0399 43.6077C32.1579 43.7284 32.25 44.0253 32.3329 44.1819C32.7216 44.9162 33.366 45.4229 34.1152 45.7605C34.1601 45.7812 34.2052 45.8012 34.2506 45.8207C34.296 45.8402 34.3416 45.8591 34.3875 45.8775C34.4334 45.8958 34.4795 45.9136 34.5258 45.9308C34.5721 45.948 34.6186 45.9646 34.6654 45.9806C34.7121 45.9966 34.759 46.012 34.8061 46.0268C34.8532 46.0417 34.9005 46.0559 34.948 46.0696C34.9955 46.0832 35.0432 46.0962 35.091 46.1087C35.1388 46.1211 35.1868 46.1329 35.2349 46.1441C35.283 46.1554 35.3312 46.166 35.3796 46.176C35.428 46.186 35.4765 46.1954 35.5251 46.2042C35.5737 46.213 35.6225 46.2211 35.6713 46.2286C35.7201 46.2362 35.769 46.2431 35.818 46.2495C35.867 46.2558 35.9161 46.2615 35.9652 46.2666C36.0143 46.2716 36.0635 46.2761 36.1128 46.28C36.162 46.2838 36.2113 46.287 36.2607 46.2896C36.31 46.2922 36.3594 46.2942 36.4087 46.2955C36.4581 46.2969 36.5075 46.2976 36.5569 46.2977C36.6063 46.2978 36.6557 46.2972 36.7051 46.2961C36.7545 46.295 36.8038 46.2932 36.8532 46.2908C36.9026 46.2884 36.9519 46.2854 37.0011 46.2818C37.0504 46.2782 37.0996 46.2739 37.1488 46.269C37.198 46.2642 37.247 46.2587 37.296 46.2526C37.3451 46.2465 37.394 46.2397 37.4429 46.2324C37.4917 46.225 37.5405 46.217 37.5892 46.2085C37.6378 46.1999 37.6863 46.1907 37.7348 46.1809C37.7832 46.1711 37.8314 46.1607 37.8796 46.1497C37.9277 46.1387 37.9757 46.127 38.0236 46.1147C38.0715 46.1025 38.1192 46.0897 38.1667 46.0763C38.2143 46.0628 38.2616 46.0488 38.3088 46.0342C38.356 46.0195 38.403 46.0043 38.4498 45.9885C38.4966 45.9727 38.5432 45.9563 38.5896 45.9393C38.636 45.9223 38.6822 45.9047 38.7281 45.8866C39.8611 45.4472 40.5901 44.7717 41.0738 43.6609C41.1281 43.9702 41.1325 44.2657 41.1144 44.5783C41.0019 45.1398 40.7338 45.5907 40.3134 45.9789C39.3038 46.9112 37.7285 47.2535 36.3905 47.1896C35.0281 47.1246 33.59 46.6931 32.6584 45.6447C32.1261 45.0457 31.9906 44.3876 32.0399 43.6077Z" fill="#FAFCFF"/>
<path d="M35.9135 40.4476C36.996 40.253 38.5207 40.6347 39.4149 41.2613C39.9289 41.6215 40.3789 42.1384 40.4756 42.7781C40.5505 43.2736 40.3728 43.7824 40.0738 44.175C39.403 45.0558 38.2569 45.4832 37.1955 45.6231C35.9474 45.7074 34.7207 45.5192 33.6842 44.7713C33.1629 44.3952 32.728 43.8578 32.6375 43.2046C32.5662 42.6899 32.7562 42.1953 33.0721 41.7965C33.7359 40.9587 34.8885 40.571 35.9135 40.4476Z" fill="#FAFCFF"/>
<path d="M15.95 29.6144C17.3333 29.6252 18.7495 29.937 19.8225 30.8616C20.624 31.5522 21.3601 32.652 21.427 33.7317C21.43 33.7822 21.4316 33.8328 21.432 33.8834C21.4324 33.9341 21.4315 33.9847 21.4294 34.0352C21.4272 34.0858 21.4239 34.1364 21.4193 34.1868C21.4146 34.2372 21.4087 34.2875 21.4016 34.3376C21.3945 34.3877 21.3861 34.4377 21.3765 34.4874C21.3669 34.5371 21.3561 34.5865 21.3441 34.6357C21.332 34.6849 21.3187 34.7337 21.3043 34.7823C21.2898 34.8308 21.2741 34.8789 21.2572 34.9267C21.2404 34.9744 21.2223 35.0217 21.2031 35.0686C21.1839 35.1154 21.1636 35.1618 21.1421 35.2076C21.1205 35.2535 21.0979 35.2987 21.0741 35.3434C21.0504 35.3881 21.0255 35.4322 20.9996 35.4757C20.9736 35.5192 20.9466 35.562 20.9185 35.6042C20.8904 35.6463 20.8613 35.6877 20.8312 35.7284C20.8011 35.7691 20.77 35.8091 20.7379 35.8482C20.7058 35.8874 20.6727 35.9257 20.6387 35.9632C19.5911 37.1276 17.9947 37.5674 16.4832 37.6525C14.987 37.7158 13.2807 37.2786 12.1386 36.272C11.5104 35.7184 11.0567 34.9614 11.0137 34.1127C10.96 33.0477 11.6406 31.8598 12.3377 31.0916C13.2404 30.0969 14.6487 29.6834 15.95 29.6144Z" fill="url(#paint14_linear_2023_48)"/>
<path d="M20.7647 33.5194C20.8837 33.963 20.7864 34.4858 20.5897 34.8949C20.1639 35.7809 19.258 36.3692 18.3543 36.6792C16.7801 37.2192 14.9879 37.1404 13.4923 36.3978C12.6512 35.9801 12.0294 35.4154 11.7222 34.5139C11.6399 34.1958 11.6529 33.9123 11.6755 33.5887C12.1741 34.526 12.727 35.1467 13.7037 35.5989C15.0887 36.2402 16.8677 36.3318 18.3021 35.801C19.4838 35.3638 20.241 34.6555 20.7647 33.5194Z" fill="#FAFCFF"/>
<path d="M15.6395 30.2616C16.8012 30.0715 18.2398 30.4762 19.1888 31.1483C19.6725 31.4908 20.0942 31.9746 20.1833 32.58C20.2643 33.1301 20.0519 33.6711 19.717 34.0994C19.0268 34.9822 17.87 35.3652 16.7972 35.5006C15.609 35.6288 14.2671 35.3359 13.2976 34.6201C12.7899 34.2453 12.3461 33.7044 12.2592 33.0605C12.1903 32.5495 12.3949 32.0426 12.7092 31.6473C13.4142 30.7604 14.5564 30.3939 15.6395 30.2616Z" fill="#FAFCFF"/>
<path d="M26.4817 33.6816C27.7856 33.668 29.2155 34.0645 30.2073 34.9399C30.7234 35.3954 31.4282 36.4475 31.6691 37.0928C31.717 37.224 31.7548 37.358 31.7824 37.4948C31.81 37.6317 31.827 37.7699 31.8337 37.9094C31.8746 38.7418 31.5011 39.533 30.9489 40.1387C29.9199 41.2672 28.3341 41.7411 26.8494 41.8034C25.3388 41.8203 23.7383 41.445 22.577 40.4305C21.9032 39.8418 21.4433 39.0987 21.3909 38.1902C21.3255 37.0565 21.8369 36.1448 22.5766 35.3297C23.6026 34.1989 24.9864 33.754 26.4817 33.6816Z" fill="url(#paint15_linear_2023_48)"/>
<path d="M22.0582 37.5638C22.1686 37.8123 22.2564 38.0564 22.3946 38.2934C22.7744 38.944 23.4677 39.4459 24.1418 39.7551C24.186 39.7756 24.2305 39.7955 24.2752 39.8149C24.3199 39.8343 24.3649 39.8531 24.41 39.8714C24.4552 39.8897 24.5005 39.9074 24.5461 39.9245C24.5917 39.9417 24.6375 39.9583 24.6835 39.9743C24.7295 39.9903 24.7758 40.0058 24.8222 40.0207C24.8685 40.0355 24.9151 40.0498 24.9618 40.0636C25.0086 40.0774 25.0555 40.0905 25.1025 40.1031C25.1496 40.1157 25.1968 40.1277 25.2441 40.1391C25.2915 40.1505 25.339 40.1614 25.3866 40.1716C25.4343 40.1819 25.482 40.1916 25.5299 40.2007C25.5777 40.2097 25.6257 40.2182 25.6738 40.2261C25.7219 40.234 25.77 40.2413 25.8183 40.248C25.8665 40.2547 25.9148 40.2608 25.9633 40.2664C26.0117 40.2719 26.0601 40.2768 26.1087 40.2811C26.1572 40.2855 26.2057 40.2892 26.2544 40.2923C26.303 40.2954 26.3516 40.298 26.4003 40.2999C26.449 40.3018 26.4977 40.3032 26.5464 40.3039C26.5951 40.3046 26.6438 40.3048 26.6925 40.3043C26.7413 40.3038 26.7899 40.3028 26.8386 40.3011C26.8873 40.2994 26.936 40.2972 26.9846 40.2943C27.0333 40.2914 27.0818 40.288 27.1304 40.2839C27.179 40.2799 27.2274 40.2752 27.2758 40.27C27.3243 40.2647 27.3727 40.2588 27.421 40.2524C27.4692 40.2459 27.5174 40.2389 27.5656 40.2313C27.6137 40.2236 27.6617 40.2154 27.7096 40.2066C27.7575 40.1978 27.8053 40.1884 27.853 40.1784C27.9007 40.1684 27.9482 40.1578 27.9957 40.1467C28.0431 40.1355 28.0903 40.1237 28.1375 40.1114C28.1846 40.099 28.2316 40.0861 28.2784 40.0727C28.3252 40.0592 28.3719 40.0451 28.4183 40.0305C28.4648 40.0158 28.5111 40.0006 28.5572 39.9849C28.6032 39.9691 28.6491 39.9528 28.6949 39.9358C29.857 39.4946 30.6951 38.7221 31.2016 37.586C31.2082 37.8922 31.1918 38.185 31.1515 38.4888C30.9607 39.1969 30.5315 39.7669 29.9378 40.1919C28.6683 41.1008 27.0015 41.327 25.4854 41.07C24.3281 40.8738 23.1375 40.3517 22.4481 39.362C22.0678 38.8163 21.9428 38.2165 22.0582 37.5638Z" fill="#FAFCFF"/>
<path d="M26.2405 34.3308C27.4181 34.2266 28.816 34.5957 29.7366 35.3509C30.1929 35.7252 30.5481 36.2273 30.593 36.8321C30.6341 37.3849 30.4011 37.8762 30.0524 38.2883C29.2805 39.2005 28.1318 39.5697 26.9762 39.665C26.9654 39.6662 26.9544 39.6674 26.9435 39.6685C25.7905 39.778 24.4156 39.359 23.522 38.6234C23.0572 38.2408 22.6961 37.7338 22.648 37.1175C22.6058 36.578 22.8028 36.0927 23.1439 35.6857C23.8983 34.7853 25.111 34.4217 26.2405 34.3308Z" fill="#FAFCFF"/>
<defs>
<linearGradient id="paint0_linear_2023_48" x1="35.0089" y1="2.48914" x2="35.0089" y2="66.9559" gradientUnits="userSpaceOnUse">
<stop stop-color="#085DA9"/>
<stop offset="0.2" stop-color="#6C5B97"/>
<stop offset="0.4" stop-color="#995685"/>
<stop offset="0.6" stop-color="#BE4F73"/>
<stop offset="0.8" stop-color="#E04461"/>
<stop offset="1" stop-color="#FF314F"/>
</linearGradient>
<linearGradient id="paint1_linear_2023_48" x1="43.3781" y1="6.7948" x2="43.3781" y2="29.9274" gradientUnits="userSpaceOnUse">
<stop stop-color="#085DA9"/>
<stop offset="0.2" stop-color="#6C5B97"/>
<stop offset="0.4" stop-color="#995685"/>
<stop offset="0.6" stop-color="#BE4F73"/>
<stop offset="0.8" stop-color="#E04461"/>
<stop offset="1" stop-color="#FF314F"/>
</linearGradient>
<linearGradient id="paint2_linear_2023_48" x1="36.3954" y1="8.36377" x2="36.3954" y2="21.8516" gradientUnits="userSpaceOnUse">
<stop stop-color="#085DA9"/>
<stop offset="0.2" stop-color="#6C5B97"/>
<stop offset="0.4" stop-color="#995685"/>
<stop offset="0.6" stop-color="#BE4F73"/>
<stop offset="0.8" stop-color="#E04461"/>
<stop offset="1" stop-color="#FF314F"/>
</linearGradient>
<linearGradient id="paint3_linear_2023_48" x1="50.3544" y1="14.9248" x2="50.3544" y2="28.3996" gradientUnits="userSpaceOnUse">
<stop stop-color="#085DA9"/>
<stop offset="0.2" stop-color="#6C5B97"/>
<stop offset="0.4" stop-color="#995685"/>
<stop offset="0.6" stop-color="#BE4F73"/>
<stop offset="0.8" stop-color="#E04461"/>
<stop offset="1" stop-color="#FF314F"/>
</linearGradient>
<linearGradient id="paint4_linear_2023_48" x1="47.0694" y1="31.2695" x2="47.0694" y2="33.942" gradientUnits="userSpaceOnUse">
<stop stop-color="#085DA9"/>
<stop offset="0.2" stop-color="#6C5B97"/>
<stop offset="0.4" stop-color="#995685"/>
<stop offset="0.6" stop-color="#BE4F73"/>
<stop offset="0.8" stop-color="#E04461"/>
<stop offset="1" stop-color="#FF314F"/>
</linearGradient>
<linearGradient id="paint5_linear_2023_48" x1="32.7668" y1="24.1261" x2="32.7668" y2="26.8272" gradientUnits="userSpaceOnUse">
<stop stop-color="#085DA9"/>
<stop offset="0.2" stop-color="#6C5B97"/>
<stop offset="0.4" stop-color="#995685"/>
<stop offset="0.6" stop-color="#BE4F73"/>
<stop offset="0.8" stop-color="#E04461"/>
<stop offset="1" stop-color="#FF314F"/>
</linearGradient>
<linearGradient id="paint6_linear_2023_48" x1="40.0087" y1="27.6993" x2="40.0087" y2="30.4593" gradientUnits="userSpaceOnUse">
<stop stop-color="#085DA9"/>
<stop offset="0.2" stop-color="#6C5B97"/>
<stop offset="0.4" stop-color="#995685"/>
<stop offset="0.6" stop-color="#BE4F73"/>
<stop offset="0.8" stop-color="#E04461"/>
<stop offset="1" stop-color="#FF314F"/>
</linearGradient>
<linearGradient id="paint7_linear_2023_48" x1="26.5191" y1="21.1482" x2="26.5191" y2="23.8461" gradientUnits="userSpaceOnUse">
<stop stop-color="#085DA9"/>
<stop offset="0.2" stop-color="#6C5B97"/>
<stop offset="0.4" stop-color="#995685"/>
<stop offset="0.6" stop-color="#BE4F73"/>
<stop offset="0.8" stop-color="#E04461"/>
<stop offset="1" stop-color="#FF314F"/>
</linearGradient>
<linearGradient id="paint8_linear_2023_48" x1="38.6209" y1="31.7526" x2="38.6209" y2="34.8391" gradientUnits="userSpaceOnUse">
<stop stop-color="#085DA9"/>
<stop offset="0.2" stop-color="#6C5B97"/>
<stop offset="0.4" stop-color="#995685"/>
<stop offset="0.6" stop-color="#BE4F73"/>
<stop offset="0.8" stop-color="#E04461"/>
<stop offset="1" stop-color="#FF314F"/>
</linearGradient>
<linearGradient id="paint9_linear_2023_48" x1="43.6735" y1="34.2467" x2="43.6735" y2="37.3277" gradientUnits="userSpaceOnUse">
<stop stop-color="#085DA9"/>
<stop offset="0.2" stop-color="#6C5B97"/>
<stop offset="0.4" stop-color="#995685"/>
<stop offset="0.6" stop-color="#BE4F73"/>
<stop offset="0.8" stop-color="#E04461"/>
<stop offset="1" stop-color="#FF314F"/>
</linearGradient>
<linearGradient id="paint10_linear_2023_48" x1="33.552" y1="29.2845" x2="33.552" y2="32.4207" gradientUnits="userSpaceOnUse">
<stop stop-color="#085DA9"/>
<stop offset="0.2" stop-color="#6C5B97"/>
<stop offset="0.4" stop-color="#995685"/>
<stop offset="0.6" stop-color="#BE4F73"/>
<stop offset="0.8" stop-color="#E04461"/>
<stop offset="1" stop-color="#FF314F"/>
</linearGradient>
<linearGradient id="paint11_linear_2023_48" x1="28.3906" y1="26.7617" x2="28.3906" y2="29.911" gradientUnits="userSpaceOnUse">
<stop stop-color="#085DA9"/>
<stop offset="0.2" stop-color="#6C5B97"/>
<stop offset="0.4" stop-color="#995685"/>
<stop offset="0.6" stop-color="#BE4F73"/>
<stop offset="0.8" stop-color="#E04461"/>
<stop offset="1" stop-color="#FF314F"/>
</linearGradient>
<linearGradient id="paint12_linear_2023_48" x1="23.1807" y1="24.1968" x2="23.1807" y2="27.4403" gradientUnits="userSpaceOnUse">
<stop stop-color="#085DA9"/>
<stop offset="0.2" stop-color="#6C5B97"/>
<stop offset="0.4" stop-color="#995685"/>
<stop offset="0.6" stop-color="#BE4F73"/>
<stop offset="0.8" stop-color="#E04461"/>
<stop offset="1" stop-color="#FF314F"/>
</linearGradient>
<linearGradient id="paint13_linear_2023_48" x1="36.597" y1="39.7749" x2="36.597" y2="47.8215" gradientUnits="userSpaceOnUse">
<stop stop-color="#085DA9"/>
<stop offset="0.2" stop-color="#6C5B97"/>
<stop offset="0.4" stop-color="#995685"/>
<stop offset="0.6" stop-color="#BE4F73"/>
<stop offset="0.8" stop-color="#E04461"/>
<stop offset="1" stop-color="#FF314F"/>
</linearGradient>
<linearGradient id="paint14_linear_2023_48" x1="16.2214" y1="29.6144" x2="16.2214" y2="37.6585" gradientUnits="userSpaceOnUse">
<stop stop-color="#085DA9"/>
<stop offset="0.2" stop-color="#6C5B97"/>
<stop offset="0.4" stop-color="#995685"/>
<stop offset="0.6" stop-color="#BE4F73"/>
<stop offset="0.8" stop-color="#E04461"/>
<stop offset="1" stop-color="#FF314F"/>
</linearGradient>
<linearGradient id="paint15_linear_2023_48" x1="26.611" y1="33.6813" x2="26.611" y2="41.8039" gradientUnits="userSpaceOnUse">
<stop stop-color="#085DA9"/>
<stop offset="0.2" stop-color="#6C5B97"/>
<stop offset="0.4" stop-color="#995685"/>
<stop offset="0.6" stop-color="#BE4F73"/>
<stop offset="0.8" stop-color="#E04461"/>
<stop offset="1" stop-color="#FF314F"/>
</linearGradient>
</defs>
</svg>
