<svg width="70" height="70" viewBox="0 0 70 70" fill="none" xmlns="http://www.w3.org/2000/svg">
<path d="M34.4362 1.4166C34.454 1.41579 34.4718 1.41467 34.4897 1.41416C36.949 1.34477 39.468 1.6325 41.8694 2.15053C42.0623 2.1907 42.2549 2.23256 42.4471 2.27611C42.6392 2.31966 42.831 2.36489 43.0224 2.41181C43.2138 2.45872 43.4048 2.50732 43.5954 2.55759C43.7858 2.60786 43.9759 2.65979 44.1655 2.71339C44.3552 2.767 44.5443 2.82227 44.733 2.87919C44.9217 2.93612 45.1098 2.99469 45.2974 3.05492C45.4851 3.11515 45.6721 3.17702 45.8587 3.24053C46.0452 3.30404 46.2312 3.36918 46.4165 3.43595C46.602 3.50273 46.7868 3.57113 46.9709 3.64115C47.1551 3.71117 47.3387 3.78279 47.5216 3.85603C47.7046 3.92928 47.8869 4.00412 48.0685 4.08056C48.2501 4.157 48.4311 4.23503 48.6114 4.31464C48.7916 4.39426 48.9711 4.47546 49.15 4.55822C49.3288 4.64099 49.5069 4.72532 49.6843 4.81122C49.8616 4.89711 50.0382 4.98455 50.214 5.07355C50.3898 5.16254 50.5648 5.25307 50.739 5.34514C50.9133 5.43721 51.0867 5.5308 51.2593 5.62591C51.4318 5.72102 51.6036 5.81763 51.7745 5.91576C51.9454 6.01388 52.1154 6.1135 52.2845 6.2146C52.4537 6.31571 52.6219 6.4183 52.7893 6.52236C52.9566 6.62642 53.123 6.73194 53.2885 6.8389C53.454 6.94591 53.6185 7.05435 53.7821 7.16423C53.9457 7.2741 54.1083 7.38539 54.2699 7.49809C54.4315 7.61084 54.5922 7.72498 54.7518 7.8405C54.9114 7.95603 55.07 8.07297 55.2276 8.19132C55.3852 8.30963 55.5417 8.42933 55.6971 8.55042C55.8526 8.6715 56.007 8.79393 56.1604 8.91771C56.3137 9.04149 56.4659 9.16661 56.6171 9.29307C56.7682 9.41954 56.9182 9.54732 57.0671 9.67643C57.216 9.80549 57.3637 9.93588 57.5103 10.0676C57.6569 10.1992 57.8023 10.3322 57.9466 10.4665C58.0909 10.6007 58.2339 10.7362 58.3758 10.8729C58.5708 11.0631 58.7634 11.2556 58.9537 11.4505C59.144 11.6453 59.332 11.8424 59.5175 12.0419C59.703 12.2413 59.8861 12.4429 60.0667 12.6468C60.2474 12.8506 60.4255 13.0566 60.6011 13.2648C60.7768 13.473 60.9498 13.6833 61.1203 13.8957C61.2908 14.1081 61.4588 14.3225 61.6241 14.539C61.7894 14.7554 61.9521 14.9738 62.1121 15.1943C62.2721 15.4147 62.4294 15.637 62.584 15.8612C62.7386 16.0854 62.8905 16.3115 63.0396 16.5394C63.1887 16.7674 63.3351 16.997 63.4786 17.2285C63.6222 17.46 63.7629 17.6931 63.9008 17.928C64.0387 18.1629 64.1738 18.3994 64.3059 18.6376C64.438 18.8758 64.5673 19.1155 64.6936 19.3568C64.8199 19.5981 64.9433 19.8409 65.0638 20.0852C65.1842 20.3295 65.3017 20.5752 65.4161 20.8224C65.5306 21.0695 65.642 21.318 65.7505 21.5678C65.8589 21.8177 65.9643 22.0688 66.0667 22.3212C66.169 22.5736 66.2682 22.8272 66.3644 23.082C66.4606 23.3369 66.5537 23.5929 66.6437 23.8499C66.7336 24.107 66.8205 24.3651 66.9042 24.6243C66.9879 24.8835 67.0684 25.1437 67.1458 25.4048C67.2232 25.666 67.2974 25.928 67.3684 26.191C67.4395 26.4539 67.5073 26.7177 67.5719 26.9823C67.6365 27.2468 67.6979 27.5122 67.7561 27.7783C67.8143 28.0444 67.8692 28.3111 67.921 28.5785C67.9726 28.8459 68.0211 29.1139 68.0663 29.3825C68.1115 29.6511 68.1534 29.9202 68.1921 30.1899C68.2308 30.4595 68.2662 30.7295 68.2982 31C68.3304 31.2704 68.3592 31.5412 68.3847 31.8124C68.4102 32.0836 68.4326 32.355 68.4517 32.6267C68.4704 32.8984 68.4859 33.1703 68.4982 33.4424C68.5105 33.7145 68.5196 33.9867 68.5255 34.259C68.5324 34.5337 68.5356 34.8084 68.5351 35.0831C68.5351 35.3579 68.5317 35.6326 68.5249 35.9073C68.518 36.182 68.5078 36.4565 68.4941 36.731C68.4804 37.0053 68.4633 37.2795 68.4428 37.5535C68.4223 37.8275 68.3984 38.1013 68.371 38.3747C68.344 38.648 68.3136 38.9211 68.2796 39.1937C68.2458 39.4664 68.2086 39.7386 68.1679 40.0104C68.1273 40.2821 68.0834 40.5533 68.0361 40.824C67.9888 41.0946 67.9382 41.3646 67.8843 41.634C67.8303 41.9035 67.7731 42.1722 67.7125 42.4402C67.652 42.7082 67.5881 42.9754 67.521 43.2418C67.4539 43.5083 67.3835 43.7738 67.3098 44.0385C67.2361 44.3032 67.1591 44.5669 67.079 44.8297C66.9988 45.0925 66.9154 45.3543 66.8288 45.615C66.7422 45.8758 66.6523 46.1354 66.5592 46.394C66.4662 46.6525 66.3701 46.9098 66.2707 47.1659C66.1713 47.4221 66.0688 47.677 65.9632 47.9307C65.8575 48.1843 65.7488 48.4366 65.6369 48.6876C65.5251 48.9385 65.4101 49.1881 65.2921 49.4362C65.1741 49.6843 65.053 49.9309 64.9289 50.1761C64.8049 50.4212 64.6778 50.6648 64.5477 50.9068C64.4176 51.1488 64.2846 51.3892 64.1486 51.6279C64.0126 51.8666 63.8736 52.1037 63.7318 52.339C63.5899 52.5743 63.4452 52.8078 63.2976 53.0395C63.15 53.2713 62.9996 53.5012 62.8463 53.7292C62.6931 53.9572 62.537 54.1834 62.3782 54.4076C62.2194 54.6318 62.0578 54.854 61.8934 55.0742C61.7292 55.2944 61.5622 55.5125 61.3924 55.7286C61.2228 55.9447 61.0505 56.1587 60.8755 56.3705C60.7006 56.5824 60.523 56.7921 60.3429 56.9996C60.1628 57.2071 59.9801 57.4123 59.795 57.6152C59.6098 57.8182 59.4221 58.0189 59.232 58.2173C59.0413 58.4176 58.8482 58.6156 58.6526 58.8112C58.457 59.0068 58.259 59.2 58.0586 59.3907C57.8582 59.5813 57.6554 59.7695 57.4504 59.9551C57.2453 60.1407 57.0379 60.3237 56.8283 60.5042C56.6187 60.6846 56.4068 60.8624 56.1927 61.0376C55.9786 61.2128 55.7624 61.3853 55.544 61.5551C55.3257 61.7249 55.1052 61.892 54.8827 62.0563C54.6602 62.2205 54.4356 62.3821 54.2091 62.5408C53.9826 62.6995 53.7541 62.8554 53.5237 63.0084C53.2932 63.1615 53.0609 63.3116 52.8267 63.4589C52.5926 63.6061 52.3566 63.7504 52.1189 63.8918C51.8811 64.0331 51.6416 64.1715 51.4004 64.3069C51.1592 64.4423 50.9163 64.5747 50.6718 64.7041C50.4273 64.8335 50.1813 64.9598 49.9336 65.083C49.686 65.2062 49.4368 65.3264 49.1862 65.4434C48.9356 65.5604 48.6835 65.6743 48.4301 65.785C48.1766 65.8958 47.9218 66.0034 47.6656 66.1078C47.4095 66.2123 47.1521 66.3135 46.8934 66.4115C46.6347 66.5095 46.3749 66.6042 46.1138 66.6958C45.8528 66.7873 45.5907 66.8756 45.3274 66.9606C45.0642 67.0456 44.8 67.1273 44.5347 67.2058C44.2695 67.2842 44.0033 67.3593 43.7362 67.4311C43.469 67.5029 43.201 67.5714 42.9322 67.6365C42.6634 67.7016 42.3938 67.7634 42.1234 67.8218C41.853 67.8802 41.5819 67.9353 41.3102 67.987C41.0384 68.0387 40.7661 68.0869 40.4931 68.1318C40.2202 68.1767 39.9467 68.2182 39.6728 68.2562C39.3988 68.2943 39.1244 68.3289 38.8495 68.36C38.5747 68.3915 38.2995 68.4193 38.024 68.4434C37.7485 68.468 37.4727 68.489 37.1966 68.5063C36.9205 68.5241 36.6443 68.5382 36.3679 68.5487C36.0914 68.5596 35.815 68.5669 35.5384 68.5706C35.2677 68.5747 34.997 68.5756 34.7262 68.5733C34.4555 68.571 34.1848 68.5656 33.9142 68.5569C33.6436 68.5478 33.3732 68.5355 33.1029 68.52C32.8325 68.5049 32.5624 68.4865 32.2926 68.4646C32.0228 68.4427 31.7532 68.4174 31.4839 68.3887C31.2147 68.3606 30.9458 68.329 30.6773 68.2942C30.4088 68.2593 30.1408 68.2212 29.8732 68.1799C29.6057 68.1386 29.3386 68.0941 29.0721 68.0463C28.8056 67.9985 28.5397 67.9475 28.2745 67.8934C28.0092 67.8392 27.7447 67.7818 27.4808 67.7213C27.2169 67.6607 26.9538 67.597 26.6914 67.5301C26.4291 67.4632 26.1676 67.3932 25.9069 67.32C25.6463 67.2468 25.3865 67.1704 25.1277 67.091C24.8688 67.0115 24.611 66.9289 24.3542 66.8433C24.0974 66.7576 23.8416 66.6688 23.5869 66.577C23.3322 66.4851 23.0787 66.3902 22.8263 66.2923C22.5739 66.1943 22.3227 66.0933 22.0727 65.9893C21.8228 65.8853 21.5741 65.7783 21.3267 65.6683C21.0793 65.5583 20.8333 65.4453 20.5887 65.3294C20.344 65.2134 20.1008 65.0946 19.859 64.9727C19.6172 64.8509 19.3769 64.7262 19.1381 64.5986C18.8993 64.471 18.6621 64.3405 18.4265 64.2072C18.1908 64.0739 17.9568 63.9378 17.7244 63.7988C17.4921 63.6599 17.2614 63.5181 17.0325 63.3736C16.8035 63.2291 16.5764 63.0818 16.351 62.9318C16.1256 62.7818 15.902 62.6291 15.6803 62.4737C15.4586 62.3184 15.2388 62.1603 15.0209 61.9997C14.803 61.839 14.5871 61.6757 14.3731 61.5097C14.1591 61.3438 13.9472 61.1754 13.7373 61.0044C13.5274 60.8334 13.3196 60.6599 13.1138 60.4839C12.9081 60.3078 12.7045 60.1294 12.5031 59.9485C12.3017 59.7675 12.1025 59.5842 11.9055 59.3985C11.7094 59.2136 11.5156 59.0264 11.3241 58.8368C11.1325 58.6472 10.9433 58.4554 10.7564 58.2612C10.5695 58.0671 10.385 57.8707 10.2028 57.672C10.0207 57.4734 9.84102 57.2726 9.66374 57.0696C9.48646 56.8667 9.31167 56.6616 9.13936 56.4543C8.96705 56.2471 8.79726 56.0379 8.63001 55.8265C8.46276 55.6152 8.2981 55.4019 8.13605 55.1866C7.97399 54.9713 7.81455 54.754 7.65774 54.5349C7.50092 54.3157 7.34677 54.0946 7.19528 53.8717C7.04385 53.6488 6.89511 53.4241 6.74909 53.1976C6.60307 52.9711 6.45982 52.7428 6.31933 52.5129C6.17884 52.2829 6.04116 52.0512 5.90628 51.8179C5.7714 51.5846 5.63937 51.3497 5.51018 51.1132C5.38099 50.8767 5.25468 50.6386 5.13126 50.3991C5.00784 50.1595 4.88733 49.9185 4.76975 49.676C4.65216 49.4335 4.53753 49.1896 4.42585 48.9443C4.31417 48.699 4.20548 48.4525 4.09977 48.2046C3.99407 47.9567 3.89138 47.7075 3.79171 47.4572C3.69204 47.2068 3.59541 46.9552 3.50183 46.7025C3.40825 46.4498 3.31775 46.1959 3.23032 45.941C3.14289 45.6861 3.05856 45.4301 2.97733 45.1732C2.89609 44.9162 2.81798 44.6583 2.743 44.3994C2.66801 44.1406 2.59617 43.8809 2.52748 43.6203C2.45878 43.3597 2.39325 43.0983 2.33089 42.8361C2.26853 42.5739 2.20935 42.311 2.15335 42.0474C2.09735 41.7838 2.04456 41.5196 1.99496 41.2547C1.94536 40.9898 1.89898 40.7243 1.85582 40.4583C1.81265 40.1923 1.77271 39.9258 1.736 39.6588C1.69929 39.3918 1.66581 39.1244 1.63558 38.8567C1.60534 38.5889 1.57835 38.3207 1.55461 38.0523C1.53087 37.7838 1.51038 37.5151 1.49315 37.2462C1.47591 36.9773 1.46194 36.7081 1.45122 36.4389C1.12307 27.2754 4.2013 18.7738 10.4679 12.0547C10.6205 11.8908 10.7748 11.7285 10.9308 11.5678C11.0867 11.4071 11.2443 11.2479 11.4034 11.0903C11.5626 10.9327 11.7233 10.7767 11.8856 10.6224C12.0478 10.468 12.2117 10.3153 12.377 10.1643C12.5424 10.0132 12.7092 9.86385 12.8776 9.71615C13.046 9.56849 13.2158 9.42252 13.3871 9.27824C13.5584 9.13395 13.7311 8.9914 13.9053 8.85058C14.0795 8.70981 14.2551 8.57079 14.432 8.43352C14.609 8.29626 14.7873 8.16077 14.967 8.02706C15.1467 7.89339 15.3277 7.76155 15.51 7.63153C15.6924 7.50146 15.8761 7.37327 16.0609 7.24694C16.2459 7.12061 16.4321 6.99615 16.6195 6.87356C16.807 6.75096 16.9956 6.63026 17.1855 6.51146C17.3753 6.39266 17.5664 6.27579 17.7586 6.16083C17.9508 6.04588 18.1441 5.93287 18.3386 5.82181C18.5331 5.71074 18.7287 5.60165 18.9253 5.49452C19.122 5.3874 19.3198 5.28226 19.5186 5.17911C19.7174 5.07596 19.9172 4.97483 20.118 4.8757C20.3188 4.77657 20.5207 4.67948 20.7235 4.58441C20.9263 4.48935 21.13 4.39633 21.3346 4.30536C21.5393 4.2144 21.7448 4.1255 21.9513 4.03867C22.1577 3.95184 22.365 3.8671 22.5732 3.78444C22.7813 3.70178 22.9903 3.62122 23.2001 3.54277C23.4098 3.46432 23.6204 3.38798 23.8317 3.31377C24.043 3.23955 24.2551 3.16747 24.4678 3.09752C24.6806 3.02757 24.894 2.95977 25.1081 2.89412C25.3223 2.82846 25.537 2.76497 25.7524 2.70364C25.9678 2.64231 26.1838 2.58315 26.4004 2.52616C26.617 2.46918 26.8341 2.41437 27.0518 2.36176C27.2695 2.30914 27.4877 2.25872 27.7064 2.2105C27.9251 2.16228 28.1443 2.11625 28.364 2.07244C28.5836 2.02862 28.8037 1.98702 29.0241 1.94764C29.9189 1.79676 30.8178 1.67701 31.7209 1.58839C32.624 1.49978 33.5291 1.44251 34.4362 1.4166Z" fill="url(#paint0_linear_2023_2156)"/>
<path d="M34.7288 2.20419L34.764 2.20358C35.032 2.20183 35.3 2.20335 35.5679 2.20814C35.8359 2.21292 36.1038 2.22098 36.3716 2.2323C36.6394 2.24362 36.907 2.25821 37.1744 2.27607C37.4419 2.29392 37.709 2.31503 37.976 2.33939C38.2428 2.36376 38.5094 2.39138 38.7757 2.42226C39.0419 2.45313 39.3077 2.48725 39.5731 2.52461C39.8385 2.56197 40.1034 2.60256 40.3679 2.64637C40.6323 2.6902 40.8961 2.73724 41.1594 2.7875C41.4227 2.83776 41.6853 2.89122 41.9472 2.94789C42.2092 3.00455 42.4705 3.06441 42.731 3.12745C42.9915 3.19049 43.2512 3.2567 43.5101 3.32607C43.7689 3.39545 44.0269 3.46797 44.284 3.54364C44.5411 3.61931 44.7973 3.6981 45.0525 3.78003C45.3077 3.86194 45.5619 3.94696 45.815 4.03508C46.0681 4.12321 46.3201 4.2144 46.5711 4.30867C46.8219 4.40294 47.0716 4.50025 47.3201 4.60061C47.5687 4.70098 47.816 4.80435 48.062 4.91074C48.308 5.01714 48.5526 5.12652 48.796 5.23888C49.0393 5.35125 49.2812 5.46656 49.5217 5.58483C49.7623 5.70309 50.0013 5.82427 50.2389 5.94837C50.4765 6.07247 50.7125 6.19945 50.9469 6.3293C51.1814 6.45916 51.4142 6.59185 51.6454 6.72739C51.8767 6.86294 52.1062 7.00128 52.3341 7.14242C52.5619 7.28356 52.788 7.42745 53.0124 7.57411C53.2367 7.72076 53.4592 7.87013 53.6799 8.0222C53.9006 8.17428 54.1194 8.32902 54.3363 8.48643C54.5533 8.64384 54.7682 8.80389 54.9812 8.96659C55.1943 9.12924 55.4053 9.29446 55.6143 9.46226C55.8232 9.63011 56.0302 9.80046 56.235 9.97332C56.4398 10.1462 56.6425 10.3215 56.8431 10.4993C57.0436 10.6771 57.242 10.8573 57.4382 11.04C57.6343 11.2226 57.8282 11.4076 58.0198 11.595C58.2095 11.7835 58.3969 11.9743 58.5819 12.1673C58.767 12.3604 58.9497 12.5556 59.13 12.7531C59.3103 12.9506 59.4882 13.1502 59.6636 13.352C59.839 13.5538 60.012 13.7577 60.1825 13.9637C60.353 14.1698 60.521 14.3778 60.6865 14.5879C60.8519 14.798 61.0147 15.0101 61.175 15.2241C61.3353 15.4382 61.493 15.6542 61.648 15.872C61.803 16.0899 61.9554 16.3097 62.105 16.5313C62.2547 16.7529 62.4017 16.9763 62.546 17.2014C62.6902 17.4266 62.8317 17.6535 62.9705 17.8821C63.1092 18.1107 63.2452 18.3409 63.3783 18.5729C63.5115 18.8048 63.6418 19.0383 63.7693 19.2733C63.8967 19.5084 64.0213 19.745 64.143 19.9831C64.2647 20.2212 64.3835 20.4608 64.4994 20.7018C64.6153 20.9428 64.7282 21.1851 64.8383 21.4288C64.9483 21.6726 65.0553 21.9177 65.1593 22.164C65.2634 22.4103 65.3644 22.6579 65.4624 22.9067C65.5604 23.1555 65.6554 23.4055 65.7474 23.6566C65.8393 23.9077 65.9282 24.1599 66.014 24.4131C66.0998 24.6664 66.1825 24.9207 66.2622 25.176C66.3418 25.4313 66.4183 25.6875 66.4917 25.9446C66.5652 26.2018 66.6354 26.4598 66.7025 26.7186C66.7697 26.9775 66.8336 27.2371 66.8944 27.4975C66.9553 27.7579 67.0129 28.019 67.0674 28.2808C67.1218 28.5426 67.1731 28.805 67.2212 29.0681C67.2693 29.3312 67.3142 29.5948 67.3559 29.8589C67.3976 30.1231 67.436 30.3877 67.4713 30.6527C67.5065 30.9178 67.5386 31.1833 67.5674 31.4492C67.5962 31.715 67.6217 31.9812 67.644 32.2477C67.6663 32.5141 67.6854 32.7809 67.7013 33.0478C67.7171 33.3147 67.7297 33.5818 67.739 33.8491C67.7484 34.1163 67.7545 34.3837 67.7573 34.6511C67.7607 34.9176 67.7607 35.1841 67.7575 35.4506C67.7544 35.7171 67.7479 35.9835 67.7382 36.2499C67.7285 36.5162 67.7155 36.7824 67.6993 37.0485C67.6831 37.3145 67.6636 37.5803 67.6409 37.8458C67.6181 38.1114 67.5921 38.3767 67.5629 38.6416C67.5336 38.9065 67.5012 39.171 67.4654 39.4352C67.4298 39.6993 67.3908 39.9629 67.3486 40.2261C67.3065 40.4893 67.2611 40.7519 67.2124 41.0139C67.1639 41.276 67.1121 41.5375 67.0571 41.7982C67.0021 42.059 66.9439 42.3191 66.8825 42.5785C66.8212 42.8378 66.7566 43.0964 66.6889 43.3542C66.6212 43.612 66.5504 43.8689 66.4764 44.125C66.4023 44.3811 66.3252 44.6362 66.245 44.8903C66.1648 45.1445 66.0814 45.3976 65.995 45.6497C65.9085 45.9019 65.819 46.1529 65.7264 46.4029C65.6338 46.6528 65.5382 46.9015 65.4395 47.1491C65.3409 47.3967 65.2392 47.6431 65.1345 47.8882C65.0297 48.1333 64.922 48.377 64.8114 48.6195C64.7007 48.862 64.5871 49.103 64.4705 49.3427C64.3539 49.5824 64.2343 49.8207 64.1119 50.0574C63.9895 50.2942 63.8642 50.5294 63.736 50.763C63.6079 50.9967 63.4769 51.2288 63.343 51.4593C63.2091 51.6898 63.0725 51.9186 62.933 52.1457C62.7936 52.3729 62.6513 52.5982 62.5063 52.8219C62.3613 53.0455 62.2136 53.2673 62.0632 53.4874C61.9128 53.7074 61.7597 53.9256 61.604 54.1419C61.4482 54.3581 61.2898 54.5725 61.1288 54.7849C60.9678 54.9973 60.8042 55.2077 60.6381 55.4161C60.4719 55.6245 60.3032 55.8308 60.132 56.0351C59.9608 56.2394 59.7871 56.4415 59.611 56.6415C59.4348 56.8415 59.2562 57.0394 59.0752 57.235C58.8942 57.4307 58.7108 57.624 58.5251 57.8152C52.2062 64.2669 44.1989 67.6896 35.1641 67.7838C34.9018 67.7855 34.6396 67.784 34.3774 67.7793C34.1152 67.7747 33.853 67.7668 33.591 67.7559C33.329 67.7449 33.0671 67.7308 32.8054 67.7135C32.5437 67.6963 32.2823 67.6759 32.0211 67.6524C31.7599 67.6289 31.499 67.6022 31.2385 67.5724C30.9779 67.5426 30.7177 67.5097 30.4579 67.4736C30.1982 67.4376 29.9389 67.3984 29.6801 67.3561C29.4213 67.3138 29.163 67.2685 28.9052 67.22C28.6475 67.1715 28.3904 67.1199 28.1339 67.0652C27.8774 67.0106 27.6216 66.9528 27.3664 66.892C27.1113 66.8312 26.857 66.7673 26.6034 66.7004C26.3499 66.6335 26.0971 66.5635 25.8452 66.4905C25.5934 66.4175 25.3424 66.3415 25.0923 66.2625C24.8422 66.1835 24.5931 66.1014 24.345 66.0164C24.0969 65.9314 23.8499 65.8434 23.6039 65.7524C23.3579 65.6615 23.1131 65.5676 22.8694 65.4708C22.6256 65.374 22.3831 65.2742 22.1418 65.1715C21.9005 65.0689 21.6604 64.9633 21.4216 64.8549C21.1828 64.7465 20.9454 64.6352 20.7093 64.521C20.4732 64.4069 20.2384 64.2899 20.0051 64.1701C19.7718 64.0504 19.54 63.9278 19.3096 63.8025C19.0792 63.6771 18.8504 63.549 18.6231 63.4182C18.3959 63.2873 18.1702 63.1538 17.9461 63.0175C17.722 62.8813 17.4996 62.7423 17.2789 62.6007C17.0582 62.4591 16.8392 62.3148 16.6219 62.168C16.4046 62.0211 16.1891 61.8716 15.9755 61.7195C15.7618 61.5675 15.5499 61.4129 15.34 61.2558C15.13 61.0986 14.922 60.9389 14.7159 60.7768C14.5097 60.6147 14.3056 60.4501 14.1034 60.283C13.9012 60.1159 13.7011 59.9465 13.503 59.7746C13.3049 59.6028 13.1089 59.4286 12.915 59.252C12.7211 59.0755 12.5293 58.8966 12.3397 58.7154C12.1905 58.5734 12.0427 58.4301 11.8963 58.2853C11.7498 58.1406 11.6048 57.9945 11.4611 57.847C11.3174 57.6995 11.1751 57.5507 11.0342 57.4005C10.8934 57.2503 10.7539 57.0988 10.6159 56.946C10.4779 56.7932 10.3413 56.6391 10.2062 56.4837C10.0711 56.3283 9.9375 56.1717 9.80534 56.0138C9.67317 55.8558 9.54254 55.6966 9.41343 55.5363C9.28428 55.3759 9.15665 55.2143 9.03055 55.0515C8.9045 54.8888 8.77997 54.7248 8.65697 54.5596C8.53397 54.3945 8.41254 54.2282 8.29268 54.0607C8.17282 53.8933 8.05456 53.7248 7.93789 53.5551C7.82123 53.3854 7.70618 53.2147 7.59275 53.0428C7.47932 52.8709 7.36753 52.698 7.25738 52.5241C7.14718 52.3501 7.03865 52.1752 6.93178 51.9992C6.82492 51.8232 6.71972 51.6462 6.6162 51.4681C6.51267 51.2901 6.41084 51.1112 6.31069 50.9312C6.21055 50.7513 6.11211 50.5705 6.01538 50.3887C5.91865 50.207 5.82365 50.0243 5.73038 49.8407C5.6371 49.6571 5.54556 49.4727 5.45577 49.2874C5.36597 49.1021 5.27794 48.916 5.19166 48.729C5.10538 48.542 5.02088 48.3543 4.93815 48.1657C4.85541 47.9771 4.77447 47.7878 4.69532 47.5977C4.61616 47.4076 4.53881 47.2168 4.46326 47.0253C4.3877 46.8337 4.31397 46.6415 4.24205 46.4485C4.17013 46.2556 4.10004 46.062 4.03178 45.8677C3.96351 45.6735 3.89709 45.4786 3.83252 45.2831C3.76794 45.0875 3.70521 44.8914 3.64433 44.6947C3.58345 44.498 3.52444 44.3007 3.46729 44.1029C3.41014 43.9051 3.35486 43.7067 3.30145 43.5079C3.24805 43.309 3.19653 43.1097 3.14689 42.9098C3.09726 42.71 3.04951 42.5097 3.00365 42.3089C2.9578 42.1082 2.91384 41.907 2.87179 41.7055C2.76919 41.1843 2.67815 40.6612 2.59866 40.1361C2.51918 39.611 2.45133 39.0844 2.39511 38.5562C2.33889 38.0281 2.29436 37.499 2.26151 36.9689C2.22867 36.4388 2.20754 35.9082 2.19813 35.3772C2.19424 35.1141 2.19355 34.8509 2.19605 34.5877C2.19855 34.3245 2.20425 34.0614 2.21315 33.7983C2.22204 33.5352 2.23413 33.2723 2.24941 33.0095C2.26469 32.7468 2.28316 32.4842 2.30482 32.2219C2.32648 31.9596 2.35132 31.6976 2.37935 31.4359C2.40737 31.1742 2.43857 30.9128 2.47295 30.6519C2.50732 30.3909 2.54486 30.1304 2.58556 29.8704C2.62626 29.6104 2.67011 29.3509 2.71712 29.0919C2.76413 28.8329 2.81427 28.5745 2.86756 28.3167C2.92084 28.059 2.97724 27.8019 3.03677 27.5455C3.0963 27.2891 3.15893 27.0335 3.22467 26.7787C3.29041 26.5238 3.35924 26.2697 3.43115 26.0165C3.50305 25.7634 3.57803 25.5111 3.65606 25.2597C3.7341 25.0083 3.81518 24.7579 3.8993 24.5085C3.98342 24.2591 4.07056 24.0108 4.16072 23.7635C4.25087 23.5162 4.34401 23.27 4.44015 23.025C4.53629 22.78 4.63538 22.5362 4.73744 22.2935C4.83949 22.0509 4.94448 21.8096 5.0524 21.5695C5.16033 21.3295 5.27115 21.0907 5.38486 20.8533C5.49859 20.616 5.61517 20.38 5.73462 20.1455C5.85407 19.9109 5.97636 19.6779 6.10147 19.4463C6.22659 19.2147 6.35449 18.9847 6.4852 18.7563C6.6159 18.5278 6.74936 18.301 6.88557 18.0757C7.02179 17.8505 7.16072 17.627 7.30236 17.4051C7.444 17.1833 7.5883 16.9632 7.73528 16.7449C7.8823 16.5265 8.03193 16.31 8.18419 16.0952C8.33641 15.8805 8.49124 15.6677 8.64869 15.4568C8.8061 15.2459 8.96606 15.0369 9.12858 14.8298C9.29105 14.6227 9.45602 14.4177 9.6235 14.2146C9.79098 14.0116 9.9609 13.8106 10.1333 13.6117C10.3056 13.4128 10.4804 13.2159 10.6575 13.0213C10.8346 12.8266 11.0141 12.6341 11.196 12.4438C17.5448 5.78878 25.5663 2.41823 34.7288 2.20419Z" fill="#FAFCFF"/>
<path d="M33.5159 5.8592C33.5329 5.85762 33.5499 5.85557 33.5669 5.85446C34.1691 5.81536 34.7864 5.8354 35.3903 5.83915C42.5695 5.88375 49.1538 8.67908 54.5103 13.3927C55.0683 13.8912 55.604 14.4127 56.1175 14.957C56.6309 15.5014 57.1202 16.0666 57.5854 16.6528C57.7038 16.7976 57.8209 16.9436 57.9365 17.0907C58.0521 17.2379 58.1663 17.3861 58.279 17.5354C58.3918 17.6847 58.5031 17.8351 58.6129 17.9866C58.7227 18.1381 58.8311 18.2906 58.938 18.4442C59.0448 18.5978 59.1502 18.7524 59.2541 18.908C59.358 19.0637 59.4603 19.2203 59.5611 19.3779C59.662 19.5356 59.7613 19.6942 59.859 19.8537C59.9568 20.0132 60.053 20.1737 60.1476 20.3351C60.2423 20.4965 60.3354 20.6588 60.4269 20.822C60.5184 20.9853 60.6082 21.1494 60.6966 21.3143C60.7849 21.4793 60.8716 21.6451 60.9567 21.8117C61.0418 21.9784 61.1253 22.1458 61.2071 22.314C61.289 22.4823 61.3692 22.6514 61.4478 22.8212C61.5263 22.991 61.6032 23.1616 61.6785 23.3329C61.7538 23.5042 61.8274 23.6762 61.8993 23.8489C61.9712 24.0217 62.0414 24.1951 62.11 24.3692C62.1786 24.5433 62.2454 24.718 62.3106 24.8934C62.3758 25.0688 62.4393 25.2448 62.5011 25.4215C62.5628 25.5981 62.6228 25.7753 62.6812 25.9531C62.7395 26.1309 62.796 26.3092 62.8509 26.4881C62.9058 26.667 62.9589 26.8464 63.0103 27.0263C63.0617 27.2062 63.1113 27.3867 63.1592 27.5675C63.2071 27.7484 63.2532 27.9297 63.2976 28.1115C63.342 28.2933 63.3846 28.4755 63.4254 28.6581C63.4662 28.8407 63.5053 29.0237 63.5426 29.207C63.5799 29.3904 63.6154 29.5741 63.6491 29.7581C63.6828 29.9422 63.7147 30.1265 63.7448 30.3112C63.775 30.4959 63.8034 30.6808 63.8299 30.866C63.8565 31.0512 63.8812 31.2367 63.9042 31.4224C63.9272 31.6081 63.9483 31.794 63.9676 31.9801C63.987 32.1662 64.0046 32.3525 64.0203 32.539C64.0361 32.7254 64.05 32.912 64.0621 33.0987C64.0782 33.3375 64.0913 33.5764 64.1015 33.8155C64.1118 34.0546 64.119 34.2938 64.1234 34.5331C64.1277 34.7724 64.1291 35.0118 64.1275 35.2511C64.126 35.4904 64.1215 35.7296 64.1141 35.9688C64.1067 36.208 64.0963 36.4471 64.083 36.6861C64.0698 36.9251 64.0536 37.1638 64.0344 37.4024C64.0152 37.641 63.9932 37.8792 63.9682 38.1172C63.9432 38.3553 63.9152 38.5929 63.8844 38.8303C63.8536 39.0676 63.8198 39.3045 63.7831 39.541C63.7465 39.7775 63.707 40.0136 63.6645 40.2491C63.6221 40.4846 63.5767 40.7196 63.5285 40.954C63.4803 41.1884 63.4292 41.4222 63.3752 41.6554C63.3213 41.8885 63.2644 42.121 63.2047 42.3528C63.1451 42.5846 63.0826 42.8156 63.0172 43.0458C62.9519 43.276 62.8837 43.5054 62.8128 43.734C62.7418 43.9625 62.668 44.1902 62.5914 44.417C62.5149 44.6437 62.4355 44.8695 62.3535 45.0943C62.2713 45.3191 62.1865 45.5428 62.0989 45.7655C62.0113 45.9883 61.9209 46.2099 61.8278 46.4304C61.7348 46.6509 61.6391 46.8702 61.5407 47.0884C61.4422 47.3065 61.3411 47.5234 61.2374 47.7391C61.1336 47.9547 61.0272 48.1691 60.9182 48.3821C60.8092 48.5952 60.6976 48.8069 60.5834 49.0172C60.4691 49.2275 60.3523 49.4364 60.233 49.6438C60.1137 49.8513 59.9918 50.0572 59.8674 50.2617C59.743 50.4661 59.6161 50.669 59.4867 50.8703C59.3573 51.0717 59.2255 51.2714 59.0911 51.4695C58.9568 51.6676 58.8201 51.864 58.6811 52.0588C58.5419 52.2535 58.4004 52.4465 58.2565 52.6378C58.1127 52.8291 57.9665 53.0185 57.818 53.2063C57.6695 53.3939 57.5187 53.5798 57.3657 53.7637C57.2126 53.9477 57.0573 54.1298 56.8998 54.3099C56.7395 54.4908 56.577 54.6696 56.4123 54.8464C56.2477 55.0232 56.0808 55.198 55.9118 55.3707C55.7427 55.5434 55.5716 55.714 55.3984 55.8824C55.2251 56.0508 55.0498 56.2171 54.8724 56.3812C54.695 56.5453 54.5157 56.7072 54.3343 56.8668C54.1529 57.0265 53.9696 57.1838 53.7843 57.3389C53.599 57.4941 53.4118 57.6468 53.2227 57.7973C53.0336 57.9478 52.8427 58.0959 52.65 58.2416C52.4572 58.3873 52.2627 58.5306 52.0664 58.6715C51.8701 58.8124 51.672 58.9509 51.4723 59.0869C51.2726 59.2229 51.0712 59.3564 50.8681 59.4874C50.6651 59.6184 50.4605 59.7468 50.2542 59.8727C50.048 59.9987 49.8402 60.1221 49.631 60.2428C49.4216 60.3636 49.2109 60.4817 48.9986 60.5973C48.7865 60.7128 48.5728 60.8258 48.3578 60.936C48.1428 61.0462 47.9264 61.1538 47.7088 61.2587C47.4911 61.3636 47.2721 61.4657 47.0518 61.5652C46.8316 61.6647 46.6102 61.7614 46.3876 61.8554C46.165 61.9493 45.9412 62.0405 45.7164 62.1289C45.4915 62.2173 45.2655 62.303 45.0385 62.3858C44.8115 62.4686 44.5835 62.5485 44.3545 62.6257C44.1255 62.7029 43.8957 62.7772 43.6648 62.8487C43.434 62.9202 43.2023 62.9887 42.9698 63.0545C42.7372 63.1202 42.5039 63.183 42.2698 63.2429C42.0358 63.3028 41.801 63.3599 41.5654 63.414C41.3299 63.4681 41.0938 63.5192 40.857 63.5675C40.6202 63.6158 40.3829 63.6611 40.145 63.7035C39.9071 63.7458 39.6687 63.7852 39.4299 63.8217C39.191 63.8581 38.9517 63.8916 38.712 63.9221C38.4723 63.9527 38.2323 63.9802 37.9919 64.0048C37.7515 64.0293 37.5108 64.0509 37.2699 64.0696C37.029 64.0882 36.7879 64.1038 36.5466 64.1164C29.1549 64.5108 21.5213 61.9984 15.9329 57.1059C15.7499 56.948 15.5689 56.7879 15.3898 56.6255C15.2108 56.4631 15.0338 56.2985 14.8588 56.1317C14.6839 55.9649 14.5111 55.7959 14.3404 55.6248C14.1696 55.4537 14.001 55.2805 13.8346 55.1052C13.6682 54.9299 13.504 54.7525 13.342 54.5731C13.18 54.3937 13.0203 54.2123 12.8628 54.0289C12.7054 53.8455 12.5502 53.6602 12.3974 53.4729C12.2445 53.2857 12.0941 53.0965 11.9459 52.9055C11.7978 52.7146 11.6521 52.5217 11.5088 52.3271C11.3655 52.1324 11.2246 51.936 11.0862 51.7378C10.9477 51.5397 10.8118 51.3398 10.6784 51.1383C10.5449 50.9368 10.414 50.7336 10.2857 50.5288C10.1573 50.324 10.0315 50.1176 9.90829 49.9096C9.78506 49.7017 9.66445 49.4922 9.54646 49.2813C9.42843 49.0703 9.31306 48.8579 9.20036 48.6441C9.08766 48.4303 8.97764 48.2151 8.87032 47.9985C8.76295 47.7819 8.65831 47.564 8.55641 47.3449C8.45451 47.1256 8.35535 46.9052 8.25891 46.6835C8.16253 46.4619 8.0689 46.2391 7.97802 46.0151C7.8872 45.7911 7.79915 45.566 7.71388 45.3398C7.62866 45.1136 7.54624 44.8864 7.46663 44.6582C7.38706 44.43 7.31034 44.2008 7.23646 43.9706C7.16263 43.7404 7.09165 43.5094 7.02352 43.2775C6.95544 43.0455 6.89024 42.8128 6.82793 42.5792C6.76563 42.3457 6.70626 42.1114 6.6498 41.8764C6.59334 41.6414 6.53982 41.4057 6.48924 41.1693C6.43866 40.9329 6.39103 40.696 6.34636 40.4585C6.30169 40.2209 6.25999 39.9828 6.22125 39.7442C6.18251 39.5056 6.14676 39.2666 6.11398 39.0271C6.0812 38.7876 6.05142 38.5478 6.02463 38.3075C5.99783 38.0673 5.97403 37.8268 5.95323 37.5859C5.93244 37.3451 5.91465 37.1041 5.89986 36.8628C5.88518 36.6257 5.87339 36.3884 5.8645 36.1509C5.85561 35.9135 5.84961 35.6759 5.8465 35.4384C5.84339 35.2007 5.84318 34.9631 5.84586 34.7255C5.84854 34.4879 5.85412 34.2504 5.86258 34.0129C5.87105 33.7754 5.88242 33.5381 5.89667 33.3009C5.91092 33.0637 5.92806 32.8268 5.94809 32.59C5.96811 32.3532 5.99102 32.1167 6.01681 31.8805C6.0426 31.6443 6.07126 31.4084 6.10279 31.1729C6.13433 30.9374 6.16873 30.7023 6.20599 30.4676C6.24326 30.2329 6.28337 29.9987 6.32634 29.765C6.36931 29.5313 6.41512 29.2982 6.46377 29.0656C6.51242 28.833 6.5639 28.6011 6.6182 28.3697C6.6725 28.1384 6.72962 27.9078 6.78954 27.6779C6.84946 27.4479 6.91217 27.2187 6.97765 26.9903C7.04319 26.7619 7.11148 26.5343 7.18253 26.3075C7.25357 26.0808 7.32738 25.855 7.40394 25.63C7.48051 25.4051 7.55978 25.1811 7.64177 24.958C7.7238 24.7351 7.80852 24.5131 7.89593 24.2921C7.98333 24.0712 8.07343 23.8513 8.16622 23.6326C8.259 23.4138 8.35443 23.1962 8.45251 22.9797C8.55058 22.7633 8.65127 22.5481 8.75459 22.3341C8.8579 22.1202 8.96381 21.9075 9.07232 21.6961C9.18083 21.4847 9.29189 21.2746 9.40551 21.0659C9.51916 20.8573 9.63533 20.65 9.754 20.4441C9.87267 20.2382 9.99383 20.0338 10.1175 19.831C10.2411 19.628 10.3672 19.4266 10.4958 19.2268C10.6243 19.027 10.7553 18.8287 10.8887 18.6321C11.0221 18.4354 11.1579 18.2404 11.296 18.0471C11.4342 17.8538 11.5746 17.6622 11.7174 17.4722C11.8602 17.2823 12.0053 17.0942 12.1527 16.9078C12.3002 16.7214 12.4498 16.5369 12.6016 16.3541C12.7535 16.1714 12.9076 15.9905 13.064 15.8116C13.2005 15.6546 13.3388 15.4991 13.4787 15.3451C13.6186 15.191 13.7602 15.0385 13.9033 14.8876C14.0465 14.7366 14.1913 14.5871 14.3378 14.4392C14.4842 14.2914 14.6321 14.1451 14.7816 14.0005C14.9312 13.8557 15.0822 13.7126 15.2349 13.5712C15.3874 13.4297 15.5415 13.2899 15.6972 13.1518C15.8528 13.0136 16.0098 12.8772 16.1684 12.7424C16.3269 12.6076 16.4868 12.4745 16.6482 12.3431C16.8096 12.2118 16.9724 12.0822 17.1365 11.9544C17.3007 11.8265 17.4662 11.7004 17.6331 11.5761C17.8 11.4518 17.9682 11.3293 18.1377 11.2086C18.3071 11.0879 18.4779 10.9691 18.6499 10.852C18.822 10.7349 18.9953 10.6198 19.1698 10.5065C19.3444 10.3931 19.5201 10.2817 19.697 10.1722C19.8739 10.0626 20.052 9.95499 20.2312 9.84926C20.4104 9.74353 20.5907 9.63974 20.7722 9.53788C20.9536 9.43603 21.1362 9.33613 21.3197 9.23819C21.5033 9.14026 21.688 9.04428 21.8736 8.95026C22.0592 8.85629 22.2459 8.76433 22.4335 8.67437C22.6211 8.58436 22.8097 8.4964 22.9992 8.4105C23.1887 8.32455 23.3791 8.24065 23.5705 8.1588C23.7618 8.07695 23.9539 7.99718 24.1469 7.91947C24.3399 7.84173 24.5338 7.76608 24.7285 7.69252C24.9231 7.61897 25.1185 7.54751 25.3146 7.47815C25.5108 7.40878 25.7077 7.34152 25.9053 7.27635C26.103 7.21118 26.3013 7.14815 26.5003 7.08727C26.6992 7.02638 26.8988 6.96764 27.099 6.91104C27.2993 6.85442 27.5001 6.79996 27.7015 6.74766C27.9029 6.69535 28.1049 6.64522 28.3074 6.59725C28.5098 6.54928 28.7128 6.50348 28.9162 6.45986C29.1197 6.41625 29.3236 6.37482 29.528 6.33558C29.7323 6.29634 29.9371 6.2593 30.1422 6.22445C31.2605 6.04423 32.385 5.92248 33.5159 5.8592Z" fill="url(#paint1_linear_2023_2156)"/>
<path d="M34.4935 6.6465C41.7159 6.40742 48.9526 9.31469 54.2273 14.2017C54.3994 14.3607 54.5695 14.5217 54.7376 14.6849C54.9057 14.8481 55.0718 15.0134 55.2358 15.1807C55.3998 15.348 55.5617 15.5174 55.7215 15.6887C55.8813 15.86 56.039 16.0333 56.1944 16.2086C56.3499 16.3838 56.5032 16.561 56.6544 16.74C56.8055 16.9191 56.9544 17.1 57.101 17.2827C57.2476 17.4655 57.392 17.65 57.534 17.8363C57.676 18.0227 57.8157 18.2107 57.9531 18.4005C58.0905 18.5903 58.2255 18.7818 58.3581 18.9749C58.4908 19.168 58.621 19.3628 58.7488 19.5592C58.8765 19.7555 59.0019 19.9535 59.1247 20.1529C59.2477 20.3525 59.3681 20.5534 59.486 20.7559C59.6038 20.9583 59.7192 21.1623 59.8321 21.3676C59.9449 21.5729 60.0552 21.7796 60.1628 21.9877C60.2705 22.1957 60.3756 22.4051 60.4782 22.6158C60.5807 22.8265 60.6806 23.0384 60.7778 23.2515C60.8751 23.4647 60.9697 23.679 61.0616 23.8945C61.1536 24.11 61.2428 24.3266 61.3294 24.5443C61.4159 24.7621 61.4998 24.9809 61.5809 25.2007C61.6621 25.4205 61.7405 25.6412 61.8161 25.8629C61.8918 26.0847 61.9647 26.3073 62.0348 26.5309C62.1049 26.7544 62.1723 26.9788 62.2368 27.2041C62.3014 27.4293 62.3632 27.6553 62.4221 27.882C62.481 28.1088 62.5372 28.3362 62.5905 28.5644C62.6438 28.7925 62.6943 29.0213 62.7419 29.2507C62.7896 29.4801 62.8344 29.7101 62.8763 29.9406C62.9182 30.1711 62.9573 30.4021 62.9935 30.6335C63.0297 30.865 63.063 31.0969 63.0934 31.3292C63.1239 31.5615 63.1515 31.7942 63.1761 32.0272C63.2008 32.2602 63.2226 32.4934 63.2415 32.727C63.2603 32.9605 63.2763 33.1942 63.2894 33.4281C63.3025 33.662 63.3127 33.8961 63.32 34.1303C63.584 41.3218 60.9255 48.8071 56.0108 54.0942C55.8757 54.2423 55.739 54.389 55.6008 54.5342C55.4626 54.6795 55.3228 54.8233 55.1816 54.9656C55.0403 55.1078 54.8975 55.2486 54.7533 55.388C54.6091 55.5272 54.4634 55.665 54.3163 55.8012C54.1691 55.9374 54.0206 56.072 53.8706 56.2051C53.7206 56.3381 53.5692 56.4696 53.4165 56.5995C53.2637 56.7294 53.1096 56.8576 52.9541 56.9843C52.7987 57.1109 52.6419 57.2358 52.4838 57.3592C52.3257 57.4825 52.1663 57.6041 52.0057 57.7241C51.845 57.844 51.683 57.9623 51.5199 58.0788C51.3567 58.1953 51.1924 58.3101 51.0268 58.4232C50.8612 58.5362 50.6944 58.6476 50.5265 58.7571C50.3586 58.8667 50.1895 58.9744 50.0193 59.0804C49.8491 59.1864 49.6777 59.2906 49.5053 59.3929C49.3329 59.4953 49.1595 59.5958 48.9849 59.6945C48.8104 59.7932 48.6348 59.89 48.4583 59.9851C48.2817 60.08 48.1041 60.1732 47.9256 60.2644C47.7471 60.3557 47.5676 60.445 47.3872 60.5325C47.2067 60.6199 47.0254 60.7055 46.8432 60.7891C46.6609 60.8727 46.4778 60.9544 46.2939 61.0342C46.1099 61.114 45.9251 61.1918 45.7396 61.2677C45.5539 61.3436 45.3676 61.4175 45.1804 61.4894C44.9932 61.5613 44.8053 61.6313 44.6167 61.6992C44.4281 61.7672 44.2387 61.8331 44.0487 61.8971C43.8587 61.9611 43.668 62.0231 43.4767 62.083C43.2853 62.143 43.0934 62.2009 42.9009 62.2568C42.7083 62.3127 42.5151 62.3666 42.3215 62.4184C42.1278 62.4702 41.9336 62.52 41.7388 62.5677C41.5441 62.6154 41.3488 62.6611 41.1531 62.7047C40.9574 62.7483 40.7613 62.7898 40.5647 62.8293C40.3681 62.8688 40.1711 62.9061 39.9737 62.9414C39.7764 62.9767 39.5786 63.0099 39.3806 63.0411C38.1157 63.2362 36.85 63.321 35.5725 63.3671C35.3445 63.3713 35.1164 63.3727 34.8883 63.3714C34.6603 63.3701 34.4323 63.3661 34.2043 63.3593C33.9763 63.3526 33.7484 63.3431 33.5207 63.3309C33.2929 63.3187 33.0654 63.3037 32.838 63.2861C32.6106 63.2684 32.3834 63.2481 32.1565 63.2249C31.9296 63.2018 31.703 63.176 31.4767 63.1475C31.2504 63.119 31.0245 63.0877 30.7989 63.0538C30.5734 63.0198 30.3483 62.9832 30.1237 62.9439C29.899 62.9045 29.6748 62.8625 29.4512 62.8178C29.2275 62.7731 29.0044 62.7257 28.7819 62.6757C28.5594 62.6256 28.3375 62.5729 28.1162 62.5175C27.895 62.4622 27.6744 62.4042 27.4545 62.3435C27.2347 62.2829 27.0156 62.2196 26.7973 62.1537C26.5789 62.0878 26.3613 62.0193 26.1446 61.9481C25.9279 61.877 25.7121 61.8033 25.4971 61.7271C25.2822 61.6508 25.0682 61.5719 24.8552 61.4905C24.6421 61.4091 24.4301 61.3251 24.219 61.2387C24.008 61.1522 23.798 61.0632 23.5891 60.9716C23.3801 60.8801 23.1723 60.7861 22.9657 60.6896C22.759 60.5931 22.5535 60.4941 22.3492 60.3927C22.1449 60.2913 21.9419 60.1874 21.7401 60.0812C21.5383 59.9749 21.3378 59.8662 21.1386 59.7551C20.9394 59.644 20.7416 59.5306 20.5451 59.4147C20.3486 59.2989 20.1536 59.1808 19.9599 59.0602C19.7662 58.9397 19.5741 58.8169 19.3833 58.6918C19.1927 58.5667 19.0035 58.4394 18.8158 58.3097C18.6281 58.1801 18.4421 58.0482 18.2576 57.9141C18.0731 57.78 17.8903 57.6437 17.709 57.5052C17.5278 57.3668 17.3482 57.2262 17.1703 57.0834C16.9925 56.9406 16.8164 56.7957 16.642 56.6487C16.4676 56.5017 16.295 56.3527 16.1242 56.2015C15.9534 56.0504 15.7844 55.8972 15.6172 55.7421C15.448 55.5834 15.2807 55.4227 15.1155 55.2599C14.9502 55.0972 14.7869 54.9324 14.6257 54.7657C14.4644 54.5989 14.3052 54.4302 14.1481 54.2595C13.991 54.0889 13.836 53.9163 13.6831 53.7419C13.5303 53.5674 13.3796 53.391 13.231 53.2129C13.0824 53.0348 12.9361 52.8548 12.792 52.6731C12.6478 52.4913 12.5059 52.3078 12.3663 52.1226C12.2266 51.9374 12.0893 51.7504 11.9542 51.5618C11.8192 51.3732 11.6864 51.183 11.5561 50.9911C11.4257 50.7993 11.2977 50.6059 11.172 50.4109C11.0464 50.2159 10.9231 50.0194 10.8023 49.8214C10.6815 49.6234 10.5631 49.4239 10.4471 49.223C10.3312 49.0221 10.2177 48.8198 10.1068 48.6161C9.99579 48.4124 9.88733 48.2073 9.78137 48.001C9.67542 47.7946 9.57201 47.587 9.47116 47.3781C9.3703 47.1692 9.27203 46.9591 9.17632 46.7478C9.08062 46.5365 8.98751 46.324 8.89701 46.1104C8.80654 45.8969 8.7187 45.6822 8.63348 45.4665C8.54822 45.2507 8.46564 45.034 8.38575 44.8162C8.30581 44.5984 8.22857 44.3797 8.15401 44.1601C8.0795 43.9404 8.00765 43.7199 7.93847 43.4984C7.86934 43.277 7.80294 43.0547 7.73927 42.8317C7.67556 42.6087 7.61461 42.3849 7.55641 42.1603C7.49822 41.9357 7.44278 41.7105 7.39009 41.4846C7.33741 41.2587 7.28751 41.0322 7.24039 40.8051C7.19326 40.5779 7.14892 40.3503 7.10736 40.1221C7.0658 39.8938 7.02706 39.6651 6.99115 39.436C6.95519 39.2068 6.92208 38.9772 6.89182 38.7472C6.86152 38.5173 6.83402 38.287 6.80935 38.0563C6.78469 37.8256 6.76287 37.5947 6.74387 37.3636C6.72488 37.1324 6.70873 36.901 6.69541 36.6694C6.68209 36.4378 6.67161 36.2061 6.66397 35.9742C6.65628 35.7417 6.65145 35.509 6.64947 35.2763C6.64748 35.0436 6.64836 34.8109 6.65211 34.5783C6.65584 34.3456 6.66244 34.113 6.6719 33.8805C6.68135 33.6479 6.69365 33.4156 6.70882 33.1834C6.72398 32.9512 6.74199 32.7192 6.76285 32.4874C6.78372 32.2556 6.80743 32.0242 6.83398 31.793C6.86051 31.5618 6.88989 31.3309 6.92211 31.1005C6.95433 30.87 6.98937 30.64 7.02724 30.4104C7.06511 30.1808 7.10581 29.9517 7.14933 29.7231C7.19285 29.4945 7.23916 29.2664 7.28824 29.039C7.33737 28.8115 7.38925 28.5847 7.44389 28.3585C7.49858 28.1323 7.55605 27.9068 7.61629 27.682C7.6765 27.4573 7.73946 27.2333 7.80517 27.01C7.87089 26.7868 7.93934 26.5644 8.01052 26.3429C8.08171 26.1213 8.1556 25.9007 8.23221 25.681C8.30882 25.4612 8.38812 25.2424 8.4701 25.0246C8.55209 24.8068 8.63674 24.5901 8.72406 24.3744C8.81138 24.1587 8.90131 23.9441 8.99387 23.7306C9.08648 23.5171 9.18168 23.3048 9.27948 23.0936C9.37723 22.8824 9.47761 22.6725 9.5806 22.4638C9.68355 22.2551 9.78905 22.0477 9.8971 21.8416C10.0052 21.6355 10.1157 21.4308 10.2288 21.2274C10.3419 21.024 10.4574 20.8221 10.5754 20.6215C10.6935 20.421 10.814 20.2219 10.9369 20.0244C11.0599 19.8267 11.1852 19.6307 11.313 19.4362C11.4407 19.2417 11.5708 19.0488 11.7033 18.8575C11.8358 18.6662 11.9707 18.4766 12.1078 18.2886C12.245 18.1005 12.3844 17.9142 12.5261 17.7297C12.6678 17.5451 12.8118 17.3623 12.958 17.1813C13.1042 17.0003 13.2526 16.8211 13.4033 16.6437C13.5539 16.4663 13.7067 16.2908 13.8616 16.1171C14.0166 15.9435 14.1736 15.7718 14.3327 15.602C19.7357 9.91154 26.6502 6.84753 34.4935 6.6465Z" fill="#FAFCFF"/>
<path d="M33.7236 8.28639C33.9301 8.27477 34.1368 8.26768 34.3436 8.26513C34.5616 8.25961 34.7797 8.25681 34.9978 8.25672C35.2159 8.25658 35.434 8.25913 35.652 8.26438C35.8701 8.26966 36.088 8.27761 36.3059 8.28823C36.5237 8.29885 36.7414 8.31216 36.9589 8.32816C37.1764 8.34415 37.3937 8.36281 37.6107 8.38414C37.8278 8.40547 38.0445 8.42949 38.261 8.45619C38.4775 8.48285 38.6936 8.5122 38.9093 8.54424C39.1251 8.57623 39.3404 8.61089 39.5552 8.64821C39.7701 8.68554 39.9845 8.72551 40.1984 8.76812C40.4123 8.81073 40.6256 8.85596 40.8384 8.90381C41.0512 8.95171 41.2634 9.0022 41.4749 9.05529C41.6865 9.10839 41.8973 9.16408 42.1075 9.22236C42.3176 9.28065 42.5271 9.34151 42.7357 9.40495C42.9444 9.46839 43.1523 9.5344 43.3593 9.60299C43.5663 9.67158 43.7725 9.74269 43.9778 9.81634C44.1831 9.88998 44.3874 9.96616 44.5908 10.0449C44.7942 10.1236 44.9966 10.2048 45.198 10.2884C45.3995 10.3721 45.5998 10.4583 45.7991 10.5469C45.9984 10.6355 46.1966 10.7266 46.3936 10.8201C46.5906 10.9136 46.7865 11.0095 46.9812 11.1079C47.1759 11.2062 47.3693 11.3069 47.5615 11.41C47.7537 11.5131 47.9446 11.6185 48.1341 11.7264C48.3238 11.8341 48.512 11.9443 48.6989 12.0567C48.8857 12.1692 49.0712 12.2839 49.2553 12.4009C49.4393 12.5179 49.6219 12.6372 49.803 12.7587C49.9841 12.8802 50.1637 13.004 50.3418 13.1299C50.5199 13.2558 50.6963 13.3839 50.8712 13.5142C51.0462 13.6445 51.2194 13.777 51.3911 13.9115C51.5627 14.0461 51.7327 14.1828 51.9009 14.3215C52.0692 14.4603 52.2357 14.6011 52.4006 14.744C52.5654 14.8868 52.7284 15.0316 52.8896 15.1785C53.0509 15.3254 53.2103 15.4742 53.3678 15.625C53.5289 15.7781 53.688 15.9331 53.8452 16.0901C54.0024 16.247 54.1576 16.406 54.3108 16.5668C54.4641 16.7277 54.6153 16.8904 54.7645 17.055C54.9137 17.2197 55.0608 17.3861 55.2058 17.5544C55.3508 17.7227 55.4938 17.8928 55.6345 18.0646C55.7753 18.2365 55.9139 18.4101 56.0504 18.5854C56.1869 18.7607 56.3211 18.9377 56.4532 19.1164C56.5853 19.295 56.7151 19.4753 56.8426 19.6571C56.9702 19.839 57.0955 20.0225 57.2185 20.2075C57.3415 20.3925 57.4621 20.579 57.5804 20.767C57.6988 20.9551 57.8148 21.1445 57.9284 21.3354C58.0421 21.5263 58.1533 21.7186 58.2621 21.9123C58.371 22.106 58.4773 22.301 58.5813 22.4973C58.6852 22.6937 58.7868 22.8913 58.8858 23.0902C58.9849 23.289 59.0814 23.4891 59.1755 23.6904C59.2695 23.8916 59.3611 24.094 59.4501 24.2976C59.5391 24.5011 59.6256 24.7057 59.7095 24.9115C59.7934 25.1172 59.8747 25.3239 59.9535 25.5316C60.0322 25.7393 60.1084 25.948 60.182 26.1576C60.2556 26.3673 60.3265 26.5778 60.3948 26.7892C60.4631 27.0006 60.5288 27.2128 60.5918 27.4258C60.6548 27.6389 60.7152 27.8527 60.7729 28.0672C60.8306 28.2818 60.8856 28.497 60.9379 28.7129C60.9903 28.9288 61.0399 29.1453 61.0869 29.3625C61.1338 29.5796 61.178 29.7973 61.2195 30.0156C61.261 30.2338 61.2998 30.4526 61.3359 30.6718C61.372 30.891 61.4053 31.1106 61.4358 31.3307C61.4664 31.5507 61.4943 31.7711 61.5194 31.9918C61.5445 32.2126 61.5668 32.4336 61.5864 32.6549C61.606 32.8762 61.6228 33.0977 61.6369 33.3195C61.651 33.5412 61.6623 33.763 61.6708 33.985C61.6793 34.207 61.6851 34.4291 61.6881 34.6512C61.6918 34.8662 61.693 35.0813 61.6915 35.2963C61.69 35.5113 61.6859 35.7263 61.6793 35.9412C61.6726 36.1562 61.6633 36.371 61.6513 36.5857C61.6394 36.8004 61.6249 37.015 61.6078 37.2293C61.5907 37.4437 61.571 37.6578 61.5487 37.8716C61.5264 38.0855 61.5015 38.2991 61.474 38.5124C61.4465 38.7257 61.4164 38.9386 61.3838 39.1511C61.3511 39.3637 61.3159 39.5758 61.2781 39.7875C61.2402 39.9992 61.1999 40.2104 61.1569 40.4211C61.114 40.6318 61.0685 40.8419 61.0205 41.0516C60.9725 41.2612 60.9219 41.4701 60.8688 41.6785C60.8157 41.8869 60.7601 42.0946 60.7019 42.3016C60.6438 42.5086 60.5832 42.715 60.52 42.9205C60.4569 43.1261 60.3912 43.3308 60.3231 43.5348C60.255 43.7387 60.1844 43.9418 60.1114 44.1441C60.0383 44.3463 59.9628 44.5477 59.8849 44.7481C59.807 44.9485 59.7266 45.148 59.6438 45.3465C59.561 45.5449 59.4759 45.7424 59.3883 45.9388C59.3008 46.1352 59.2108 46.3305 59.1185 46.5247C59.0262 46.7189 58.9315 46.912 58.8346 47.1039C58.7376 47.2958 58.6383 47.4865 58.5367 47.6761C58.435 47.8656 58.3311 48.0538 58.2249 48.2409C58.1188 48.4279 58.0103 48.6135 57.8996 48.7979C57.7889 48.9822 57.676 49.1652 57.5609 49.3469C57.4458 49.5285 57.3285 49.7087 57.2089 49.8874C57.0894 50.0662 56.9678 50.2435 56.8439 50.4193C56.7202 50.5952 56.5942 50.7695 56.4662 50.9422C56.3382 51.115 56.2081 51.2862 56.0759 51.4557C55.9436 51.6254 55.8094 51.7933 55.6732 51.9597C55.5369 52.126 55.3986 52.2907 55.2583 52.4537C55.1181 52.6167 54.9758 52.778 54.8316 52.9375C54.6875 53.0971 54.5414 53.2548 54.3934 53.4108C54.277 53.5327 54.1596 53.6534 54.0409 53.7731C53.9223 53.8927 53.8026 54.0112 53.6817 54.1286C53.5608 54.246 53.4389 54.3623 53.3159 54.4774C53.1929 54.5925 53.0688 54.7065 52.9436 54.8192C52.8184 54.9321 52.6922 55.0437 52.565 55.1541C52.4377 55.2645 52.3095 55.3738 52.1802 55.4818C52.0509 55.5898 51.9206 55.6966 51.7893 55.8022C51.658 55.9078 51.5257 56.0121 51.3925 56.1153C51.2592 56.2183 51.125 56.3202 50.9898 56.4208C50.8547 56.5214 50.7186 56.6207 50.5816 56.7188C50.4446 56.8168 50.3067 56.9136 50.1678 57.0091C50.029 57.1045 49.8893 57.1987 49.7487 57.2915C49.6081 57.3843 49.4667 57.4759 49.3243 57.5661C49.1821 57.6563 49.0389 57.7451 48.895 57.8326C48.751 57.9202 48.6062 58.0064 48.4606 58.0912C48.315 58.176 48.1687 58.2594 48.0215 58.3414C47.8744 58.4235 47.7265 58.5042 47.5778 58.5835C47.4292 58.6628 47.2798 58.7407 47.1297 58.8172C46.9795 58.8937 46.8287 58.9688 46.6772 59.0425C46.5257 59.1162 46.3735 59.1884 46.2206 59.2592C46.0677 59.3301 45.9142 59.3994 45.76 59.4674C45.6058 59.5353 45.4511 59.6018 45.2957 59.6669C45.1402 59.7319 44.9842 59.7955 44.8276 59.8577C44.671 59.9198 44.5138 59.9804 44.3561 60.0396C44.1983 60.0988 44.04 60.1565 43.8812 60.2127C43.7223 60.269 43.563 60.3237 43.4032 60.3769C43.2433 60.4301 43.083 60.4819 42.9221 60.5322C42.7613 60.5824 42.6 60.6311 42.4383 60.6783C42.2766 60.7255 42.1144 60.7712 41.9519 60.8154C41.7892 60.8596 41.6263 60.9022 41.4629 60.9433C41.2995 60.9845 41.1357 61.0241 40.9716 61.0621C40.8075 61.1002 40.643 61.1367 40.4782 61.1717C39.1133 61.4614 37.6893 61.6714 36.2927 61.6978L36.2246 61.7014C36.0331 61.7098 35.8415 61.7162 35.6499 61.7205C35.4583 61.7248 35.2666 61.727 35.075 61.7272C34.8833 61.7274 34.6916 61.7255 34.5 61.7216C34.3084 61.7177 34.1168 61.7117 33.9253 61.7036C33.7338 61.6956 33.5424 61.6855 33.3512 61.6733C33.1598 61.6612 32.9687 61.647 32.7778 61.6307C32.5868 61.6145 32.396 61.5962 32.2054 61.5758C32.0148 61.5554 31.8244 61.533 31.6343 61.5086C31.4442 61.4841 31.2544 61.4576 31.0649 61.4291C30.8753 61.4006 30.6861 61.37 30.4972 61.3374C30.3084 61.3048 30.1199 61.2702 29.9317 61.2336C29.7436 61.197 29.5558 61.1583 29.3685 61.1177C29.1812 61.077 28.9944 61.0343 28.808 60.9896C28.6216 60.9449 28.4358 60.8982 28.2504 60.8496C28.065 60.8009 27.8801 60.7502 27.6958 60.6976C27.5116 60.6449 27.3278 60.5903 27.1447 60.5337C26.9616 60.4771 26.7791 60.4185 26.5972 60.358C26.4153 60.2975 26.2341 60.235 26.0536 60.1706C25.8731 60.1062 25.6933 60.0399 25.5142 59.9716C25.3351 59.9033 25.1567 59.8331 24.9791 59.761C24.8016 59.6889 24.6248 59.6149 24.4487 59.539C24.2727 59.4631 24.0975 59.3853 23.9232 59.3057C23.7489 59.226 23.5755 59.1445 23.4029 59.0611C23.2303 58.9777 23.0586 58.8924 22.8879 58.8054C22.7171 58.7183 22.5474 58.6294 22.3785 58.5387C22.2097 58.4479 22.0418 58.3554 21.875 58.2611C21.7081 58.1668 21.5423 58.0707 21.3775 57.9728C21.2127 57.8749 21.049 57.7752 20.8864 57.6738C20.7237 57.5724 20.5622 57.4692 20.4018 57.3644C20.2413 57.2595 20.082 57.1529 19.9239 57.0446C19.7657 56.9363 19.6088 56.8263 19.453 56.7146C19.2972 56.6029 19.1427 56.4896 18.9893 56.3746C18.1785 55.7702 17.4201 55.0961 16.6727 54.4158C15.5314 53.377 14.5115 52.192 13.5897 50.9562C13.4896 50.8228 13.3907 50.6885 13.2931 50.5533C13.1956 50.418 13.0993 50.2818 13.0043 50.1447C12.9093 50.0077 12.8156 49.8698 12.7232 49.7309C12.6309 49.5921 12.5398 49.4524 12.4501 49.3118C12.3603 49.1712 12.2719 49.0299 12.1848 48.8876C12.0978 48.7453 12.0121 48.6023 11.9277 48.4585C11.8434 48.3146 11.7604 48.1699 11.6788 48.0245C11.5972 47.879 11.517 47.7328 11.4381 47.5859C11.3593 47.4389 11.2818 47.2912 11.2058 47.1428C11.1297 46.9944 11.0551 46.8453 10.9818 46.6955C10.9087 46.5456 10.8369 46.3951 10.7664 46.2439C10.6961 46.0927 10.6272 45.9409 10.5597 45.7883C10.4922 45.6359 10.4261 45.4827 10.3616 45.329C10.2969 45.1753 10.2338 45.0209 10.1721 44.866C10.1105 44.711 10.0503 44.5555 9.99152 44.3994C9.93278 44.2433 9.87554 44.0867 9.8198 43.9295C9.76402 43.7723 9.70974 43.6146 9.65697 43.4565C9.6042 43.2983 9.55293 43.1396 9.50316 42.9804C9.45335 42.8213 9.40509 42.6617 9.35838 42.5016C9.31162 42.3415 9.26639 42.1809 9.22268 42.02C9.17893 41.8591 9.13673 41.6977 9.09608 41.536C9.05543 41.3743 9.01631 41.2122 8.97871 41.0497C8.94116 40.8872 8.90513 40.7244 8.87063 40.5612C8.83613 40.3981 8.80316 40.2346 8.77172 40.0708C8.74032 39.907 8.71047 39.743 8.68217 39.5786C8.65387 39.4143 8.62714 39.2497 8.60198 39.0848C8.57678 38.9199 8.55315 38.7548 8.53109 38.5896C8.50903 38.4243 8.48855 38.2588 8.46964 38.0931C8.45068 37.9274 8.43332 37.7615 8.41755 37.5955C8.40178 37.4295 8.38758 37.2634 8.37496 37.0971C8.36229 36.9308 8.35122 36.7644 8.34174 36.5978C8.33226 36.4314 8.32435 36.2648 8.31802 36.0981C7.98852 28.8732 10.6627 22.0449 15.5258 16.7378C15.6717 16.5808 15.8195 16.4256 15.9691 16.2721C16.1188 16.1187 16.2703 15.9671 16.4236 15.8173C16.5769 15.6675 16.7321 15.5196 16.889 15.3736C17.0459 15.2276 17.2045 15.0835 17.3649 14.9414C17.5253 14.7992 17.6874 14.659 17.8512 14.5207C18.015 14.3825 18.1804 14.2462 18.3475 14.112C18.5146 13.9777 18.6833 13.8455 18.8536 13.7154C19.0238 13.5852 19.1957 13.4571 19.3691 13.3311C19.5424 13.2051 19.7173 13.0812 19.8937 12.9594C20.0701 12.8377 20.2479 12.7181 20.4272 12.6006C20.6065 12.4831 20.7872 12.3679 20.9692 12.2548C21.1513 12.1417 21.3347 12.0308 21.5194 11.9221C21.7042 11.8135 21.8903 11.7071 22.0776 11.603C22.2649 11.4988 22.4535 11.397 22.6433 11.2973C22.8331 11.1978 23.0241 11.1005 23.2162 11.0056C23.4084 10.9106 23.6016 10.818 23.796 10.7277C23.9904 10.6374 24.1859 10.5495 24.3824 10.464C24.5789 10.3784 24.7764 10.2953 24.975 10.2145C25.1735 10.1337 25.373 10.0554 25.5734 9.97944C25.7739 9.90352 25.9752 9.83001 26.1774 9.75892C26.3796 9.68787 26.5826 9.61926 26.7865 9.55309C26.9904 9.48696 27.195 9.42329 27.4005 9.36209C27.6059 9.30089 27.812 9.24219 28.0188 9.186C28.2257 9.12981 28.4331 9.07612 28.6413 9.02494C28.8494 8.97376 29.0581 8.92509 29.2674 8.87893C29.4767 8.83281 29.6866 8.78922 29.897 8.74815C30.1073 8.70714 30.3182 8.66865 30.5295 8.6327C30.7408 8.59674 30.9524 8.56336 31.1645 8.53255C31.3767 8.5017 31.5891 8.47344 31.8019 8.44778C32.0147 8.42208 32.2278 8.39898 32.4412 8.37847C32.6545 8.35796 32.868 8.34003 33.0818 8.32467C33.2956 8.30931 33.5095 8.29655 33.7236 8.28639Z" fill="url(#paint2_linear_2023_2156)"/>
<path d="M35.4437 9.06905C39.4149 9.04123 44.1508 10.3216 47.5685 12.3409C47.2138 13.005 46.8495 13.6638 46.4758 14.3173C46.2281 14.7533 45.9596 15.1859 45.7497 15.6416C45.9656 15.7485 46.1606 15.8848 46.3597 16.0194C46.6801 15.5604 46.9467 15.0554 47.2212 14.5677C47.568 13.9492 47.9191 13.3331 48.2744 12.7194C51.8708 14.8865 55.1859 18.0643 57.2494 21.7445C56.8177 21.9897 56.4043 22.2716 55.978 22.5268C55.3195 22.9211 54.6497 23.2946 54.0032 23.7085C54.1345 23.9289 54.2838 24.1414 54.4247 24.3559C54.8006 24.1739 55.1623 23.9261 55.5221 23.7118L57.6554 22.443C59.7113 26.2658 60.84 30.2714 60.8663 34.6247C60.0047 34.6363 59.1411 34.6255 58.2794 34.6185C57.8423 34.6149 57.3829 34.5833 56.9479 34.6188C56.8532 34.6265 56.7434 34.638 56.6641 34.6969C56.5851 34.7555 56.5429 34.8242 56.5308 34.9214C56.5152 35.0468 56.5488 35.1815 56.6324 35.2778C56.6967 35.3516 56.7843 35.3713 56.8766 35.3848C57.3226 35.45 57.8131 35.4087 58.263 35.4057L60.8693 35.3834C60.9026 39.7202 59.711 43.7767 57.685 47.5788C57.0245 47.1752 56.3558 46.7893 55.6893 46.3959C55.3801 46.2133 55.0718 45.9935 54.7493 45.8373C54.649 45.7887 54.5389 45.7534 54.4268 45.7493C54.2879 45.7442 54.1467 45.7873 54.0551 45.897C53.9996 45.9635 53.9769 46.0472 53.9899 46.1326C54.005 46.2315 54.0641 46.3175 54.1366 46.3835C54.4392 46.6584 54.879 46.8604 55.2318 47.0678C55.9195 47.4691 56.6049 47.8742 57.2883 48.2829C56.7239 49.0983 56.2235 49.948 55.6247 50.7426C55.4992 50.907 55.3717 51.0699 55.2423 51.2313C55.1128 51.3926 54.9813 51.5524 54.8479 51.7105C54.7146 51.8687 54.5793 52.0252 54.4421 52.18C54.3049 52.3349 54.1658 52.4881 54.0249 52.6395C53.884 52.791 53.7412 52.9407 53.5966 53.0887C53.452 53.2367 53.3057 53.3829 53.1575 53.5273C53.0094 53.6717 52.8595 53.8143 52.7079 53.955C52.5563 54.0958 52.403 54.2347 52.2479 54.3717C52.0929 54.5087 51.9363 54.6439 51.778 54.7771C51.6197 54.9103 51.4598 55.0415 51.2983 55.1708C51.1368 55.3001 50.9737 55.4274 50.8091 55.5528C50.6445 55.6781 50.4784 55.8014 50.3108 55.9227C50.1432 56.044 49.9741 56.1632 49.8036 56.2804C49.6331 56.3975 49.4612 56.5126 49.2878 56.6256C49.1145 56.7385 48.9399 56.8494 48.7639 56.9581C48.5878 57.0668 48.4105 57.1733 48.2319 57.2777L47.1962 55.519C46.9811 55.151 46.7756 54.7359 46.5168 54.3988C46.431 54.2871 46.3123 54.1554 46.1747 54.1081C46.098 54.0817 46.0167 54.0787 45.9456 54.1237C45.8684 54.1726 45.808 54.2836 45.7842 54.3693C45.7619 54.4498 45.756 54.5567 45.7822 54.6363C45.9013 54.9985 46.1853 55.367 46.3819 55.6946L47.5521 57.6557C43.8563 59.6498 40.0823 60.8135 35.8622 60.8801L35.4118 60.8848C35.4014 60.053 35.3968 59.2212 35.398 58.3893C35.3992 57.9133 35.4384 57.4036 35.3854 56.9311C35.3749 56.8371 35.3609 56.7479 35.2966 56.6731C35.2327 56.5989 35.1381 56.5584 35.0424 56.5476C34.9246 56.5343 34.8076 56.565 34.7218 56.651C34.6644 56.7086 34.624 56.7852 34.6127 56.8661C34.5569 57.2645 34.6049 57.7318 34.6033 58.1374L34.5893 60.9086C30.2913 60.7945 26.222 59.7235 22.4565 57.6391C22.7797 57.0704 23.1084 56.5049 23.4425 55.9427C23.6591 55.5836 23.9405 55.2063 24.1009 54.8201C24.1534 54.6937 24.1925 54.5436 24.171 54.4059C24.1599 54.3344 24.1236 54.2603 24.0636 54.2191C23.9624 54.1497 23.8182 54.1416 23.7006 54.1743C23.6261 54.1951 23.5733 54.2299 23.5229 54.2872C23.2289 54.6215 23.0145 55.0938 22.793 55.481C22.4554 56.0698 22.1145 56.6567 21.7704 57.2416C18.3318 55.2198 14.7238 51.7894 12.7815 48.2871C13.3877 47.9018 13.9979 47.5231 14.6122 47.1508C14.9881 46.9247 15.4089 46.7133 15.7526 46.4428C15.8346 46.3782 15.9013 46.3143 15.9387 46.2152C15.9769 46.1139 15.9583 45.9937 15.9059 45.9014C15.8495 45.8018 15.7558 45.7241 15.6424 45.7006C15.55 45.6814 15.4776 45.6972 15.3934 45.7356C15.0815 45.8782 14.7914 46.1136 14.4982 46.2941L12.3901 47.5749C12.1312 47.057 11.8285 46.565 11.5832 46.0388C9.98475 42.6097 9.18938 39.0707 9.11768 35.2892C9.70673 35.2912 13.0023 35.3766 13.2834 35.1838C13.3704 35.1242 13.4195 35.0304 13.4263 34.926C13.4342 34.8038 13.3947 34.696 13.3076 34.61C13.239 34.5422 13.1661 34.5281 13.0725 34.5164C12.6285 34.4605 12.1491 34.4998 11.7006 34.4988L9.12602 34.4834C9.13811 30.4203 10.356 25.9377 12.3855 22.4177C13.0809 22.8148 13.7642 23.2428 14.4453 23.6643C14.8063 23.8876 15.1812 24.1613 15.5703 24.3303C15.6418 24.3613 15.6788 24.3692 15.7568 24.3602C15.8669 24.3475 15.9759 24.2666 16.0387 24.1787C16.0992 24.0942 16.1259 23.9892 16.1035 23.8866C16.0758 23.76 15.9726 23.6719 15.8751 23.5958C15.5374 23.3321 15.1278 23.1323 14.7601 22.9096C14.1079 22.5147 13.4671 22.0968 12.7963 21.734C14.3485 18.9428 16.8093 16.3076 19.3348 14.3712C20.106 13.78 20.9138 13.2554 21.732 12.7329C21.9725 13.22 22.2711 13.6855 22.5501 14.1516C22.9186 14.7772 23.2917 15.4001 23.6693 16.0202C23.9006 15.8898 24.1263 15.7475 24.3539 15.6106C24.1993 15.3019 24.0019 15.0065 23.8233 14.7103C23.3524 13.9287 22.8516 13.152 22.4367 12.3392C23.1176 11.9119 23.8812 11.5557 24.6162 11.2318C24.8046 11.1485 24.994 11.0675 25.1845 10.9888C25.3749 10.9101 25.5662 10.8337 25.7585 10.7596C25.9507 10.6856 26.1439 10.6139 26.3379 10.5446C26.5319 10.4752 26.7267 10.4083 26.9224 10.3437C27.118 10.2791 27.3144 10.2169 27.5116 10.1571C27.7088 10.0973 27.9066 10.0399 28.1052 9.98493C28.3037 9.92997 28.5029 9.87742 28.7028 9.82729C28.9026 9.77716 29.103 9.72947 29.3041 9.68421C29.505 9.63901 29.7066 9.59624 29.9086 9.5559C30.1107 9.51557 30.3132 9.4777 30.5161 9.44229C30.7191 9.40688 30.9225 9.37398 31.1262 9.34358C31.33 9.31314 31.5341 9.28518 31.7386 9.2597C31.9431 9.23423 32.1478 9.21126 32.3528 9.1908C32.5578 9.17033 32.763 9.15236 32.9685 9.13686C33.1739 9.12141 33.3795 9.10845 33.5853 9.09796C33.7911 9.08748 33.997 9.07953 34.2029 9.07411L34.6507 9.07814C34.6625 10.5298 34.6651 11.9815 34.6584 13.4332C34.9162 13.4447 35.1763 13.4374 35.4343 13.4366C35.4611 11.9818 35.4442 10.5243 35.4437 9.06905Z" fill="#FAFCFF"/>
<path d="M35.0036 14.374L35.0485 14.4101C35.1554 14.7603 35.1403 15.2491 35.1698 15.6186L35.3988 18.7336L36.3369 32.4499C36.4004 32.4844 36.4625 32.5214 36.5231 32.5609C36.5837 32.6004 36.6426 32.6422 36.6999 32.6863C36.7571 32.7304 36.8126 32.7767 36.8662 32.8252C36.9198 32.8737 36.9715 32.9243 37.0211 32.9769C37.0707 33.0294 37.1182 33.0838 37.1635 33.1402C37.2088 33.1965 37.2518 33.2545 37.2925 33.3143C37.3333 33.374 37.3716 33.4353 37.4075 33.498C37.4434 33.5608 37.4767 33.6249 37.5076 33.6903C37.8825 34.4797 37.8387 35.2728 37.5496 36.0766C37.9646 36.7448 38.3512 37.4364 38.753 38.1133C39.8062 39.8911 40.8468 41.6764 41.8748 43.469C42.8871 45.2398 43.9373 46.9886 44.886 48.7952C44.431 48.2939 43.998 47.7689 43.5554 47.2564C40.8519 44.1242 38.1884 40.9584 35.5648 37.7591C34.9886 37.8402 34.4562 37.8127 33.9128 37.59C33.8693 37.5721 33.8263 37.5531 33.7838 37.533C33.7412 37.5129 33.6992 37.4918 33.6577 37.4697C33.6162 37.4475 33.5753 37.4243 33.535 37.4001C33.4946 37.3759 33.4549 37.3507 33.4159 37.3245C33.3768 37.2982 33.3384 37.2711 33.3007 37.243C33.263 37.2149 33.226 37.1859 33.1897 37.1559C33.1534 37.1259 33.1179 37.0951 33.0832 37.0633C33.0485 37.0316 33.0146 36.999 32.9815 36.9656C32.9484 36.9321 32.9161 36.8979 32.8848 36.8628C32.8534 36.8278 32.8229 36.792 32.7933 36.7554C32.7637 36.7188 32.735 36.6816 32.7073 36.6436C32.6796 36.6056 32.6528 36.5669 32.627 36.5276C32.6012 36.4882 32.5764 36.4482 32.5526 36.4077C32.5288 36.3671 32.5061 36.3259 32.4843 36.2842C32.4626 36.2425 32.4419 36.2003 32.4223 36.1575C32.4026 36.1147 32.3841 36.0715 32.3666 36.0279C32.3486 35.9839 32.3317 35.9394 32.3158 35.8946C32.3 35.8497 32.2853 35.8045 32.2718 35.7589C32.2582 35.7133 32.2458 35.6674 32.2346 35.6212C32.2233 35.575 32.2131 35.5285 32.2042 35.4818C32.1952 35.4351 32.1874 35.3882 32.1808 35.3411C32.1742 35.294 32.1688 35.2467 32.1646 35.1994C32.1603 35.152 32.1572 35.1045 32.1553 35.057C32.1535 35.0094 32.1528 34.9619 32.1532 34.9144C32.1537 34.8668 32.1554 34.8193 32.1582 34.7718C32.1611 34.7243 32.1651 34.6769 32.1704 34.6297C32.1756 34.5824 32.1819 34.5352 32.1895 34.4883C32.1971 34.4413 32.2058 34.3945 32.2158 34.348C32.2256 34.3015 32.2367 34.2553 32.2489 34.2093C32.2611 34.1633 32.2745 34.1177 32.289 34.0724C32.3034 34.0271 32.319 33.9822 32.3358 33.9377C32.3525 33.8931 32.3703 33.849 32.3893 33.8054C32.6406 33.2146 33.1271 32.6541 33.7303 32.4097C33.7407 31.2133 33.8648 29.9959 33.9374 28.8002C34.0649 26.4438 34.2149 24.0888 34.3875 21.7353C34.4898 20.1364 34.6036 18.5384 34.7288 16.9411C34.7969 16.0986 34.8264 15.1991 35.0036 14.374Z" fill="url(#paint3_linear_2023_2156)"/>
<path d="M37.0178 36.9036C37.1631 36.9764 39.8241 41.4808 40.2 42.067C40.0465 41.9202 39.9184 41.7491 39.7858 41.5837C38.6563 40.1802 37.5123 38.7887 36.354 37.4089C36.5958 37.262 36.8139 37.0997 37.0178 36.9036Z" fill="#FAFCFF"/>
<path d="M34.9826 24.428C35.0759 24.6343 35.4367 31.3452 35.4611 32.1146L35.0519 32.0926L34.594 32.1174C34.6767 29.5542 34.858 26.9897 34.9826 24.428Z" fill="#FAFCFF"/>
<path d="M34.8173 32.9238C35.3076 32.8803 35.8196 33.0474 36.2008 33.3536C36.6164 33.6874 36.8661 34.1912 36.9171 34.718C36.9206 34.7529 36.9232 34.7877 36.9251 34.8227C36.9269 34.8576 36.9279 34.8926 36.9279 34.9276C36.9281 34.9626 36.9273 34.9975 36.9257 35.0325C36.9241 35.0674 36.9216 35.1023 36.9183 35.1371C36.9149 35.172 36.9107 35.2067 36.9057 35.2413C36.9007 35.276 36.8948 35.3104 36.8881 35.3448C36.8813 35.3791 36.8738 35.4133 36.8653 35.4472C36.8569 35.4812 36.8477 35.5149 36.8376 35.5484C36.8276 35.5819 36.8167 35.6152 36.805 35.6481C36.7933 35.6811 36.7808 35.7138 36.7675 35.7462C36.7542 35.7785 36.7401 35.8105 36.7252 35.8422C36.7103 35.8739 36.6947 35.9052 36.6783 35.9361C36.6618 35.967 36.6447 35.9974 36.6268 36.0275C36.6088 36.0575 36.5902 36.0871 36.5708 36.1163C36.5515 36.1454 36.5314 36.1741 36.5106 36.2023C36.4899 36.2304 36.4684 36.258 36.4463 36.2851C36.0881 36.7171 35.6234 36.914 35.077 36.9673C34.6384 36.9861 34.2298 36.8906 33.8632 36.6431C33.4152 36.3408 33.1243 35.8635 33.0295 35.3342C33.0232 35.3003 33.0177 35.2662 33.013 35.232C33.0084 35.1978 33.0046 35.1635 33.0017 35.1291C32.9987 35.0947 32.9967 35.0602 32.9956 35.0257C32.9944 34.9912 32.9941 34.9567 32.9947 34.9222C32.9953 34.8876 32.9967 34.8531 32.9991 34.8187C33.0014 34.7842 33.0046 34.7498 33.0086 34.7156C33.0127 34.6813 33.0177 34.6471 33.0235 34.613C33.0292 34.579 33.0359 34.5451 33.0434 34.5115C33.0509 34.4777 33.0593 34.4442 33.0686 34.411C33.0778 34.3777 33.0878 34.3447 33.0987 34.3119C33.1096 34.2791 33.1213 34.2467 33.1339 34.2145C33.1464 34.1823 33.1597 34.1505 33.1739 34.119C33.188 34.0875 33.203 34.0563 33.2187 34.0256C33.2344 33.9949 33.2509 33.9645 33.2682 33.9346C33.2855 33.9047 33.3035 33.8753 33.3222 33.8463C33.341 33.8173 33.3604 33.7888 33.3806 33.7608C33.738 33.2615 34.2256 33.0252 34.8173 32.9238Z" fill="#FAFCFF"/>
<defs>
<linearGradient id="paint0_linear_2023_2156" x1="34.9813" y1="1.40393" x2="34.9813" y2="68.5745" gradientUnits="userSpaceOnUse">
<stop stop-color="#085DA9"/>
<stop offset="0.2" stop-color="#6C5B97"/>
<stop offset="0.4" stop-color="#995685"/>
<stop offset="0.6" stop-color="#BE4F73"/>
<stop offset="0.8" stop-color="#E04461"/>
<stop offset="1" stop-color="#FF314F"/>
</linearGradient>
<linearGradient id="paint1_linear_2023_2156" x1="34.9861" y1="5.83069" x2="34.9861" y2="64.1567" gradientUnits="userSpaceOnUse">
<stop stop-color="#085DA9"/>
<stop offset="0.2" stop-color="#6C5B97"/>
<stop offset="0.4" stop-color="#995685"/>
<stop offset="0.6" stop-color="#BE4F73"/>
<stop offset="0.8" stop-color="#E04461"/>
<stop offset="1" stop-color="#FF314F"/>
</linearGradient>
<linearGradient id="paint2_linear_2023_2156" x1="34.9914" y1="8.25671" x2="34.9914" y2="61.7272" gradientUnits="userSpaceOnUse">
<stop stop-color="#085DA9"/>
<stop offset="0.2" stop-color="#6C5B97"/>
<stop offset="0.4" stop-color="#995685"/>
<stop offset="0.6" stop-color="#BE4F73"/>
<stop offset="0.8" stop-color="#E04461"/>
<stop offset="1" stop-color="#FF314F"/>
</linearGradient>
<linearGradient id="paint3_linear_2023_2156" x1="38.5196" y1="14.374" x2="38.5196" y2="48.7952" gradientUnits="userSpaceOnUse">
<stop stop-color="#085DA9"/>
<stop offset="0.2" stop-color="#6C5B97"/>
<stop offset="0.4" stop-color="#995685"/>
<stop offset="0.6" stop-color="#BE4F73"/>
<stop offset="0.8" stop-color="#E04461"/>
<stop offset="1" stop-color="#FF314F"/>
</linearGradient>
</defs>
</svg>
