<svg width="70" height="70" viewBox="0 0 70 70" fill="none" xmlns="http://www.w3.org/2000/svg">
<path d="M20.7089 4.51107C20.8005 4.50305 20.8942 4.49338 20.9851 4.51228C21.0887 4.53382 21.1443 4.5726 21.2102 4.65288C21.6339 5.1687 22.1038 5.99127 22.4837 6.56834C23.0152 7.37562 23.5977 8.16544 24.0951 8.99225C24.1862 9.14367 24.266 9.26425 24.2126 9.44739C24.1641 9.61357 24.0483 9.70428 23.904 9.78618C23.8641 9.79062 23.8241 9.79486 23.784 9.79629C23.6659 9.80053 23.5552 9.771 23.4702 9.685C23.158 9.36946 22.5772 8.38925 22.3067 7.98279L21.1985 6.31521C20.9613 5.95806 20.7009 5.60035 20.5004 5.22162C20.4501 5.12651 20.4085 5.04629 20.4162 4.93671C20.4294 4.74878 20.5691 4.61816 20.7089 4.51107Z" fill="url(#paint0_linear_2023_2512)"/>
<path d="M48.9442 4.51404C49.0303 4.51898 49.1262 4.52331 49.208 4.55102C49.3102 4.58561 49.4083 4.66359 49.4546 4.76196C49.5047 4.86849 49.5098 5.02883 49.4653 5.13698C49.2857 5.57291 48.6291 6.46029 48.3405 6.91255L47.1166 8.83693C46.9311 9.12862 46.7552 9.46133 46.54 9.73039C46.4755 9.81106 46.3684 9.85132 46.2763 9.89172C46.1868 9.88611 46.0874 9.87812 46.0057 9.83915C45.8839 9.78111 45.7766 9.68473 45.732 9.55484C45.6945 9.44567 45.6931 9.34956 45.7473 9.24695C46.1093 8.56227 46.5914 7.92974 47.0043 7.27403C47.403 6.64103 47.7973 6.00692 48.2056 5.3799C48.3548 5.15076 48.4993 4.87189 48.6799 4.66989C48.7474 4.59444 48.8537 4.55388 48.9442 4.51404Z" fill="url(#paint1_linear_2023_2512)"/>
<path d="M15.0601 38.5179C15.1262 38.517 15.1951 38.515 15.2608 38.5244C15.3847 38.5423 15.5198 38.6057 15.5872 38.715C15.6627 38.8372 15.6823 39.0228 15.6306 39.1574C15.5899 39.2633 15.5051 39.3251 15.4158 39.3882C14.7682 39.8455 14.0077 40.2223 13.3188 40.6207C12.469 41.1121 11.6167 41.6602 10.7368 42.0918C10.6683 42.1005 10.5917 42.1135 10.5235 42.0991C10.3891 42.0706 10.267 41.9613 10.2054 41.8415C10.151 41.7358 10.1376 41.6109 10.1748 41.4975C10.2043 41.4076 10.2582 41.3337 10.3315 41.2745C10.8414 40.8629 11.8533 40.3644 12.4489 40.0229C13.3159 39.5256 14.1703 38.9706 15.0601 38.5179Z" fill="url(#paint2_linear_2023_2512)"/>
<path d="M6.61764 27.6994C7.28803 27.6804 11.9469 27.642 12.2245 27.7667C12.2392 27.7732 12.2536 27.7806 12.2676 27.7887C12.2815 27.7968 12.295 27.8056 12.3081 27.8152C12.3211 27.8247 12.3336 27.8349 12.3456 27.8458C12.3575 27.8567 12.3689 27.8681 12.3796 27.8802C12.3903 27.8923 12.4004 27.9049 12.4098 27.9181C12.4192 27.9312 12.4278 27.9448 12.4358 27.9589C12.4437 27.973 12.4509 27.9874 12.4573 28.0023C12.4637 28.0171 12.4693 28.0322 12.4741 28.0477C12.5122 28.173 12.4935 28.3206 12.4274 28.4337C12.3524 28.5622 12.2438 28.6056 12.1065 28.6436C11.4283 28.6481 6.71392 28.7186 6.4736 28.6097C6.34882 28.5531 6.2577 28.4518 6.21782 28.3204C6.21312 28.3045 6.20924 28.2886 6.20618 28.2724C6.20312 28.2562 6.20089 28.2399 6.19949 28.2234C6.19809 28.207 6.19754 28.1906 6.19783 28.1741C6.19811 28.1576 6.19923 28.1412 6.2012 28.1249C6.20316 28.1085 6.20595 28.0923 6.20956 28.0762C6.21319 28.0601 6.21762 28.0442 6.22285 28.0286C6.22809 28.013 6.23412 27.9977 6.24092 27.9827C6.24773 27.9676 6.25528 27.953 6.26358 27.9388C6.34726 27.7941 6.46001 27.7364 6.61764 27.6994Z" fill="url(#paint3_linear_2023_2512)"/>
<path d="M59.2782 14.155C59.3429 14.1608 59.4102 14.1655 59.4734 14.1807C59.5903 14.2088 59.7096 14.327 59.7671 14.4302C59.8231 14.5309 59.8346 14.6434 59.7971 14.7526C59.7579 14.8665 59.6822 14.9479 59.5867 15.0185C59.006 15.4479 58.3184 15.7831 57.6981 16.1563C57.0834 16.5264 56.4665 16.8929 55.8476 17.2559C55.4956 17.4634 55.1437 17.6967 54.7704 17.8619C54.6826 17.8539 54.5973 17.841 54.5183 17.7995C54.3946 17.7345 54.276 17.6093 54.2406 17.4718C54.2124 17.3627 54.2353 17.2491 54.2921 17.1531C54.3606 17.0375 54.4836 16.9623 54.5943 16.8904C55.3163 16.4207 56.0884 16.004 56.8289 15.5629C57.3489 15.2532 58.8507 14.2765 59.2782 14.155Z" fill="url(#paint4_linear_2023_2512)"/>
<path d="M10.5213 14.0424C10.5682 14.0506 10.5596 14.048 10.6149 14.0642C11.0001 14.1773 12.0395 14.8766 12.4362 15.1145C13.4615 15.7293 14.5362 16.31 15.5209 16.9845C15.614 17.0483 15.7186 17.1143 15.7693 17.219C15.8207 17.3255 15.8308 17.4592 15.7812 17.5674C15.6967 17.7517 15.5573 17.828 15.3727 17.889C15.3171 17.8798 15.2657 17.8688 15.2131 17.8477C14.7457 17.66 14.1875 17.2507 13.7423 16.9875L11.591 15.6956C11.1747 15.4443 10.7345 15.2073 10.3414 14.9221C10.2408 14.8492 10.1654 14.7873 10.1178 14.67C10.0749 14.5638 10.0725 14.4527 10.1217 14.3482C10.2044 14.1729 10.3499 14.1099 10.5213 14.0424Z" fill="url(#paint5_linear_2023_2512)"/>
<path d="M54.6985 38.4474C54.7509 38.4447 54.8025 38.4455 54.8547 38.4515C55.0683 38.4761 59.1276 40.8767 59.5605 41.1554C59.6624 41.2211 59.8073 41.3041 59.8707 41.408C59.9296 41.5047 59.9401 41.6461 59.9155 41.7535C59.8734 41.9382 59.7154 42.0484 59.5598 42.132C59.5388 42.132 59.5178 42.1326 59.4968 42.132C59.3367 42.1281 59.1844 42.0473 59.0448 41.9751C58.5734 41.7311 58.1324 41.4149 57.674 41.1459C57.1368 40.8305 54.7017 39.5431 54.4453 39.238C54.3631 39.1403 54.3289 38.9825 54.3497 38.8587C54.3814 38.6687 54.5493 38.5451 54.6985 38.4474Z" fill="url(#paint6_linear_2023_2512)"/>
<path d="M34.9376 0.691895C35.0155 0.697746 35.089 0.703981 35.1639 0.727599C35.2792 0.763898 35.3722 0.829399 35.4224 0.944011C35.5135 1.1518 35.5234 6.66426 35.4336 6.88236C35.3608 7.05934 35.2281 7.12059 35.0585 7.18752C34.9753 7.18027 34.8923 7.1707 34.8152 7.13673C34.7122 7.09147 34.6248 7.0348 34.5849 6.9242C34.4832 6.64172 34.509 1.7971 34.54 1.20548C34.5457 1.09612 34.5505 0.986045 34.6073 0.889105C34.6828 0.760274 34.7997 0.722533 34.9376 0.691895Z" fill="url(#paint7_linear_2023_2512)"/>
<path d="M57.7549 27.6928C59.1428 27.6577 60.5375 27.6857 61.9263 27.6856C62.2642 27.6855 63.0634 27.6198 63.353 27.6955C63.5161 27.7382 63.66 27.8286 63.7379 27.9821C63.7907 28.0861 63.8019 28.2057 63.7626 28.316C63.6956 28.5038 63.5559 28.5908 63.3817 28.6672C62.5906 28.6559 58.006 28.7409 57.6484 28.606C57.6348 28.6009 57.6215 28.5951 57.6085 28.5887C57.5955 28.5823 57.5828 28.5752 57.5706 28.5675C57.5583 28.5598 57.5464 28.5515 57.5349 28.5426C57.5234 28.5338 57.5124 28.5244 57.5019 28.5144C57.4914 28.5044 57.4813 28.4939 57.4718 28.4829C57.4623 28.472 57.4534 28.4606 57.4451 28.4488C57.4367 28.4369 57.4289 28.4246 57.4218 28.412C57.4146 28.3994 57.4081 28.3864 57.4023 28.3732C57.3481 28.2479 57.3434 28.0933 57.4023 27.9692C57.4759 27.8141 57.6005 27.749 57.7549 27.6928Z" fill="url(#paint8_linear_2023_2512)"/>
<path d="M33.9974 9.61892C34.5792 9.53853 35.2649 9.57866 35.8529 9.61291C41.0499 9.91574 45.6993 12.0926 49.1661 15.9977C49.3055 16.1544 49.4422 16.3134 49.576 16.4747C49.71 16.636 49.8411 16.7996 49.9694 16.9654C50.0977 17.1313 50.2231 17.2993 50.3456 17.4695C50.4681 17.6396 50.5877 17.8118 50.7043 17.9861C50.8208 18.1604 50.9344 18.3366 51.045 18.5148C51.1555 18.6929 51.2629 18.873 51.3673 19.0548C51.4716 19.2367 51.5728 19.4203 51.6709 19.6057C51.7689 19.791 51.8637 19.978 51.9553 20.1666C52.0469 20.3552 52.1352 20.5453 52.2203 20.737C52.3053 20.9286 52.3871 21.1217 52.4655 21.3162C52.5439 21.5106 52.6189 21.7064 52.6906 21.9034C52.7623 22.1004 52.8306 22.2987 52.8955 22.498C52.9604 22.6974 53.0218 22.8978 53.0798 23.0993C53.1378 23.3008 53.1923 23.5033 53.2433 23.7066C53.2943 23.91 53.3418 24.1142 53.3858 24.3193C53.4298 24.5243 53.4703 24.7299 53.5072 24.9363C53.5316 25.0717 53.5545 25.2072 53.576 25.343C53.5974 25.4788 53.6173 25.6148 53.6356 25.7511C53.654 25.8873 53.6708 26.0238 53.6862 26.1604C53.7015 26.297 53.7153 26.4338 53.7275 26.5707C53.7398 26.7076 53.7505 26.8447 53.7597 26.9819C53.7689 27.119 53.7765 27.2563 53.7826 27.3937C53.7887 27.531 53.7933 27.6684 53.7964 27.8059C53.7994 27.9433 53.8008 28.0808 53.8008 28.2183C53.8008 28.3557 53.7992 28.4932 53.796 28.6306C53.7929 28.7681 53.7883 28.9055 53.7821 29.0428C53.7759 29.1802 53.7681 29.3175 53.7588 29.4546C53.7495 29.5918 53.7387 29.7288 53.7263 29.8657C53.714 30.0027 53.7001 30.1395 53.6847 30.276C53.6693 30.4127 53.6524 30.5491 53.6339 30.6853C53.6155 30.8216 53.5955 30.9576 53.574 31.0933C53.5525 31.2291 53.5294 31.3647 53.5049 31.4999C53.4803 31.6352 53.4543 31.7702 53.4267 31.9049C53.3992 32.0396 53.3701 32.1739 53.3395 32.308C53.3089 32.442 53.2768 32.5757 53.2433 32.709C53.2097 32.8424 53.1746 32.9753 53.1381 33.1078C53.1015 33.2403 53.0635 33.3725 53.024 33.5042C52.9845 33.6358 52.9435 33.7671 52.901 33.8979C52.8586 34.0286 52.8147 34.1589 52.7693 34.2887C52.724 34.4184 52.6772 34.5477 52.6289 34.6764C52.5807 34.8051 52.5309 34.9333 52.4798 35.0609C52.4287 35.1886 52.3761 35.3156 52.3222 35.442C52.2682 35.5685 52.2128 35.6943 52.1561 35.8195C52.0992 35.9447 52.041 36.0692 51.9815 36.1932C51.9219 36.3171 51.861 36.4403 51.7986 36.5628C51.7363 36.6853 51.6726 36.8072 51.6075 36.9283C51.5424 37.0494 51.476 37.1697 51.4082 37.2894C51.3405 37.409 51.2714 37.5278 51.201 37.6459C50.3539 39.0956 49.2895 40.4058 48.3212 41.7748C45.8412 45.2813 43.4545 49.4627 43.1959 53.8501C43.4794 54.0869 43.7176 54.3478 43.8662 54.6904C43.9583 54.9028 44.0003 55.1156 44.0184 55.3446C44.1164 56.5811 44.0527 57.9643 44.0447 59.2182C44.0384 60.2165 44.0856 61.2372 44.0252 62.2318C44.0106 62.4714 43.9817 62.7516 43.8863 62.9741C43.568 63.7161 42.9717 64.1023 42.2473 64.3884C41.9564 64.9897 41.6252 65.5561 41.2219 66.0899C41.1826 66.1424 41.1426 66.1944 41.1019 66.246C41.0613 66.2975 41.0201 66.3485 40.9782 66.399C40.9363 66.4496 40.8938 66.4996 40.8507 66.549C40.8075 66.5985 40.7638 66.6474 40.7195 66.6958C40.6751 66.7441 40.6301 66.792 40.5846 66.8393C40.5391 66.8865 40.493 66.9332 40.4463 66.9793C40.3996 67.0254 40.3523 67.0709 40.3045 67.1159C40.2567 67.1609 40.2083 67.2052 40.1594 67.249C40.1105 67.2927 40.0611 67.3358 40.0111 67.3784C39.9611 67.4209 39.9106 67.4628 39.8595 67.504C39.8085 67.5453 39.7569 67.5859 39.7049 67.6259C39.6528 67.6659 39.6003 67.7052 39.5473 67.7439C39.4943 67.7826 39.4408 67.8206 39.3869 67.858C39.3329 67.8953 39.2785 67.932 39.2236 67.968C39.1688 68.004 39.1134 68.0393 39.0577 68.074C39.0019 68.1086 38.9458 68.1425 38.8892 68.1758C38.8326 68.209 38.7756 68.2415 38.7182 68.2734C38.6608 68.3052 38.603 68.3364 38.5449 68.3669C38.4867 68.397 38.4282 68.4266 38.3693 68.4558C38.3104 68.4845 38.2511 68.5127 38.1915 68.5405C38.1319 68.5679 38.072 68.5945 38.0117 68.6205C37.9514 68.6465 37.8909 68.6718 37.83 68.6964C37.7691 68.7205 37.7079 68.7442 37.6465 68.7675C37.585 68.7903 37.5232 68.8124 37.4611 68.8338C37.3991 68.8552 37.3368 68.8759 37.2743 68.896C37.2118 68.9156 37.149 68.9347 37.086 68.9534C37.0229 68.9717 36.9597 68.9892 36.8963 69.0061C36.8328 69.0225 36.7691 69.0384 36.7053 69.0539C36.6414 69.069 36.5774 69.0833 36.5132 69.097C36.449 69.1106 36.3847 69.1234 36.3201 69.1353C36.2556 69.1471 36.1909 69.1583 36.1261 69.1688C36.0613 69.1792 35.9964 69.1888 35.9314 69.1975C34.7627 69.3349 33.6055 69.2289 32.4938 68.8379C30.2517 68.0497 28.7535 66.4669 27.7431 64.3576C27.1952 64.1618 26.7313 63.9421 26.3677 63.4695C26.1613 63.2012 26.0385 62.9491 25.9857 62.6134C25.9052 62.1018 25.9399 61.5566 25.9395 61.0395L25.9388 58.523L25.9349 56.4771C25.934 56.06 25.9058 55.6213 25.9613 55.2077C26.0407 54.615 26.4471 54.1577 26.9051 53.8131C26.4957 51.3423 25.9911 49.224 24.8781 46.9565C23.9707 45.108 22.8399 43.389 21.6359 41.7227C20.9622 40.7902 20.2534 39.8893 19.6173 38.9292C17.7606 36.1266 16.5592 32.9194 16.3132 29.5549C16.3022 29.4046 16.2931 29.2541 16.2859 29.1036C16.2786 28.9531 16.2732 28.8025 16.2697 28.6517C16.2661 28.5011 16.2645 28.3504 16.2647 28.1996C16.2648 28.0489 16.2669 27.8982 16.2707 27.7476C16.2747 27.5969 16.2804 27.4463 16.288 27.2958C16.2957 27.1452 16.3051 26.9948 16.3165 26.8445C16.3278 26.6942 16.341 26.5441 16.3561 26.3941C16.3711 26.2441 16.388 26.0944 16.4067 25.9448C16.4254 25.7953 16.446 25.646 16.4684 25.4969C16.4909 25.3479 16.5151 25.1991 16.5412 25.0506C16.5673 24.9022 16.5952 24.7541 16.625 24.6064C16.6547 24.4586 16.6863 24.3112 16.7197 24.1642C16.7531 24.0173 16.7883 23.8707 16.8253 23.7246C16.8623 23.5785 16.9011 23.4329 16.9417 23.2877C16.9823 23.1426 17.0247 22.9979 17.0688 22.8538C17.113 22.7097 17.159 22.5662 17.2067 22.4232C17.2544 22.2802 17.3039 22.1379 17.3551 21.9961C17.4064 21.8544 17.4593 21.7133 17.514 21.5729C17.5687 21.4324 17.6252 21.2927 17.6833 21.1536C17.7415 21.0146 17.8014 20.8763 17.863 20.7387C17.9245 20.6011 17.9878 20.4643 18.0527 20.3283C18.1177 20.1923 18.1843 20.0571 18.2526 19.9227C18.3209 19.7884 18.3909 19.6549 18.4624 19.5222C18.534 19.3896 18.6072 19.2579 18.6821 19.127C18.7569 18.9962 18.8333 18.8663 18.9114 18.7374C18.9895 18.6084 19.0691 18.4804 19.1502 18.3535C19.2315 18.2265 19.3142 18.1005 19.3985 17.9756C19.4828 17.8507 19.5687 17.7268 19.6561 17.604C19.7435 17.4812 19.8323 17.3594 19.9227 17.2388C20.0131 17.1182 20.1049 16.9987 20.1983 16.8803C20.2916 16.762 20.3864 16.6448 20.4826 16.5288C20.5788 16.4128 20.6764 16.298 20.7755 16.1844C20.8628 16.0825 20.9511 15.9815 21.0405 15.8815C21.1299 15.7815 21.2204 15.6824 21.312 15.5843C21.4035 15.4862 21.496 15.3891 21.5896 15.293C21.6832 15.1968 21.7778 15.1017 21.8734 15.0076C21.969 14.9135 22.0656 14.8204 22.1632 14.7283C22.2608 14.6363 22.3593 14.5452 22.4588 14.4552C22.5583 14.3653 22.6588 14.2763 22.7602 14.1885C22.8616 14.1007 22.964 14.0139 23.0672 13.9282C23.1704 13.8426 23.2746 13.758 23.3796 13.6745C23.4846 13.5911 23.5906 13.5087 23.6974 13.4275C23.8042 13.3463 23.9118 13.2662 24.0203 13.1874C24.1288 13.1084 24.2381 13.0306 24.3482 12.954C24.4584 12.8774 24.5693 12.802 24.6811 12.7278C24.7928 12.6535 24.9053 12.5804 25.0186 12.5086C25.1319 12.4367 25.246 12.3661 25.3608 12.2966C25.4756 12.2272 25.5911 12.159 25.7073 12.092C25.8235 12.025 25.9405 11.9593 26.0581 11.8948C26.1758 11.8303 26.2941 11.767 26.4131 11.705C26.532 11.6431 26.6517 11.5823 26.772 11.5229C26.8922 11.4634 27.0131 11.4053 27.1346 11.3484C27.2561 11.2915 27.3782 11.2359 27.5009 11.1816C27.6236 11.1273 27.7468 11.0744 27.8707 11.0227C27.9945 10.971 28.1188 10.9207 28.2437 10.8717C28.3686 10.8226 28.4939 10.7749 28.6199 10.7285C28.7457 10.6822 28.8721 10.6372 28.999 10.5935C29.1258 10.5498 29.2531 10.5075 29.3808 10.4664C29.5086 10.4255 29.6368 10.3859 29.7654 10.3476C29.894 10.3094 30.023 10.2725 30.1523 10.237C30.2817 10.2014 30.4115 10.1673 30.5415 10.1345C30.6716 10.1017 30.8021 10.0703 30.9328 10.0404C31.0636 10.0104 31.1947 9.98178 31.3261 9.95457C31.4574 9.92736 31.5891 9.90154 31.721 9.87712C32.4744 9.7406 33.2345 9.67512 33.9974 9.61892Z" fill="url(#paint9_linear_2023_2512)"/>
<path d="M26.8721 57.9496C28.9725 57.9033 31.0807 57.9369 33.1817 57.9394L43.1076 57.941L43.1036 59.9902L26.8721 59.9923C26.8665 59.3114 26.8665 58.6305 26.8721 57.9496Z" fill="#FAFCFF"/>
<path d="M28.9456 64.4804C30.4382 64.4296 31.9435 64.4709 33.4372 64.4732L41.1602 64.4667C40.6725 65.3154 40.1173 66.0264 39.3851 66.6785C38.5225 67.4051 37.5607 67.902 36.4593 68.1546C36.4057 68.1667 36.352 68.1781 36.2982 68.1888C36.2443 68.1996 36.1903 68.2098 36.1362 68.2192C36.0821 68.2286 36.0279 68.2374 35.9736 68.2455C35.9193 68.2536 35.8649 68.261 35.8104 68.2678C35.7559 68.2746 35.7013 68.2807 35.6466 68.2861C35.592 68.2915 35.5373 68.2963 35.4825 68.3003C35.4277 68.3044 35.3729 68.3079 35.3181 68.3106C35.2632 68.3133 35.2083 68.3153 35.1534 68.3167C35.0986 68.3181 35.0436 68.3188 34.9887 68.3189C34.9338 68.3189 34.8789 68.3182 34.824 68.3169C34.7691 68.3156 34.7142 68.3136 34.6593 68.3109C34.6045 68.3082 34.5497 68.3049 34.4949 68.3009C34.4401 68.2969 34.3854 68.2922 34.3307 68.2868C34.2761 68.2815 34.2215 68.2754 34.167 68.2687C34.1125 68.262 34.0581 68.2546 34.0038 68.2466C33.9494 68.2385 33.8952 68.2298 33.8411 68.2204C33.787 68.2111 33.733 68.201 33.6791 68.1903C33.6253 68.1796 33.5715 68.1683 33.5179 68.1562C33.4643 68.1442 33.4109 68.1315 33.3576 68.1182C33.3044 68.1048 33.2513 68.0908 33.1983 68.0762C33.1454 68.0615 33.0927 68.0462 33.0401 68.0303C32.9876 68.0144 32.9352 67.9977 32.8831 67.9805C32.8309 67.9632 32.779 67.9454 32.7273 67.9269C32.6756 67.9084 32.6241 67.8892 32.5729 67.8695C32.5216 67.8497 32.4707 67.8293 32.4199 67.8083C32.3692 67.7872 32.3187 67.7656 32.2685 67.7433C32.2183 67.721 32.1684 67.6982 32.1187 67.6746C32.0691 67.6511 32.0198 67.627 31.9708 67.6023C31.9217 67.5776 31.873 67.5523 31.8245 67.5264C31.7761 67.5005 31.728 67.474 31.6802 67.4469C31.6325 67.4198 31.585 67.3921 31.538 67.3638C31.4909 67.3356 31.4442 67.3067 31.3978 67.2773C30.7158 66.8426 29.0561 65.3267 28.8748 64.5155L28.9456 64.4804Z" fill="#FAFCFF"/>
<path d="M30.3383 60.9595L43.1043 60.9457L43.1095 61.5071C43.1137 62.0735 43.159 62.6394 42.7136 63.0704C42.1897 63.5773 41.4821 63.5127 40.8135 63.5122L39.6314 63.5093L31.8751 63.5064C30.7801 63.5048 29.6823 63.5271 28.5876 63.5081C28.0612 63.499 27.5557 63.3988 27.1827 62.9921C26.729 62.4972 26.8685 61.5821 26.883 60.9676L30.3383 60.9595Z" fill="#FAFCFF"/>
<path d="M28.0273 54.3874C28.0843 54.3843 28.1413 54.3823 28.1984 54.3815C31.296 54.3448 34.3979 54.3925 37.4962 54.3873L40.5165 54.3824C41.0233 54.3818 41.5876 54.3354 42.0875 54.409C42.3457 54.447 42.6093 54.5713 42.7927 54.7583C43.2747 55.2494 43.111 56.3336 43.1038 56.9846L41.9899 56.9851L26.8688 56.9884C26.8658 56.3676 26.7433 55.521 27.0811 54.9793C27.302 54.6251 27.6346 54.4718 28.0273 54.3874Z" fill="#FAFCFF"/>
<path d="M37.5298 32.108C37.9044 32.103 38.247 32.2054 38.5966 32.328C39.5589 32.6655 40.2403 32.8417 41.243 32.5409C40.4463 34.1365 39.6991 35.7548 39.0015 37.3961C38.5145 38.5279 37.9865 39.6926 37.721 40.8993C37.5334 41.7524 37.5585 42.5959 37.5643 43.4623L37.5739 45.6875L37.5675 53.4498L32.4919 53.4451L32.4914 52.6795L32.4958 46.2119V43.7789C32.4956 42.574 32.5161 41.4046 32.1896 40.2299C31.9386 39.3265 31.5171 38.4667 31.1293 37.616C30.3232 35.8479 29.4414 34.1457 28.5557 32.4182C30.7538 33.1889 30.7466 32.1239 32.5682 32.1423C33.5075 32.1518 34.2753 32.7417 35.2403 32.6761C36.0368 32.622 36.7314 32.1861 37.5298 32.108Z" fill="#FAFCFF"/>
<path d="M34.2051 10.6151C35.031 10.5578 35.893 10.5847 36.7168 10.6635C36.8645 10.6773 37.0119 10.693 37.1591 10.7105C37.3064 10.7279 37.4534 10.7472 37.6002 10.7684C37.7469 10.7895 37.8934 10.8125 38.0396 10.8373C38.1858 10.8621 38.3316 10.8887 38.4772 10.9171C38.6227 10.9456 38.7678 10.9758 38.9126 11.0078C39.0574 11.0398 39.2017 11.0737 39.3457 11.1093C39.4896 11.1449 39.6331 11.1824 39.7761 11.2215C39.9191 11.2607 40.0616 11.3017 40.2036 11.3445C40.3455 11.3872 40.487 11.4317 40.6279 11.478C40.7687 11.5243 40.909 11.5723 41.0487 11.622C41.1884 11.6718 41.3274 11.7233 41.4658 11.7765C41.6042 11.8297 41.7419 11.8847 41.8789 11.9413C42.016 11.998 42.1523 12.0563 42.2879 12.1163C42.4234 12.1764 42.5582 12.2381 42.6923 12.3015C42.8263 12.3649 42.9596 12.4299 43.092 12.4967C43.2244 12.5633 43.356 12.6317 43.4867 12.7017C43.6174 12.7717 43.7473 12.8433 43.8762 12.9165C44.0051 12.9897 44.1331 13.0645 44.2602 13.1409C44.3873 13.2173 44.5134 13.2953 44.6385 13.3749C44.7637 13.4544 44.8878 13.5355 45.0109 13.6181C45.134 13.7008 45.2561 13.7849 45.3771 13.8705C45.4981 13.9562 45.6181 14.0434 45.7369 14.1321C45.8558 14.2207 45.9735 14.3108 46.0901 14.4024C46.2068 14.494 46.3222 14.5871 46.4365 14.6815C46.5508 14.776 46.6639 14.8718 46.7758 14.9691C46.8877 15.0664 46.9984 15.165 47.1078 15.2651C47.2173 15.3651 47.3255 15.4665 47.4324 15.5692C47.5393 15.6719 47.645 15.776 47.7493 15.8813C47.8536 15.9867 47.9567 16.0933 48.0583 16.2013C48.16 16.3092 48.2603 16.4183 48.3593 16.5288C48.4583 16.6392 48.5558 16.7508 48.652 16.8637C48.7482 16.9765 48.843 17.0905 48.9363 17.2057C49.0555 17.3524 49.1722 17.5009 49.2865 17.6514C49.4007 17.8019 49.5125 17.9542 49.6219 18.1083C49.7312 18.2624 49.838 18.4183 49.9422 18.5759C50.0465 18.7335 50.1481 18.8927 50.2471 19.0536C50.3462 19.2145 50.4426 19.377 50.5364 19.5411C50.6301 19.7051 50.7212 19.8706 50.8096 20.0377C50.898 20.2047 50.9836 20.3731 51.0664 20.5429C51.1493 20.7127 51.2294 20.8838 51.3067 21.0562C51.384 21.2286 51.4585 21.4022 51.5302 21.5771C51.6018 21.7519 51.6706 21.9279 51.7365 22.105C51.8024 22.282 51.8655 22.4601 51.9256 22.6393C51.9857 22.8184 52.0428 22.9985 52.0971 23.1795C52.1513 23.3605 52.2026 23.5423 52.251 23.725C52.2993 23.9077 52.3446 24.0911 52.3869 24.2752C52.4293 24.4593 52.4687 24.6441 52.505 24.8296C52.5413 25.015 52.5746 25.2009 52.6049 25.3875C53.3107 29.7244 52.3224 34.1183 49.987 37.8259C49.0476 39.3175 47.8918 40.7155 46.8955 42.1831C44.5851 45.5865 42.6947 49.3125 42.2915 53.4599L38.4962 53.4523L38.5003 45.5388C38.5076 44.1023 38.3832 42.2503 38.6996 40.8696C38.9008 39.9915 39.2739 39.1462 39.6164 38.315C40.4913 36.1918 41.4978 34.15 42.5371 32.105C42.6361 31.9102 42.7673 31.6406 42.6834 31.4209C42.6787 31.4084 42.6734 31.3962 42.6675 31.3843C42.6616 31.3723 42.6551 31.3607 42.648 31.3495C42.6409 31.3382 42.6333 31.3274 42.6251 31.3169C42.6169 31.3064 42.6081 31.2964 42.5989 31.2867C42.5896 31.2772 42.5799 31.2681 42.5698 31.2595C42.5596 31.2509 42.549 31.2429 42.538 31.2354C42.527 31.2279 42.5156 31.221 42.5039 31.2146C42.4922 31.2083 42.4802 31.2026 42.4679 31.1975C41.9501 30.9819 41.0364 31.5563 40.5737 31.7487C39.996 31.9891 39.4936 31.6808 38.9675 31.4613C37.8053 30.9764 36.7382 31.2111 35.6187 31.6683C35.6153 31.6693 35.6119 31.6703 35.6085 31.6714C34.8616 31.9092 34.3474 31.5643 33.6541 31.3594C33.2747 31.2473 32.8649 31.1996 32.4698 31.2052C32.0486 31.2111 31.6113 31.2694 31.2078 31.3919C30.7452 31.5322 30.2492 31.8647 29.7529 31.8194C29.1065 31.7604 28.6013 31.2028 27.9301 31.2037C27.7337 31.204 27.5388 31.2521 27.3985 31.3962C27.2644 31.534 27.1831 31.7532 27.2376 31.9428C27.3613 32.3728 27.6864 32.8211 27.9042 33.2136C28.1346 33.6339 28.3568 34.0584 28.5708 34.4873C29.4342 36.1629 30.2281 37.8708 30.9524 39.6111C31.2266 40.2668 31.4099 40.9119 31.4901 41.6196C31.6299 42.8509 31.546 44.4897 31.5458 45.7542L31.5468 53.4542L27.7931 53.4436C27.6964 52.8899 27.6308 52.3347 27.5166 51.7831C27.4619 51.5222 27.4026 51.2625 27.3389 51.0037C27.2751 50.7449 27.2068 50.4874 27.1339 50.231C27.0611 49.9746 26.9839 49.7196 26.9021 49.466C26.8204 49.2123 26.7342 48.9601 26.6436 48.7095C26.553 48.4588 26.4581 48.2099 26.3587 47.9626C26.2594 47.7153 26.1558 47.4698 26.0479 47.2261C25.94 46.9824 25.8278 46.7407 25.7115 46.5009C25.5951 46.2612 25.4746 46.0235 25.3498 45.788C24.4566 44.0998 23.3676 42.5048 22.2463 40.9607C21.3593 39.7393 20.4439 38.5542 19.6673 37.256C18.213 34.8248 17.3492 31.6612 17.2201 28.8383C17.0027 24.083 18.8534 19.663 22.0401 16.1803C25.1276 12.8061 29.663 10.8193 34.2051 10.6151Z" fill="#FAFCFF"/>
<path d="M32.1513 14.2264C32.1655 14.2243 32.1797 14.2212 32.194 14.2199C32.2837 14.2118 32.3376 14.2335 32.4058 14.2918C32.4727 14.3489 32.5161 14.4471 32.5142 14.5341C32.5116 14.643 32.4498 14.7119 32.359 14.7617C32.0488 14.9318 31.4545 14.9904 31.091 15.0799C30.8302 15.1441 30.5757 15.2293 30.3216 15.3158C28.491 15.9388 26.7518 16.9411 25.3467 18.2765C25.2774 18.3423 25.2087 18.4087 25.1408 18.4758C25.0728 18.5429 25.0056 18.6108 24.9391 18.6793C24.8726 18.7479 24.8068 18.8171 24.7417 18.8871C24.6766 18.957 24.6123 19.0276 24.5487 19.0988C24.4851 19.1701 24.4223 19.242 24.3602 19.3146C24.2981 19.3872 24.2367 19.4604 24.1762 19.5343C24.1156 19.6081 24.0558 19.6826 23.9968 19.7577C23.9378 19.8329 23.8796 19.9086 23.8222 19.9849C23.7647 20.0612 23.7081 20.1381 23.6523 20.2156C23.5965 20.2931 23.5415 20.3712 23.4873 20.4499C23.4331 20.5285 23.3797 20.6078 23.3272 20.6876C23.2747 20.7673 23.223 20.8476 23.1722 20.9285C23.1213 21.0094 23.0713 21.0908 23.0222 21.1727C22.973 21.2545 22.9247 21.3369 22.8773 21.4198C22.8299 21.5028 22.7833 21.5862 22.7376 21.67C22.6919 21.7539 22.6471 21.8383 22.6032 21.9231C22.5593 22.0079 22.5163 22.0932 22.4741 22.1789C22.432 22.2646 22.3907 22.3508 22.3504 22.4374C22.3101 22.524 22.2707 22.611 22.2322 22.6984C22.1936 22.7858 22.156 22.8736 22.1193 22.9618C22.0826 23.0499 22.0469 23.1385 22.012 23.2275C21.9772 23.3164 21.9433 23.4057 21.9103 23.4953C21.8774 23.585 21.8454 23.675 21.8143 23.7652C21.7832 23.8556 21.753 23.9462 21.7238 24.0372C21.6946 24.1281 21.6664 24.2193 21.6391 24.3109C21.6118 24.4024 21.5855 24.4943 21.5601 24.5863C21.5348 24.6784 21.5104 24.7708 21.487 24.8634C21.4635 24.956 21.441 25.0488 21.4196 25.1419C21.3981 25.2349 21.3775 25.3282 21.358 25.4217C21.3384 25.5152 21.3199 25.6089 21.3023 25.7028C21.2847 25.7966 21.2681 25.8907 21.2524 25.9849C21.2368 26.0792 21.2222 26.1736 21.2085 26.2681C21.1085 26.9811 21.111 27.6684 21.0812 28.3831C21.0735 28.5676 21.0311 28.6305 20.8952 28.7547C20.8075 28.7541 20.7095 28.7538 20.63 28.7102C20.5488 28.6657 20.51 28.5819 20.4943 28.4952C20.4232 28.1033 20.4901 27.6064 20.5189 27.2064C20.5288 27.057 20.5411 26.9078 20.5557 26.7588C20.5704 26.6097 20.5874 26.461 20.6068 26.3125C20.6261 26.164 20.6479 26.0159 20.6719 25.8682C20.696 25.7204 20.7224 25.573 20.7511 25.426C20.7799 25.2791 20.811 25.1327 20.8445 24.9867C20.8779 24.8408 20.9136 24.6954 20.9516 24.5506C20.9896 24.4057 21.03 24.2616 21.0726 24.118C21.1152 23.9745 21.1601 23.8317 21.2072 23.6896C21.2544 23.5474 21.3038 23.4061 21.3555 23.2656C21.4071 23.1251 21.461 22.9854 21.5171 22.8466C21.5732 22.7077 21.6315 22.5698 21.692 22.4329C21.7525 22.2959 21.8151 22.1599 21.8799 22.0249C21.9447 21.8899 22.0116 21.756 22.0807 21.6231C22.1498 21.4903 22.2209 21.3586 22.2942 21.228C22.3674 21.0974 22.4427 20.968 22.5201 20.8398C22.5974 20.7116 22.6768 20.5847 22.7582 20.459C22.8165 20.3697 22.8757 20.2811 22.936 20.1932C22.9962 20.1053 23.0575 20.018 23.1197 19.9314C23.1819 19.8449 23.2451 19.7591 23.3092 19.6739C23.3733 19.5888 23.4384 19.5043 23.5045 19.4207C23.5705 19.337 23.6374 19.2541 23.7053 19.1719C23.7732 19.0897 23.842 19.0083 23.9117 18.9277C23.9814 18.847 24.052 18.7672 24.1235 18.6881C24.195 18.6091 24.2674 18.5308 24.3407 18.4534C24.4139 18.376 24.488 18.2993 24.563 18.2236C24.638 18.1478 24.7138 18.0728 24.7904 17.9988C24.8671 17.9247 24.9446 17.8515 25.0229 17.7792C25.1012 17.7068 25.1802 17.6354 25.2601 17.5648C25.34 17.4942 25.4207 17.4246 25.5022 17.3558C25.5836 17.287 25.6658 17.2192 25.7488 17.1523C25.8318 17.0854 25.9155 17.0194 25.9999 16.9543C26.0844 16.8893 26.1696 16.8252 26.2554 16.7621C26.3413 16.6989 26.4279 16.6368 26.5152 16.5756C26.6025 16.5144 26.6904 16.4542 26.7791 16.395C26.8677 16.3358 26.957 16.2775 27.0469 16.2203C27.1369 16.1631 27.2274 16.1069 27.3186 16.0517C27.4098 15.9965 27.5016 15.9424 27.5941 15.8892C27.6865 15.8361 27.7795 15.784 27.873 15.733C27.9666 15.6819 28.0607 15.6319 28.1554 15.583C28.2501 15.534 28.3454 15.4862 28.4412 15.4393C28.5369 15.3925 28.6332 15.3468 28.73 15.3022C28.8268 15.2575 28.9241 15.214 29.0218 15.1715C29.1196 15.129 29.2178 15.0877 29.3165 15.0474C29.4152 15.0071 29.5144 14.968 29.6139 14.9299C29.7135 14.8919 29.8135 14.855 29.9139 14.8192C30.0143 14.7834 30.1151 14.7487 30.2163 14.7151C30.3175 14.6816 30.419 14.6492 30.5209 14.6179C30.6228 14.5867 30.7251 14.5566 30.8277 14.5276C31.262 14.4024 31.709 14.3178 32.1513 14.2264Z" fill="url(#paint10_linear_2023_2512)"/>
<defs>
<linearGradient id="paint0_linear_2023_2512" x1="22.3226" y1="4.50134" x2="22.3226" y2="9.79669" gradientUnits="userSpaceOnUse">
<stop stop-color="#085DA9"/>
<stop offset="0.2" stop-color="#6C5B97"/>
<stop offset="0.4" stop-color="#995685"/>
<stop offset="0.6" stop-color="#BE4F73"/>
<stop offset="0.8" stop-color="#E04461"/>
<stop offset="1" stop-color="#FF314F"/>
</linearGradient>
<linearGradient id="paint1_linear_2023_2512" x1="47.6004" y1="4.51404" x2="47.6004" y2="9.89172" gradientUnits="userSpaceOnUse">
<stop stop-color="#085DA9"/>
<stop offset="0.2" stop-color="#6C5B97"/>
<stop offset="0.4" stop-color="#995685"/>
<stop offset="0.6" stop-color="#BE4F73"/>
<stop offset="0.8" stop-color="#E04461"/>
<stop offset="1" stop-color="#FF314F"/>
</linearGradient>
<linearGradient id="paint2_linear_2023_2512" x1="12.9067" y1="38.5171" x2="12.9067" y2="42.1055" gradientUnits="userSpaceOnUse">
<stop stop-color="#085DA9"/>
<stop offset="0.2" stop-color="#6C5B97"/>
<stop offset="0.4" stop-color="#995685"/>
<stop offset="0.6" stop-color="#BE4F73"/>
<stop offset="0.8" stop-color="#E04461"/>
<stop offset="1" stop-color="#FF314F"/>
</linearGradient>
<linearGradient id="paint3_linear_2023_2512" x1="9.34569" y1="27.6786" x2="9.34569" y2="28.6702" gradientUnits="userSpaceOnUse">
<stop stop-color="#085DA9"/>
<stop offset="0.2" stop-color="#6C5B97"/>
<stop offset="0.4" stop-color="#995685"/>
<stop offset="0.6" stop-color="#BE4F73"/>
<stop offset="0.8" stop-color="#E04461"/>
<stop offset="1" stop-color="#FF314F"/>
</linearGradient>
<linearGradient id="paint4_linear_2023_2512" x1="57.0237" y1="14.155" x2="57.0237" y2="17.8619" gradientUnits="userSpaceOnUse">
<stop stop-color="#085DA9"/>
<stop offset="0.2" stop-color="#6C5B97"/>
<stop offset="0.4" stop-color="#995685"/>
<stop offset="0.6" stop-color="#BE4F73"/>
<stop offset="0.8" stop-color="#E04461"/>
<stop offset="1" stop-color="#FF314F"/>
</linearGradient>
<linearGradient id="paint5_linear_2023_2512" x1="12.9494" y1="14.0424" x2="12.9494" y2="17.889" gradientUnits="userSpaceOnUse">
<stop stop-color="#085DA9"/>
<stop offset="0.2" stop-color="#6C5B97"/>
<stop offset="0.4" stop-color="#995685"/>
<stop offset="0.6" stop-color="#BE4F73"/>
<stop offset="0.8" stop-color="#E04461"/>
<stop offset="1" stop-color="#FF314F"/>
</linearGradient>
<linearGradient id="paint6_linear_2023_2512" x1="57.1358" y1="38.4459" x2="57.1358" y2="42.1323" gradientUnits="userSpaceOnUse">
<stop stop-color="#085DA9"/>
<stop offset="0.2" stop-color="#6C5B97"/>
<stop offset="0.4" stop-color="#995685"/>
<stop offset="0.6" stop-color="#BE4F73"/>
<stop offset="0.8" stop-color="#E04461"/>
<stop offset="1" stop-color="#FF314F"/>
</linearGradient>
<linearGradient id="paint7_linear_2023_2512" x1="35.0043" y1="0.691895" x2="35.0043" y2="7.18752" gradientUnits="userSpaceOnUse">
<stop stop-color="#085DA9"/>
<stop offset="0.2" stop-color="#6C5B97"/>
<stop offset="0.4" stop-color="#995685"/>
<stop offset="0.6" stop-color="#BE4F73"/>
<stop offset="0.8" stop-color="#E04461"/>
<stop offset="1" stop-color="#FF314F"/>
</linearGradient>
<linearGradient id="paint8_linear_2023_2512" x1="60.573" y1="27.6591" x2="60.573" y2="28.6833" gradientUnits="userSpaceOnUse">
<stop stop-color="#085DA9"/>
<stop offset="0.2" stop-color="#6C5B97"/>
<stop offset="0.4" stop-color="#995685"/>
<stop offset="0.6" stop-color="#BE4F73"/>
<stop offset="0.8" stop-color="#E04461"/>
<stop offset="1" stop-color="#FF314F"/>
</linearGradient>
<linearGradient id="paint9_linear_2023_2512" x1="35.0327" y1="9.57202" x2="35.0327" y2="69.2547" gradientUnits="userSpaceOnUse">
<stop stop-color="#085DA9"/>
<stop offset="0.2" stop-color="#6C5B97"/>
<stop offset="0.4" stop-color="#995685"/>
<stop offset="0.6" stop-color="#BE4F73"/>
<stop offset="0.8" stop-color="#E04461"/>
<stop offset="1" stop-color="#FF314F"/>
</linearGradient>
<linearGradient id="paint10_linear_2023_2512" x1="26.4884" y1="14.2183" x2="26.4884" y2="28.7547" gradientUnits="userSpaceOnUse">
<stop stop-color="#085DA9"/>
<stop offset="0.2" stop-color="#6C5B97"/>
<stop offset="0.4" stop-color="#995685"/>
<stop offset="0.6" stop-color="#BE4F73"/>
<stop offset="0.8" stop-color="#E04461"/>
<stop offset="1" stop-color="#FF314F"/>
</linearGradient>
</defs>
</svg>
