<svg width="18" height="19" viewBox="0 0 18 19" fill="none" xmlns="http://www.w3.org/2000/svg">
<path d="M11.0108 3.27751L10.5185 3.77017C10.4591 3.82958 10.4258 3.91012 10.4258 3.99409C10.4258 4.07807 10.4591 4.15861 10.5185 4.21801L15.1357 8.83501H0.766815C0.682826 8.83506 0.602293 8.86846 0.54292 8.92786C0.483548 8.98727 0.450195 9.06782 0.450195 9.15181V9.84841C0.450195 10.0232 0.592035 10.165 0.766995 10.165H15.1359L10.5183 14.7822C10.459 14.8416 10.4256 14.9222 10.4256 15.0061C10.4256 15.0901 10.459 15.1706 10.5183 15.2301L11.0108 15.7225C11.0702 15.7819 11.1507 15.8152 11.2347 15.8152C11.3187 15.8152 11.3992 15.7819 11.4586 15.7225L17.4573 9.72403C17.5167 9.66463 17.55 9.58409 17.55 9.50011C17.55 9.41614 17.5167 9.3356 17.4573 9.27619L11.4586 3.27751C11.3992 3.21816 11.3187 3.18481 11.2347 3.18481C11.1507 3.18481 11.0702 3.21816 11.0108 3.27751Z" fill="#1F50E8"/>
</svg>
