<svg width="16" height="16" viewBox="0 0 16 16" fill="none" xmlns="http://www.w3.org/2000/svg">
<g clip-path="url(#clip0_2001_1271)">
<path d="M12.6667 1.33333H12V0.666667C12 0.298667 11.7013 0 11.3333 0C10.9653 0 10.6667 0.298667 10.6667 0.666667V1.33333H5.33333V0.666667C5.33333 0.298667 5.03467 0 4.66667 0C4.29867 0 4 0.298667 4 0.666667V1.33333H3.33333C1.49533 1.33333 0 2.82867 0 4.66667V12.6667C0 14.5047 1.49533 16 3.33333 16H6C6.368 16 6.66667 15.7013 6.66667 15.3333C6.66667 14.9653 6.368 14.6667 6 14.6667H3.33333C2.23067 14.6667 1.33333 13.7693 1.33333 12.6667V6.66667H15.3333C15.7013 6.66667 16 6.368 16 6V4.66667C16 2.82867 14.5047 1.33333 12.6667 1.33333ZM14.6667 5.33333H1.33333V4.66667C1.33333 3.564 2.23067 2.66667 3.33333 2.66667H12.6667C13.7693 2.66667 14.6667 3.564 14.6667 4.66667V5.33333ZM12.586 8.586L8.78133 12.3907C8.278 12.894 8 13.564 8 14.2767V15.334C8 15.702 8.29867 16.0007 8.66667 16.0007H9.724C10.4367 16.0007 11.106 15.7227 11.6093 15.2193L15.414 11.4147C15.792 11.0367 16 10.5347 16 10C16 9.46533 15.792 8.96333 15.4147 8.586C14.6587 7.83 13.3413 7.83 12.586 8.586ZM14.4713 10.4713L10.666 14.276C10.4147 14.528 10.08 14.6667 9.72333 14.6667H9.33267V14.276C9.33267 13.92 9.47133 13.5853 9.72333 13.3333L13.5287 9.52867C13.78 9.27667 14.2193 9.27667 14.4713 9.52867C14.5973 9.654 14.6667 9.82133 14.6667 10C14.6667 10.1787 14.5973 10.3453 14.4713 10.4713ZM3.33333 9.33333C3.33333 8.96533 3.632 8.66667 4 8.66667H8.66667C9.03467 8.66667 9.33333 8.96533 9.33333 9.33333C9.33333 9.70133 9.03467 10 8.66667 10H4C3.632 10 3.33333 9.70133 3.33333 9.33333ZM7.33333 12C7.33333 12.368 7.03467 12.6667 6.66667 12.6667H4C3.632 12.6667 3.33333 12.368 3.33333 12C3.33333 11.632 3.632 11.3333 4 11.3333H6.66667C7.03467 11.3333 7.33333 11.632 7.33333 12Z" fill="white"/>
</g>
<defs>
<clipPath id="clip0_2001_1271">
<rect width="16" height="16" fill="white"/>
</clipPath>
</defs>
</svg>
