<svg width="18" height="19" viewBox="0 0 18 19" fill="none" xmlns="http://www.w3.org/2000/svg">
<path d="M17.8658 8.88573C17.1412 7.31426 16.0799 5.92137 14.757 4.80573L17.031 2.53173L15.9698 1.46973L13.5 3.93723C12.133 3.14652 10.5792 2.73655 9.00003 2.74998C3.37503 2.74998 0.792776 7.44573 0.134275 8.88573C0.0458792 9.0787 0.00012207 9.28847 0.00012207 9.50073C0.00012207 9.71299 0.0458792 9.92275 0.134275 10.1157C0.858877 11.6872 1.92019 13.0801 3.24303 14.1957L0.969775 16.4697L2.03028 17.5302L4.50003 15.0627C5.867 15.8534 7.42089 16.2634 9.00003 16.25C14.625 16.25 17.2073 11.5542 17.8658 10.1142C17.954 9.92147 17.9997 9.71197 17.9997 9.49998C17.9997 9.28799 17.954 9.07849 17.8658 8.88573ZM1.50003 9.50823C2.06253 8.27448 4.26978 4.24998 9.00003 4.24998C10.1772 4.2431 11.339 4.51773 12.3885 5.05098L11.0648 6.37473C10.3447 5.89668 9.48146 5.68247 8.62145 5.76846C7.76144 5.85445 6.95767 6.23533 6.34653 6.84648C5.73538 7.45763 5.3545 8.2614 5.26851 9.1214C5.18252 9.98141 5.39673 10.8447 5.87478 11.5647L4.31553 13.124C3.11581 12.147 2.15318 10.9108 1.50003 9.50823ZM11.25 9.49998C11.25 10.0967 11.013 10.669 10.591 11.091C10.1691 11.5129 9.59676 11.75 9.00003 11.75C8.66591 11.7487 8.33642 11.6718 8.03628 11.525L11.025 8.53623C11.1718 8.83638 11.2487 9.16586 11.25 9.49998ZM6.75003 9.49998C6.75003 8.90324 6.98708 8.33094 7.40903 7.90899C7.83099 7.48703 8.40329 7.24998 9.00003 7.24998C9.33414 7.25127 9.66363 7.32819 9.96378 7.47498L6.97503 10.4637C6.82824 10.1636 6.75132 9.83409 6.75003 9.49998ZM9.00003 14.75C7.82283 14.7569 6.66104 14.4822 5.61153 13.949L6.93528 12.6252C7.65533 13.1033 8.5186 13.3175 9.3786 13.2315C10.2386 13.1455 11.0424 12.7646 11.6535 12.1535C12.2647 11.5423 12.6456 10.7386 12.7315 9.87855C12.8175 9.01855 12.6033 8.15528 12.1253 7.43523L13.6838 5.87673C14.8859 6.85459 15.849 8.09377 16.5 9.49998C15.927 10.7427 13.719 14.75 9.00003 14.75Z" fill="#E1E1E1"/>
</svg>
