<svg width="16" height="16" viewBox="0 0 16 16" fill="none" xmlns="http://www.w3.org/2000/svg">
<g clip-path="url(#clip0_2001_618)">
<path d="M6.58528 12.0813C6.77101 12.2672 6.99155 12.4146 7.23428 12.5152C7.47702 12.6158 7.7372 12.6676 7.99995 12.6676C8.2627 12.6676 8.52288 12.6158 8.76561 12.5152C9.00835 12.4146 9.22888 12.2672 9.41461 12.0813L11.5553 9.94067C11.6701 9.81373 11.7316 9.64752 11.7272 9.47644C11.7228 9.30536 11.6528 9.14253 11.5317 9.02165C11.4105 8.90077 11.2476 8.8311 11.0765 8.82707C10.9054 8.82304 10.7393 8.88496 10.6126 9L8.66195 10.9513L8.66661 0.666667C8.66661 0.489856 8.59638 0.320286 8.47135 0.195262C8.34633 0.0702379 8.17676 0 7.99995 0C7.82314 0 7.65357 0.0702379 7.52854 0.195262C7.40352 0.320286 7.33328 0.489856 7.33328 0.666667L7.32728 10.9387L5.38728 9C5.26219 8.875 5.09256 8.8048 4.91571 8.80486C4.73886 8.80493 4.56929 8.87524 4.44428 9.00033C4.31928 9.12543 4.24908 9.29506 4.24915 9.4719C4.24921 9.64875 4.31952 9.81833 4.44461 9.94333L6.58528 12.0813Z" fill="white"/>
<path d="M15.3333 10.6666C15.1565 10.6666 14.987 10.7369 14.8619 10.8619C14.7369 10.9869 14.6667 11.1565 14.6667 11.3333V14C14.6667 14.1768 14.5964 14.3463 14.4714 14.4714C14.3464 14.5964 14.1768 14.6666 14 14.6666H2C1.82319 14.6666 1.65362 14.5964 1.5286 14.4714C1.40357 14.3463 1.33333 14.1768 1.33333 14V11.3333C1.33333 11.1565 1.2631 10.9869 1.13807 10.8619C1.01305 10.7369 0.843478 10.6666 0.666667 10.6666C0.489856 10.6666 0.320286 10.7369 0.195262 10.8619C0.0702379 10.9869 0 11.1565 0 11.3333L0 14C0 14.5304 0.210714 15.0391 0.585786 15.4142C0.960859 15.7892 1.46957 16 2 16H14C14.5304 16 15.0391 15.7892 15.4142 15.4142C15.7893 15.0391 16 14.5304 16 14V11.3333C16 11.1565 15.9298 10.9869 15.8047 10.8619C15.6797 10.7369 15.5101 10.6666 15.3333 10.6666Z" fill="white"/>
</g>
<defs>
<clipPath id="clip0_2001_618">
<rect width="16" height="16" fill="white"/>
</clipPath>
</defs>
</svg>
