<svg width="18" height="19" viewBox="0 0 18 19" fill="none" xmlns="http://www.w3.org/2000/svg">
<path d="M17.8658 8.88575C17.2073 7.44575 14.625 2.75 9.00003 2.75C3.37503 2.75 0.792776 7.44575 0.134275 8.88575C0.0458792 9.07873 0.00012207 9.28849 0.00012207 9.50075C0.00012207 9.71301 0.0458792 9.92277 0.134275 10.1158C0.792776 11.5542 3.37503 16.25 9.00003 16.25C14.625 16.25 17.2073 11.5542 17.8658 10.1143C17.954 9.92149 17.9997 9.71199 17.9997 9.5C17.9997 9.28801 17.954 9.07851 17.8658 8.88575ZM9.00003 14.75C4.26978 14.75 2.06253 10.7255 1.50003 9.50825C2.06253 8.2745 4.26978 4.25 9.00003 4.25C13.719 4.25 15.927 8.25725 16.5 9.5C15.927 10.7428 13.719 14.75 9.00003 14.75Z" fill="#E1E1E1"/>
<path d="M9 5.75C8.25832 5.75 7.5333 5.96993 6.91661 6.38199C6.29993 6.79404 5.81928 7.37971 5.53545 8.06494C5.25162 8.75016 5.17736 9.50416 5.32206 10.2316C5.46675 10.959 5.8239 11.6272 6.34835 12.1517C6.8728 12.6761 7.54098 13.0333 8.26841 13.1779C8.99584 13.3226 9.74984 13.2484 10.4351 12.9645C11.1203 12.6807 11.706 12.2001 12.118 11.5834C12.5301 10.9667 12.75 10.2417 12.75 9.5C12.7488 8.5058 12.3533 7.55267 11.6503 6.84966C10.9473 6.14666 9.9942 5.75119 9 5.75ZM9 11.75C8.55499 11.75 8.11998 11.618 7.74997 11.3708C7.37996 11.1236 7.09157 10.7722 6.92127 10.361C6.75098 9.9499 6.70642 9.4975 6.79323 9.06105C6.88005 8.62459 7.09434 8.22368 7.40901 7.90901C7.72368 7.59434 8.12459 7.38005 8.56105 7.29323C8.99751 7.20642 9.44991 7.25097 9.86104 7.42127C10.2722 7.59157 10.6236 7.87996 10.8708 8.24997C11.118 8.61998 11.25 9.05499 11.25 9.5C11.25 10.0967 11.0129 10.669 10.591 11.091C10.169 11.5129 9.59674 11.75 9 11.75Z" fill="#E1E1E1"/>
</svg>
