<svg width="18" height="19" viewBox="0 0 18 19" fill="none" xmlns="http://www.w3.org/2000/svg">
<g clip-path="url(#clip0_2001_4819)">
<path d="M17.1218 7.379L14.2125 4.46975C14.0711 4.33313 13.8816 4.25754 13.685 4.25924C13.4883 4.26095 13.3002 4.33983 13.1611 4.47889C13.0221 4.61794 12.9432 4.80605 12.9415 5.0027C12.9398 5.19935 13.0154 5.3888 13.152 5.53025L16.0613 8.4395C16.1477 8.52765 16.2232 8.62585 16.2863 8.732C16.275 8.732 16.266 8.726 16.2548 8.726L4.49176 8.75C4.29285 8.75 4.10208 8.82902 3.96143 8.96967C3.82078 9.11032 3.74176 9.30109 3.74176 9.5C3.74176 9.69891 3.82078 9.88968 3.96143 10.0303C4.10208 10.171 4.29285 10.25 4.49176 10.25L16.2503 10.226C16.2713 10.226 16.2885 10.2155 16.3088 10.214C16.2422 10.3409 16.1579 10.4576 16.0583 10.5605L13.149 13.4697C13.0774 13.5389 13.0202 13.6217 12.9809 13.7132C12.9416 13.8047 12.9209 13.9031 12.9201 14.0027C12.9192 14.1023 12.9382 14.201 12.9759 14.2932C13.0136 14.3854 13.0693 14.4691 13.1397 14.5395C13.2101 14.61 13.2939 14.6657 13.386 14.7034C13.4782 14.7411 13.577 14.7601 13.6766 14.7592C13.7761 14.7583 13.8746 14.7376 13.9661 14.6983C14.0576 14.659 14.1403 14.6019 14.2095 14.5303L17.1188 11.621C17.6812 11.0584 17.9971 10.2955 17.9971 9.5C17.9971 8.70451 17.6812 7.94158 17.1188 7.379H17.1218Z" fill="#1F50E8"/>
<path d="M5.25 17H3.75C3.15326 17 2.58097 16.7629 2.15901 16.341C1.73705 15.919 1.5 15.3467 1.5 14.75V4.25C1.5 3.65326 1.73705 3.08097 2.15901 2.65901C2.58097 2.23705 3.15326 2 3.75 2H5.25C5.44891 2 5.63968 1.92098 5.78033 1.78033C5.92098 1.63968 6 1.44891 6 1.25C6 1.05109 5.92098 0.860322 5.78033 0.71967C5.63968 0.579018 5.44891 0.5 5.25 0.5H3.75C2.7558 0.501191 1.80267 0.896661 1.09966 1.59966C0.396661 2.30267 0.00119089 3.2558 0 4.25L0 14.75C0.00119089 15.7442 0.396661 16.6973 1.09966 17.4003C1.80267 18.1033 2.7558 18.4988 3.75 18.5H5.25C5.44891 18.5 5.63968 18.421 5.78033 18.2803C5.92098 18.1397 6 17.9489 6 17.75C6 17.5511 5.92098 17.3603 5.78033 17.2197C5.63968 17.079 5.44891 17 5.25 17Z" fill="#1F50E8"/>
</g>
<defs>
<clipPath id="clip0_2001_4819">
<rect width="18" height="18" fill="white" transform="translate(0 0.5)"/>
</clipPath>
</defs>
</svg>
