<svg width="18" height="19" viewBox="0 0 18 19" fill="none" xmlns="http://www.w3.org/2000/svg">
<g clip-path="url(#clip0_144_5657)">
<path d="M6.30065 14.9281L3.58307 12.207L13.1631 2.61284L15.8807 5.33394L6.30065 14.9281ZM2.92565 13.5816L4.92604 15.5855L2.14167 16.3695L2.92565 13.5816ZM17.403 4.82769L13.6694 1.08706C13.3987 0.816357 12.9241 0.816357 12.6534 1.08706L2.06081 11.6972C1.97292 11.7851 1.90964 11.8906 1.878 12.0101L0.415496 17.2132C0.345183 17.4628 0.415496 17.7335 0.598308 17.9164C0.735418 18.0535 1.00964 18.1519 1.30143 18.0992L6.49753 16.6332C6.61706 16.6015 6.72253 16.5382 6.81042 16.4503L17.403 5.8437C17.6842 5.56245 17.6842 5.10894 17.403 4.82769Z" fill="#E1E1E1"/>
</g>
<defs>
<clipPath id="clip0_144_5657">
<rect width="18" height="18" fill="white" transform="translate(0 0.5)"/>
</clipPath>
</defs>
</svg>
